<?xml version="1.0" encoding="UTF-8"?>
<svg id="Layer_1" data-name="Layer 1" xmlns="http://www.w3.org/2000/svg" viewBox="0 0 250 90">
  <defs>
    <style>
      .cls-1 {
        fill: none;
        stroke: #a5a5a5;
        stroke-miterlimit: 10;
        stroke-width: 4px;
      }

      .cls-2 {
        fill: #d1d1d1;
      }

      .cls-2, .cls-3, .cls-4 {
        stroke-width: 0px;
      }

      .cls-3 {
        fill: #1b1b1b;
      }

      .cls-4 {
        fill: #a5a5a5;
      }
    </style>
  </defs>
  <g>
    <path class="cls-4" d="M76.52,59.79s-25.21.4-25.92-15.53c7.56,1.92,20.07,4.64,26.32,13.61,0-.91-2.02-20.77-36.6-19.86,0,1.21,7.06,34.18,36.2,21.78Z"/>
    <path class="cls-4" d="M76.62,52.94s-.81-14.62,6.25-19.26c.2.5,2.12,8.57-5.14,20.97,2.32-1.71,19.16-13.71,4.84-36.91-.91,1.51-14.32,15.02-5.95,35.19Z"/>
    <path class="cls-2" d="M78.24,57.54s6.36-7.18,16.27-6.61c-.63.74-5.39,7.74-16.54,8.31,1.96.42,13.62,3.53,21.06-9.59,0,0-11.97-7.36-20.79,7.89Z"/>
    <path class="cls-4" d="M78.5,60.13s8.05,3.07,10,12.04c-.67-.13-5.12-.52-11.05-10.49.2,1.28,2.89,13.24,13.61,13.32,0-2.29-.46-12.16-12.56-14.87Z"/>
    <circle class="cls-2" cx="60.53" cy="21.5" r="2.84"/>
    <circle class="cls-2" cx="52.35" cy="26.76" r="2"/>
    <circle class="cls-2" cx="48.55" cy="34.04" r="1.54"/>
    <circle class="cls-2" cx="71.72" cy="19.07" r="4.07"/>
  </g>
  <g>
    <g>
      <path class="cls-3" d="M109.63,29.5c.81,0,1.51.12,2.1.37.58.24,1.06.57,1.43.98.37.41.64.87.82,1.4.18.53.27,1.07.27,1.63,0,.49-.06.92-.18,1.31-.12.38-.28.71-.48.99-.2.27-.43.51-.69.7-.26.19-.53.35-.81.47.31.13.63.33.95.58.33.25.61.56.87.92.25.36.46.78.62,1.24.16.47.24.99.24,1.56,0,.62-.1,1.22-.3,1.81-.2.58-.5,1.1-.9,1.55-.4.45-.9.81-1.49,1.08-.59.27-1.27.4-2.04.4h-7.5v-16.97h7.08ZM103.73,36.96h6.48c.93,0,1.65-.28,2.14-.84.5-.56.74-1.27.74-2.13,0-.44-.07-.87-.21-1.29-.14-.41-.36-.78-.64-1.1-.29-.32-.65-.57-1.1-.75-.44-.18-.97-.28-1.58-.28h-5.83v6.39ZM103.73,45.41h6.21c.59,0,1.12-.1,1.58-.31.46-.21.84-.49,1.15-.84.31-.36.54-.76.7-1.22.16-.46.23-.95.23-1.46s-.08-1.01-.23-1.46c-.16-.46-.38-.86-.68-1.21-.3-.35-.65-.62-1.06-.82-.41-.2-.87-.3-1.38-.3h-6.52v7.63Z"/>
      <path class="cls-3" d="M132.31,29.5v1.06h-9.63v6.68h9.54v1.02h-9.54v7.14h9.67v1.06h-10.87v-16.97h10.83Z"/>
      <path class="cls-3" d="M145.84,29.28l7.48,17.19h-1.29l-2.53-5.88h-7.68l-2.53,5.88h-1.24l7.48-17.19h.31ZM142.18,39.75h6.97l-3.48-8.12-3.48,8.12Z"/>
      <path class="cls-3" d="M159.81,29.5v10.2c0,.92.08,1.74.26,2.47.17.73.45,1.35.84,1.86.39.51.91.9,1.54,1.18.64.27,1.42.41,2.35.41,1.74,0,3.02-.49,3.83-1.46.81-.98,1.21-2.46,1.21-4.46v-10.2h1.15v10.18c0,2.4-.53,4.16-1.6,5.3-1.06,1.14-2.6,1.71-4.59,1.71-2.12,0-3.67-.6-4.67-1.8-1-1.2-1.5-2.93-1.5-5.19v-10.2h1.18Z"/>
      <path class="cls-3" d="M189.25,29.5v1.06h-5.46v15.91h-1.2v-15.91h-5.44v-1.06h12.09Z"/>
      <path class="cls-3" d="M195.6,29.5l6.28,8.45,6.3-8.45h1.33l-7.01,9.43v7.54h-1.2v-7.52l-7.05-9.45h1.35Z"/>
    </g>
    <g>
      <path class="cls-3" d="M106,55.46c.44,0,.81.07,1.13.22.31.15.57.34.78.57.21.24.36.51.45.82.1.31.15.63.15.95,0,.27-.03.54-.1.8-.07.26-.17.5-.31.72-.14.22-.32.41-.53.57-.21.17-.47.29-.77.37l2.78,4.22h-.74l-2.69-4.13h-2.82v4.13h-.65v-9.26h3.33ZM103.33,60.11h2.61c.34,0,.63-.06.87-.17.24-.11.44-.26.6-.45.16-.19.27-.4.34-.65.07-.25.11-.5.11-.76s-.04-.52-.11-.77c-.07-.25-.19-.46-.34-.65-.16-.19-.36-.34-.6-.45-.24-.11-.53-.17-.87-.17h-2.61v4.07Z"/>
      <path class="cls-3" d="M125.63,55.46v.58h-5.25v3.64h5.2v.56h-5.2v3.9h5.28v.58h-5.93v-9.26h5.91Z"/>
      <path class="cls-3" d="M142.29,55.46v.58h-2.98v8.68h-.65v-8.68h-2.96v-.58h6.59Z"/>
      <path class="cls-3" d="M155.87,55.46c.44,0,.81.07,1.13.22.31.15.57.34.78.57.21.24.36.51.45.82.1.31.15.63.15.95,0,.27-.03.54-.1.8-.07.26-.17.5-.31.72-.14.22-.32.41-.53.57-.21.17-.47.29-.77.37l2.78,4.22h-.74l-2.69-4.13h-2.82v4.13h-.65v-9.26h3.33ZM153.19,60.11h2.61c.34,0,.63-.06.87-.17.24-.11.44-.26.6-.45.16-.19.27-.4.34-.65.07-.25.11-.5.11-.76s-.04-.52-.11-.77c-.07-.25-.19-.46-.34-.65-.16-.19-.36-.34-.6-.45-.24-.11-.53-.17-.87-.17h-2.61v4.07Z"/>
      <path class="cls-3" d="M175.49,55.46v.58h-5.25v3.64h5.2v.56h-5.2v3.9h5.28v.58h-5.93v-9.26h5.91Z"/>
      <path class="cls-3" d="M189.65,55.34l4.08,9.38h-.7l-1.38-3.21h-4.19l-1.38,3.21h-.68l4.08-9.38h.17ZM187.65,61.05h3.8l-1.9-4.43-1.9,4.43Z"/>
      <path class="cls-3" d="M209.13,55.46v.58h-2.98v8.68h-.65v-8.68h-2.96v-.58h6.59Z"/>
    </g>
    <line class="cls-1" x1="102.67" y1="50.69" x2="209.69" y2="50.69"/>
  </g>
</svg>