<?xml version="1.0" encoding="UTF-8"?>
<svg id="Layer_1" data-name="Layer 1" xmlns="http://www.w3.org/2000/svg" viewBox="0 0 250 90">
  <defs>
    <style>
      .cls-1 {
        stroke: #ababab;
        stroke-linecap: round;
        stroke-linejoin: round;
        stroke-width: .5px;
      }

      .cls-1, .cls-2 {
        fill: #ababab;
      }

      .cls-3 {
        fill: #292929;
      }

      .cls-3, .cls-2 {
        stroke-width: 0px;
      }
    </style>
  </defs>
  <g id="SvgjsG1320">
    <path class="cls-2" d="M65.3,67.71c-1.83-1.24-3.41-2.75-4.67-4.54,3.33-3.46,5.59-7.99,4.79-12.74-.5-2.95-3.33-7.06-6.15-3.5-2.18,2.78-2.68,6.92-2.01,10.3.31,1.59.86,3.04,1.61,4.37-2.06,1.95-4.65,3.92-7.13,3.77-2.43-.14-3.98-3.21-5.46-4.78-1.19-1.27-2.64-2.36-4.37-2.69-3.2-.63-6.27,1.42-8.92,2.91-2.05,1.15-4.88,2.95-7.34,2.05-2.26-.81-3.58-3.43-4.5-5.47-1.15-2.56-2.78-5.35-3.19-8.16-.35-2.4,1.75-4.57,3.04-6.37,2.47-3.45,4.74-8.25,8.47-10.52,2.49-1.51,4.9.61,7.13,1.64,1.49.72,3.02,1.06,4.63,1.31,3.96.63,4.99-6.23,5.6-8.8.29-1.2.9-6.02,2.64-5.97,1.83.42,3.21,3.41,4.06,4.87.55.94,5.8,11.78,5.9,11.74.52-.22-4.56-11.24-5.05-12.21-.95-1.85-2.39-5.05-4.62-5.64-1.89-.38-2.83,1.74-3.36,3.17-.7,1.92-2.1,11.34-5,10.9-2.4-.12-4.93-1.93-7.15-3.07-2.89-1.45-5.54-.67-7.86,1.41-2.53,2.26-4.35,5.2-6.36,7.89-2.05,2.78-5.27,5.85-5.03,9.58.25,3.72,2.38,8,4.09,11.25,1.54,2.95,3.92,5.69,7.47,5.95,4.13.3,7.62-2.58,11.12-4.31,1.1-.57,2.44-1.15,3.71-.87,2.85.82,4.26,4.26,6.57,5.93,2.47,1.8,5.34,1.42,7.81-.07,1.55-.94,3.08-2.1,4.44-3.46,2.64,3.41,6.59,5.78,10.74,7.15.01-.04.03-.09.04-.13-.03.03-5.18-2.57-5.69-2.91ZM57.95,53.91c.17-2.18.94-5.25,2.77-6.7,2.56-2.04,3.3,4.03,3.22,5.34-.13,2.56-1.15,5.07-2.95,6.91-.47.5-1.02,1.06-1.62,1.64-1.07-2.25-1.61-4.71-1.42-7.19Z"/>
  </g>
  <g id="SvgjsG1321">
    <path class="cls-3" d="M84.58,38.2c-.4.63-.93,1.08-1.58,1.35.79.27,1.47.78,2.04,1.54.57.76.85,1.59.85,2.49,0,1.78-.57,3.07-1.71,3.85-1.14.78-2.59,1.17-4.36,1.17h-7.48v-17.31h7.2c3.76,0,5.64,1.6,5.64,4.81,0,.77-.2,1.48-.6,2.11h0ZM79.62,38.15c.62,0,1.07-.19,1.36-.57s.44-.83.44-1.35c0-.46-.17-.86-.52-1.2s-.77-.51-1.26-.51h-3.53v3.62h3.51,0ZM81.54,44.79c.41-.38.62-.84.62-1.4s-.21-1.02-.62-1.4c-.41-.38-1-.57-1.78-.57h-3.65v3.93h3.72c.73,0,1.29-.19,1.71-.57h0ZM91.71,48c-1.08-.61-1.94-1.43-2.57-2.48-.63-1.04-.95-2.18-.95-3.41s.32-2.34.95-3.39c.63-1.04,1.49-1.87,2.57-2.48s2.26-.91,3.54-.91,2.46.3,3.55.91c1.09.61,1.95,1.43,2.59,2.48s.96,2.17.96,3.39-.32,2.37-.96,3.41c-.64,1.04-1.5,1.87-2.59,2.48-1.09.61-2.27.91-3.55.91s-2.46-.3-3.54-.91ZM93.45,38.92c-.55.32-.99.77-1.3,1.33s-.47,1.18-.47,1.86.15,1.35.46,1.91.73,1,1.28,1.33c.54.32,1.16.49,1.84.49s1.27-.16,1.81-.49.98-.77,1.29-1.34c.32-.57.47-1.2.47-1.89s-.16-1.3-.47-1.86-.75-1-1.29-1.33c-.54-.32-1.15-.49-1.81-.49s-1.25.16-1.8.49h0ZM108.15,48c-1.08-.61-1.94-1.43-2.57-2.48-.63-1.04-.95-2.18-.95-3.41s.32-2.34.95-3.39,1.49-1.87,2.57-2.48,2.26-.91,3.54-.91,2.46.3,3.55.91,1.95,1.43,2.59,2.48.96,2.17.96,3.39-.32,2.37-.96,3.41c-.64,1.04-1.5,1.87-2.59,2.48-1.09.61-2.27.91-3.55.91s-2.46-.3-3.54-.91h0ZM109.89,38.92c-.55.32-.99.77-1.3,1.33-.32.56-.47,1.18-.47,1.86,0,.71.15,1.35.46,1.91.31.56.73,1,1.28,1.33s1.16.49,1.84.49,1.27-.16,1.81-.49.98-.77,1.29-1.34c.32-.57.47-1.2.47-1.89s-.16-1.3-.47-1.86-.75-1-1.29-1.33c-.54-.32-1.15-.49-1.81-.49s-1.25.16-1.8.49h0ZM125.26,30.69v10.42l4.43-5.47h4.33l-5.23,6.06,5.45,6.89h-4.29l-3.41-4.26-1.28,1.47v2.79h-3.55v-17.91h3.55ZM144.09,48.6v-17.31h3.74v17.31h-3.74ZM156.22,43.96c0,.55.09,1.01.28,1.39.19.37.63.56,1.33.56.32,0,.62-.02.9-.05v2.98c-.57.06-1.1.09-1.59.09-1.01,0-1.83-.08-2.45-.25s-1.11-.49-1.46-.96c-.35-.47-.52-1.15-.52-2.04v-7.22h-1.59v-3.1h1.59v-3.48h3.51v3.48h2.61v3.1h-2.61v5.5ZM187.01,48.6h-3.77v-8.27l-5.31,6.16-5.31-6.16v8.27h-3.77v-17.86l9.07,10.23,9.07-10.23v17.86h0ZM198.57,30.74l9.5,17.86h-4.1l-1.37-2.65h-8.08l-1.33,2.65h-4.12l9.5-17.86ZM200.8,42.75l-2.23-4.52-2.2,4.52h4.43ZM214.58,34.53v14.07h-3.77v-14.07h-5.05v-3.24h13.83v3.24h-5.02ZM225.62,38.39h8.29v3.27h-8.29v3.7h9.38v3.24h-13.12v-17.31h13.12v3.24h-9.38v3.86Z"/>
  </g>
  <g id="SvgjsG1322">
    <path class="cls-1" d="M75.11,54.57v.39h-2.33v1.64h2.17v.39h-2.17v2.19h-.43v-4.62h2.76ZM79.74,54.57v4.62h-.43v-4.62h.43ZM84.89,54.57l2.81,4.04h.01v-4.04h.43v4.62h-.55l-2.81-4.04h-.01v4.04h-.43v-4.62h.55,0ZM94.03,58.8c.66,0,1.18-.17,1.56-.5.38-.33.58-.8.58-1.38,0-.63-.19-1.11-.57-1.44-.38-.33-.91-.5-1.59-.51h-.9v3.83h.92ZM94.12,54.57c.77,0,1.38.21,1.82.63.44.42.66.99.67,1.71,0,.43-.1.81-.29,1.16-.19.35-.47.62-.83.82-.36.2-.81.3-1.33.3h-1.47v-4.62h1.44,0ZM106.36,54.57v4.62h-.43v-4.62h.43ZM113.99,54.57v.39h-1.58v4.22h-.43v-4.22h-1.58v-.39h3.59ZM118.25,58.6c.09,0,.16.03.22.09.06.06.09.13.09.22s-.03.16-.09.22c-.06.06-.13.09-.22.09s-.16-.03-.22-.09c-.06-.06-.09-.13-.09-.22s.03-.16.09-.22c.06-.06.13-.09.22-.09ZM128.52,54.57v4.22h2.15v.39h-2.58v-4.62h.43,0ZM134.82,56.88c0,.59.18,1.07.54,1.45.36.38.83.57,1.41.58.59,0,1.06-.19,1.41-.58.36-.38.54-.87.54-1.46,0-.6-.18-1.08-.53-1.46-.36-.38-.83-.57-1.43-.58-.58,0-1.05.19-1.41.57-.36.38-.54.87-.54,1.46h0ZM136.77,54.46c.47,0,.88.1,1.25.31.36.21.64.5.84.87.2.37.3.79.3,1.25,0,.71-.22,1.29-.67,1.74-.45.45-1.02.68-1.71.69-.7,0-1.27-.23-1.71-.68-.44-.45-.67-1.04-.68-1.74,0-.71.23-1.29.67-1.73.44-.45,1.01-.68,1.72-.69ZM143.27,54.57l1.49,4.05,1.5-4.05h.46l-1.75,4.62h-.43l-1.72-4.62h.46ZM153.48,54.57v.39h-2.39v1.64h2.24v.39h-2.24v1.8h2.5v.39h-2.93v-4.62h2.82ZM163.31,54.57v4.62h-.43v-4.62h.43ZM170.94,54.57v.39h-1.58v4.22h-.43v-4.22h-1.58v-.39h3.59ZM175.2,58.6c.09,0,.16.03.22.09.06.06.09.13.09.22s-.03.16-.09.22c-.06.06-.13.09-.22.09s-.16-.03-.22-.09c-.06-.06-.09-.13-.09-.22s.03-.16.09-.22c.06-.06.13-.09.22-.09ZM186.49,58.8c.37,0,.65-.08.85-.24s.29-.37.29-.65c0-.3-.1-.53-.3-.7s-.47-.25-.79-.25h-1.06v1.84h1.02ZM186.39,56.57c.31,0,.56-.07.75-.2.19-.13.28-.33.28-.57,0-.54-.33-.81-.98-.83h-.98v1.6h.92ZM186.4,54.57c.48,0,.84.1,1.09.29.24.2.36.5.37.93,0,.24-.07.45-.22.62s-.35.28-.61.34h0c.3.03.55.14.74.35.19.21.29.47.29.8,0,.41-.14.72-.41.95-.27.22-.65.34-1.12.34h-1.49v-4.62h1.36ZM192.61,56.88c0,.59.18,1.07.54,1.45s.83.57,1.41.58c.59,0,1.06-.19,1.41-.58s.54-.87.54-1.46c0-.6-.18-1.08-.53-1.46-.36-.38-.83-.57-1.43-.58-.58,0-1.05.19-1.41.57-.36.38-.54.87-.54,1.46h0ZM194.57,54.46c.47,0,.88.1,1.25.31.36.21.64.5.84.87.2.37.3.79.3,1.25,0,.71-.22,1.29-.67,1.74-.45.45-1.02.68-1.71.69-.7,0-1.27-.23-1.71-.68-.44-.45-.67-1.04-.68-1.74,0-.71.23-1.29.67-1.73.44-.45,1.01-.68,1.72-.69h0ZM201.38,56.88c0,.59.18,1.07.54,1.45s.83.57,1.41.58c.59,0,1.06-.19,1.41-.58s.54-.87.54-1.46c0-.6-.18-1.08-.53-1.46-.36-.38-.83-.57-1.43-.58-.58,0-1.05.19-1.41.57-.36.38-.54.87-.54,1.46h0ZM203.34,54.46c.47,0,.88.1,1.25.31.36.21.64.5.84.87.2.37.3.79.3,1.25,0,.71-.22,1.29-.67,1.74-.45.45-1.02.68-1.71.69-.7,0-1.27-.23-1.71-.68-.44-.45-.67-1.04-.68-1.74,0-.71.23-1.29.67-1.73.44-.45,1.01-.68,1.72-.69h0ZM210.45,54.57v2.03h.04l2.24-2.03h.59l-2.33,2.11,2.46,2.5h-.62l-2.34-2.39h-.04v2.39h-.43v-4.62h.43ZM222.8,54.57v4.62h-.43v-4.62h.43ZM230.43,54.57v.39h-1.58v4.22h-.43v-4.22h-1.58v-.39h3.59ZM234.69,58.6c.09,0,.16.03.22.09.06.06.09.13.09.22,0,.09-.03.16-.09.22-.06.06-.13.09-.22.09s-.16-.03-.22-.09c-.06-.06-.09-.13-.09-.22,0-.09.03-.16.09-.22.06-.06.13-.09.22-.09Z"/>
  </g>
</svg>