<?xml version="1.0" encoding="UTF-8" standalone="no"?>
<!DOCTYPE svg PUBLIC "-//W3C//DTD SVG 1.1//EN" "http://www.w3.org/Graphics/SVG/1.1/DTD/svg11.dtd">
<svg width="100%" height="100%" viewBox="0 0 280 90" version="1.1" xmlns="http://www.w3.org/2000/svg" xmlns:xlink="http://www.w3.org/1999/xlink" xml:space="preserve" xmlns:serif="http://www.serif.com/" style="fill-rule:evenodd;clip-rule:evenodd;stroke-linejoin:round;stroke-miterlimit:2;">
    <g transform="matrix(1,0,0,1,-2640,0)">
        <g id="Artboard1" transform="matrix(1,0,0,1,2640,0)">
            <rect x="0" y="0" width="280" height="90" style="fill:none;"/>
            <g transform="matrix(1.13333,0,0,1.13333,-19.8,-6)">
                <g transform="matrix(0,-0.138747,-0.138747,0,135.429,19.6653)">
                    <path d="M-37.453,-37.453C-58.138,-37.453 -74.906,-20.685 -74.906,-0C-74.906,20.685 -58.138,37.453 -37.453,37.453C-16.768,37.453 -0,20.685 -0,-0C-0,-20.685 -16.768,-37.453 -37.453,-37.453" style="fill:rgb(27,27,27);"/>
                </g>
                <g transform="matrix(0,-0.138747,-0.138747,0,133.929,44.5265)">
                    <path d="M-13.899,-13.899C-21.575,-13.899 -27.798,-7.676 -27.798,0C-27.798,7.676 -21.575,13.899 -13.899,13.899C-6.223,13.899 0,7.676 0,0C0,-7.676 -6.223,-13.899 -13.899,-13.899" style="fill:rgb(27,27,27);"/>
                </g>
                <g transform="matrix(0.138747,0,0,0.138747,160.221,60.5715)">
                    <path d="M0,-294.827L-6.477,-288.23L-7.203,-286.282C2.229,-279.932 30.139,-250.392 24.469,-211.333C18.951,-173.322 13.46,-114.253 -94.864,-51.069C-94.864,-51.069 -97.539,-49.637 -102.153,-46.662L-155.107,-1.152C-155.462,-0.766 -155.814,-0.391 -156.17,0C-95.957,-14.753 -5.149,-70.02 30.586,-165.525C64.291,-255.605 0,-294.827 0,-294.827" style="fill:rgb(27,27,27);"/>
                </g>
                <g transform="matrix(0.138747,0,0,0.138747,122.227,48.7952)">
                    <path d="M0,-18.936C-0.666,-53.324 9.19,-77.406 19.969,-93.375L3.852,-110.271C-13.69,-86.533 -37.509,-46.802 -35.444,-8.141C-32.37,49.418 -18.219,81.181 61.394,91.335C70.461,79.675 72.463,65.719 72.853,58.781C53.224,55.557 1.167,41.333 0,-18.936" style="fill:rgb(27,27,27);"/>
                </g>
                <g transform="matrix(0.138747,0,0,0.138747,158.149,28.3653)">
                    <path d="M0,-83.786L-69.309,-98.024L-73.383,-130.353C-74.888,-141.815 -84.657,-150.384 -96.217,-150.384C-104.237,-150.384 -110.363,-143.222 -109.119,-135.298L-104.376,-105.228L-158.258,-116.297C-165.4,-117.764 -172.09,-112.309 -172.09,-105.018L-172.09,-96.266C-172.09,-90.533 -167.873,-85.674 -162.197,-84.866L-129.239,-80.177L-129.237,-80.177L-127.591,-79.962C-122.461,-79.239 -106.628,-76.528 -102.911,-70.141C-97.55,-60.928 -91.147,-21.757 -91.11,-21.534L-78.558,59.287C-77.905,63.494 -74.282,66.598 -70.024,66.598L-69.643,66.598C-64.639,66.598 -60.683,62.359 -61.027,57.367L-69.015,-58.411C-69.515,-65.667 -63.248,-71.563 -56.037,-70.622L1.305,-61.833C3.049,-61.565 4.62,-62.915 4.62,-64.678L4.62,-78.142C4.62,-80.883 2.687,-83.244 0,-83.786" style="fill:rgb(159,159,159);"/>
                </g>
                <g transform="matrix(0.138747,0,0,0.138747,81.6893,71.9364)">
                    <path d="M0,-53.975L0,-28.921L1.754,-28.921C4.453,-28.921 6.657,-29.327 8.366,-30.136C10.075,-30.946 11.521,-32.31 12.707,-34.229C13.891,-36.148 14.663,-38.742 15.023,-42.01L16.597,-42.01L16.597,-11.379L15.023,-11.379C14.453,-17.166 12.901,-20.983 10.368,-22.827C7.833,-24.67 4.962,-25.593 1.754,-25.593L0,-25.593L0,-6.926C0,-3.807 0.172,-1.858 0.517,-1.079C0.861,-0.298 1.536,0.383 2.541,0.967C3.545,1.552 4.903,1.845 6.612,1.845L8.636,1.845L8.636,3.509L-23.255,3.509L-23.255,1.845L-21.23,1.845C-19.461,1.845 -18.037,1.53 -16.958,0.9C-16.178,0.481 -15.579,-0.239 -15.158,-1.259C-14.829,-1.978 -14.664,-3.868 -14.664,-6.926L-14.664,-47.048C-14.664,-50.166 -14.829,-52.116 -15.158,-52.896C-15.489,-53.675 -16.156,-54.358 -17.16,-54.942C-18.165,-55.527 -19.521,-55.819 -21.23,-55.819L-23.255,-55.819L-23.255,-57.484L28.202,-57.484L28.202,-39.987L26.358,-39.987C25.937,-44.094 24.866,-47.138 23.142,-49.118C21.417,-51.096 18.921,-52.491 15.653,-53.3C13.854,-53.75 10.525,-53.975 5.667,-53.975L0,-53.975Z" style="fill:rgb(27,27,27);"/>
                </g>
                <g transform="matrix(0.138747,0,0,0.138747,90.1393,66.6569)">
                    <path d="M0,20.87L-9.086,-0.135L-18.442,20.87L0,20.87ZM1.529,24.199L-20.016,24.199L-22.58,30.137C-23.42,32.115 -23.839,33.75 -23.839,35.039C-23.839,36.748 -23.15,38.008 -21.77,38.817C-20.96,39.298 -18.967,39.657 -15.788,39.897L-15.788,41.561L-36.074,41.561L-36.074,39.897C-33.885,39.567 -32.086,38.66 -30.676,37.176C-29.267,35.691 -27.528,32.626 -25.458,27.977L-3.644,-20.691L-2.789,-20.691L19.207,29.327C21.305,34.065 23.03,37.049 24.379,38.277C25.398,39.208 26.837,39.747 28.697,39.897L28.697,41.561L-0.81,41.561L-0.81,39.897L0.405,39.897C2.773,39.897 4.437,39.567 5.397,38.907C6.057,38.428 6.387,37.738 6.387,36.839C6.387,36.299 6.297,35.744 6.117,35.174C6.057,34.904 5.607,33.779 4.768,31.801L1.529,24.199Z" style="fill:rgb(27,27,27);"/>
                </g>
                <g transform="matrix(0.138747,0,0,0.138747,100.355,66.8441)">
                    <path d="M0,19.431L16.552,-20.781L41.381,-20.781L41.381,-19.116L39.402,-19.116C37.603,-19.116 36.164,-18.801 35.084,-18.172C34.334,-17.752 33.735,-17.048 33.285,-16.057C32.955,-15.338 32.79,-13.464 32.79,-10.435L32.79,29.777C32.79,32.896 32.955,34.845 33.285,35.624C33.614,36.405 34.289,37.086 35.309,37.67C36.328,38.255 37.693,38.548 39.402,38.548L41.381,38.548L41.381,40.212L9.536,40.212L9.536,38.548L11.515,38.548C13.314,38.548 14.753,38.233 15.833,37.603C16.582,37.184 17.182,36.464 17.632,35.444C17.961,34.725 18.126,32.835 18.126,29.777L18.126,-15.428L-5.263,40.212L-6.342,40.212L-30.092,-15.023L-30.092,27.933C-30.092,30.931 -30.017,32.776 -29.867,33.465C-29.478,34.965 -28.63,36.186 -27.325,37.131C-26.021,38.076 -23.974,38.548 -21.186,38.548L-21.186,40.212L-42.056,40.212L-42.056,38.548L-41.426,38.548C-40.077,38.578 -38.818,38.361 -37.648,37.896C-36.479,37.431 -35.595,36.809 -34.995,36.029C-34.395,35.249 -33.93,34.156 -33.6,32.745C-33.541,32.415 -33.51,30.886 -33.51,28.158L-33.51,-10.435C-33.51,-13.523 -33.675,-15.451 -34.005,-16.215C-34.335,-16.98 -35.01,-17.655 -36.029,-18.239C-37.049,-18.824 -38.413,-19.116 -40.122,-19.116L-42.056,-19.116L-42.056,-20.781L-17.137,-20.781L0,19.431Z" style="fill:rgb(27,27,27);"/>
                </g>
                <g transform="matrix(0.138747,0,0,0.138747,111.008,64.1917)">
                    <path d="M0,57.665L0,59.329L-31.891,59.329L-31.891,57.665L-29.867,57.665C-28.098,57.665 -26.673,57.35 -25.594,56.72C-24.814,56.301 -24.215,55.581 -23.794,54.561C-23.465,53.842 -23.299,51.952 -23.299,48.894L-23.299,8.771C-23.299,5.653 -23.465,3.704 -23.794,2.924C-24.125,2.144 -24.792,1.462 -25.796,0.878C-26.801,0.293 -28.157,0.001 -29.867,0.001L-31.891,0.001L-31.891,-1.664L0,-1.664L0,0.001L-2.024,0.001C-3.794,0.001 -5.218,0.315 -6.297,0.945C-7.077,1.365 -7.691,2.085 -8.142,3.104C-8.472,3.824 -8.636,5.713 -8.636,8.771L-8.636,48.894C-8.636,52.013 -8.464,53.962 -8.119,54.741C-7.774,55.521 -7.1,56.203 -6.095,56.787C-5.09,57.372 -3.733,57.665 -2.024,57.665L0,57.665Z" style="fill:rgb(27,27,27);"/>
                </g>
                <g transform="matrix(0.138747,0,0,0.138747,119.371,66.9313)">
                    <path d="M0,18.173L-2.294,39.583L-56.449,39.583L-56.449,37.919L-54.425,37.919C-52.656,37.919 -51.232,37.604 -50.152,36.974C-49.373,36.555 -48.773,35.835 -48.353,34.815C-48.023,34.096 -47.858,32.206 -47.858,29.148L-47.858,-10.974C-47.858,-14.093 -48.023,-16.042 -48.353,-16.822C-48.684,-17.601 -49.351,-18.284 -50.354,-18.868C-51.36,-19.453 -52.716,-19.745 -54.425,-19.745L-56.449,-19.745L-56.449,-21.41L-23.929,-21.41L-23.929,-19.745L-26.583,-19.745C-28.353,-19.745 -29.776,-19.431 -30.856,-18.801C-31.636,-18.381 -32.25,-17.661 -32.7,-16.641C-33.03,-15.922 -33.195,-14.033 -33.195,-10.974L-33.195,27.888C-33.195,31.007 -33.015,32.993 -32.655,33.848C-32.295,34.702 -31.591,35.34 -30.541,35.76C-29.792,36.029 -27.977,36.164 -25.099,36.164L-20.016,36.164C-16.777,36.164 -14.079,35.595 -11.919,34.455C-9.76,33.316 -7.894,31.517 -6.319,29.058C-4.745,26.599 -3.254,22.971 -1.844,18.173L0,18.173Z" style="fill:rgb(27,27,27);"/>
                </g>
                <g transform="matrix(0.138747,0,0,0.138747,127.74,72.4233)">
                    <path d="M0,-60.993L0,-59.328C-2.009,-59.058 -3.554,-58.473 -4.633,-57.574C-6.133,-56.314 -8.501,-52.881 -11.74,-47.274L-24.964,-25.188L-24.964,-10.435C-24.964,-7.287 -24.799,-5.33 -24.469,-4.565C-24.14,-3.801 -23.487,-3.126 -22.513,-2.542C-21.539,-1.957 -20.241,-1.664 -18.622,-1.664L-15.203,-1.664L-15.203,0L-49.433,0L-49.433,-1.664L-46.239,-1.664C-44.44,-1.664 -43.016,-1.979 -41.966,-2.609C-41.187,-3.028 -40.572,-3.748 -40.122,-4.768C-39.792,-5.487 -39.627,-7.377 -39.627,-10.435L-39.627,-22.67L-53.976,-48.804C-56.825,-53.961 -58.833,-56.997 -60.003,-57.912C-61.173,-58.826 -62.732,-59.298 -64.681,-59.328L-64.681,-60.993L-35.444,-60.993L-35.444,-59.328L-36.749,-59.328C-38.519,-59.328 -39.755,-59.073 -40.459,-58.563C-41.165,-58.054 -41.517,-57.514 -41.517,-56.944C-41.517,-55.865 -40.317,-53.15 -37.918,-48.804L-26.898,-28.607L-15.923,-47.004C-13.195,-51.502 -11.83,-54.485 -11.83,-55.955C-11.83,-56.764 -12.22,-57.439 -13,-57.979C-14.019,-58.728 -15.894,-59.178 -18.622,-59.328L-18.622,-60.993L0,-60.993Z" style="fill:rgb(27,27,27);"/>
                </g>
                <g transform="matrix(0.138747,0,0,0.138747,139.136,72.6168)">
                    <path d="M0,-63.781L0,-42.641L-1.754,-42.641C-3.074,-48.158 -5.533,-52.386 -9.131,-55.325C-12.729,-58.263 -16.808,-59.733 -21.365,-59.733C-25.174,-59.733 -28.667,-58.638 -31.846,-56.45C-35.024,-54.26 -37.349,-51.396 -38.817,-47.858C-40.707,-43.331 -41.651,-38.293 -41.651,-32.746C-41.651,-27.288 -40.962,-22.317 -39.582,-17.835C-38.203,-13.351 -36.044,-9.964 -33.105,-7.67C-30.167,-5.375 -26.358,-4.228 -21.68,-4.228C-17.842,-4.228 -14.326,-5.067 -11.132,-6.747C-7.939,-8.427 -4.573,-11.32 -1.035,-15.428L-1.035,-10.166C-4.453,-6.596 -8.014,-4.01 -11.717,-2.407C-15.421,-0.802 -19.746,0 -24.694,0C-31.201,0 -36.981,-1.304 -42.034,-3.914C-47.087,-6.522 -50.984,-10.27 -53.729,-15.158C-56.472,-20.046 -57.844,-25.249 -57.844,-30.766C-57.844,-36.584 -56.322,-42.101 -53.278,-47.319C-50.235,-52.537 -46.127,-56.585 -40.954,-59.464C-35.781,-62.343 -30.287,-63.781 -24.469,-63.781C-20.181,-63.781 -15.653,-62.851 -10.885,-60.993C-8.126,-59.913 -6.373,-59.374 -5.623,-59.374C-4.663,-59.374 -3.831,-59.725 -3.126,-60.43C-2.422,-61.135 -1.964,-62.252 -1.754,-63.781L0,-63.781Z" style="fill:rgb(27,27,27);"/>
                </g>
                <g transform="matrix(0.138747,0,0,0.138747,144.846,72.1676)">
                    <path d="M0,-57.125C-5.578,-57.125 -9.822,-54.275 -12.73,-48.579C-15.1,-43.901 -16.283,-37.184 -16.283,-28.428C-16.283,-18.022 -14.455,-10.33 -10.797,-5.354C-8.248,-1.874 -4.68,-0.136 -0.092,-0.136C2.998,-0.136 5.576,-0.885 7.646,-2.385C10.283,-4.304 12.338,-7.369 13.809,-11.583C15.277,-15.796 16.012,-21.291 16.012,-28.068C16.012,-36.134 15.262,-42.169 13.764,-46.173C12.264,-50.176 10.352,-53.002 8.027,-54.651C5.703,-56.3 3.027,-57.125 0,-57.125M-0.541,-60.004C9.176,-60.363 17.068,-57.529 23.141,-51.503C29.213,-45.476 32.25,-37.934 32.25,-28.878C32.25,-21.142 29.984,-14.334 25.457,-8.457C19.459,-0.66 10.988,3.238 0.045,3.238C-10.932,3.238 -19.418,-0.479 -25.414,-7.917C-30.152,-13.794 -32.521,-20.766 -32.521,-28.833C-32.521,-37.889 -29.439,-45.437 -23.277,-51.48C-17.115,-57.522 -9.537,-60.363 -0.541,-60.004" style="fill:rgb(27,27,27);"/>
                </g>
                <g transform="matrix(0.138747,0,0,0.138747,158.875,72.6169)">
                    <path d="M0,-62.388L0,-60.723C-2.219,-60.364 -4.198,-59.179 -5.937,-57.17C-7.196,-55.67 -9.07,-52.147 -11.56,-46.6L-32.564,0L-34.049,0L-54.965,-48.489C-57.483,-54.336 -59.171,-57.77 -60.025,-58.789C-60.88,-59.808 -62.492,-60.453 -64.86,-60.723L-64.86,-62.388L-35.624,-62.388L-35.624,-60.723L-36.613,-60.723C-39.252,-60.723 -41.052,-60.393 -42.011,-59.734C-42.701,-59.284 -43.045,-58.624 -43.045,-57.755C-43.045,-57.215 -42.926,-56.577 -42.686,-55.843C-42.445,-55.108 -41.636,-53.137 -40.257,-49.928L-27.257,-19.567L-15.203,-46.6C-13.764,-49.867 -12.879,-52.057 -12.549,-53.166C-12.22,-54.276 -12.054,-55.22 -12.054,-56C-12.054,-56.9 -12.295,-57.695 -12.773,-58.384C-13.254,-59.074 -13.959,-59.599 -14.888,-59.958C-16.178,-60.468 -17.887,-60.723 -20.016,-60.723L-20.016,-62.388L0,-62.388Z" style="fill:rgb(27,27,27);"/>
                </g>
                <g transform="matrix(0.138747,0,0,0.138747,162.489,71.9364)">
                    <path d="M0,-53.975L0,-29.146L1.215,-29.146C5.083,-29.146 7.887,-30.361 9.626,-32.789C11.364,-35.218 12.475,-38.801 12.954,-43.539L14.663,-43.539L14.663,-11.604L12.954,-11.604C12.595,-15.082 11.837,-17.931 10.683,-20.15C9.528,-22.369 8.187,-23.861 6.657,-24.625C5.128,-25.39 2.908,-25.773 0,-25.773L0,-8.59C0,-5.232 0.142,-3.177 0.428,-2.428C0.712,-1.678 1.244,-1.063 2.024,-0.584C2.804,-0.104 4.063,0.135 5.803,0.135L9.446,0.135C15.143,0.135 19.708,-1.184 23.143,-3.823C26.575,-6.461 29.042,-10.48 30.541,-15.877L32.206,-15.877L29.462,3.509L-23.255,3.509L-23.255,1.845L-21.23,1.845C-19.461,1.845 -18.037,1.53 -16.957,0.9C-16.178,0.481 -15.578,-0.239 -15.158,-1.259C-14.828,-1.978 -14.663,-3.868 -14.663,-6.926L-14.663,-47.048C-14.663,-49.807 -14.738,-51.501 -14.889,-52.131C-15.188,-53.18 -15.743,-53.99 -16.553,-54.56C-17.692,-55.399 -19.251,-55.819 -21.23,-55.819L-23.255,-55.819L-23.255,-57.484L27.798,-57.484L27.798,-39.447L26.088,-39.447C25.218,-43.855 23.997,-47.018 22.423,-48.937C20.849,-50.856 18.622,-52.266 15.743,-53.165C14.063,-53.705 10.915,-53.975 6.297,-53.975L0,-53.975Z" style="fill:rgb(27,27,27);"/>
                </g>
                <g transform="matrix(0.138747,0,0,0.138747,170.714,72.6169)">
                    <path d="M0,-62.388L30.092,-24.56L30.092,-50.783C30.092,-54.441 29.566,-56.915 28.518,-58.204C27.078,-59.944 24.664,-60.784 21.275,-60.723L21.275,-62.388L41.427,-62.388L41.427,-60.723C38.848,-60.393 37.115,-59.966 36.231,-59.442C35.347,-58.916 34.657,-58.062 34.162,-56.877C33.668,-55.693 33.42,-53.661 33.42,-50.783L33.42,0L31.891,0L-9.355,-50.783L-9.355,-12.01C-9.355,-8.502 -8.554,-6.133 -6.949,-4.904C-5.346,-3.673 -3.508,-3.059 -1.439,-3.059L0,-3.059L0,-1.395L-21.635,-1.395L-21.635,-3.059C-18.277,-3.089 -15.938,-3.779 -14.618,-5.128C-13.299,-6.478 -12.639,-8.772 -12.639,-12.01L-12.639,-55.056L-13.943,-56.675C-15.233,-58.294 -16.372,-59.359 -17.362,-59.868C-18.352,-60.378 -19.776,-60.663 -21.635,-60.723L-21.635,-62.388L0,-62.388Z" style="fill:rgb(27,27,27);"/>
                </g>
                <g transform="matrix(0.138747,0,0,0.138747,181.866,66.6569)">
                    <path d="M0,20.87L-9.085,-0.135L-18.441,20.87L0,20.87ZM1.53,24.199L-20.016,24.199L-22.579,30.137C-23.419,32.115 -23.839,33.75 -23.839,35.039C-23.839,36.748 -23.149,38.008 -21.77,38.817C-20.96,39.298 -18.966,39.657 -15.787,39.897L-15.787,41.561L-36.073,41.561L-36.073,39.897C-33.885,39.567 -32.086,38.66 -30.676,37.176C-29.267,35.691 -27.527,32.626 -25.458,27.977L-3.643,-20.691L-2.788,-20.691L19.207,29.327C21.306,34.065 23.03,37.049 24.38,38.277C25.398,39.208 26.838,39.747 28.697,39.897L28.697,41.561L-0.81,41.561L-0.81,39.897L0.405,39.897C2.773,39.897 4.438,39.567 5.398,38.907C6.058,38.428 6.388,37.738 6.388,36.839C6.388,36.299 6.298,35.744 6.118,35.174C6.058,34.904 5.607,33.779 4.769,31.801L1.53,24.199Z" style="fill:rgb(27,27,27);"/>
                </g>
                <g transform="matrix(0.138747,0,0,0.138747,189.174,72.6169)">
                    <path d="M0,-62.388L30.092,-24.56L30.092,-50.783C30.092,-54.441 29.566,-56.915 28.518,-58.204C27.078,-59.944 24.664,-60.784 21.275,-60.723L21.275,-62.388L41.427,-62.388L41.427,-60.723C38.848,-60.393 37.115,-59.966 36.231,-59.442C35.347,-58.916 34.657,-58.062 34.162,-56.877C33.668,-55.693 33.42,-53.661 33.42,-50.783L33.42,0L31.891,0L-9.355,-50.783L-9.355,-12.01C-9.355,-8.502 -8.554,-6.133 -6.949,-4.904C-5.346,-3.673 -3.508,-3.059 -1.439,-3.059L0,-3.059L0,-1.395L-21.635,-1.395L-21.635,-3.059C-18.277,-3.089 -15.938,-3.779 -14.618,-5.128C-13.299,-6.478 -12.639,-8.772 -12.639,-12.01L-12.639,-55.056L-13.943,-56.675C-15.233,-58.294 -16.372,-59.359 -17.362,-59.868C-18.352,-60.378 -19.776,-60.663 -21.635,-60.723L-21.635,-62.388L0,-62.388Z" style="fill:rgb(27,27,27);"/>
                </g>
                <g transform="matrix(0.138747,0,0,0.138747,203.285,72.4233)">
                    <path d="M0,-60.993L0,-44.485L-1.62,-44.485C-2.58,-48.293 -3.644,-51.03 -4.813,-52.694C-5.982,-54.358 -7.587,-55.685 -9.626,-56.675C-10.766,-57.215 -12.76,-57.484 -15.608,-57.484L-20.151,-57.484L-20.151,-10.435C-20.151,-7.316 -19.979,-5.367 -19.634,-4.588C-19.29,-3.807 -18.615,-3.126 -17.61,-2.542C-16.605,-1.957 -15.233,-1.664 -13.494,-1.664L-11.471,-1.664L-11.471,0L-43.406,0L-43.406,-1.664L-41.382,-1.664C-39.613,-1.664 -38.188,-1.979 -37.108,-2.609C-36.329,-3.028 -35.714,-3.748 -35.265,-4.768C-34.935,-5.487 -34.77,-7.377 -34.77,-10.435L-34.77,-57.484L-39.178,-57.484C-43.286,-57.484 -46.27,-56.614 -48.129,-54.876C-50.737,-52.446 -52.387,-48.983 -53.076,-44.485L-54.786,-44.485L-54.786,-60.993L0,-60.993Z" style="fill:rgb(27,27,27);"/>
                </g>
                <g transform="matrix(0.138747,0,0,0.138747,169.972,78.2566)">
                    <path d="M0,16.853L0,26.285C-5.401,29.151 -11.061,30.583 -16.978,30.583C-24.646,30.583 -30.754,28.465 -35.3,24.229C-39.846,19.992 -42.118,14.771 -42.118,8.566C-42.118,2.361 -39.722,-2.907 -34.929,-7.236C-30.136,-11.565 -23.873,-13.73 -16.143,-13.73C-9.979,-13.73 -4.763,-12.461 -0.495,-9.926L-0.495,-0.309C-5.731,-3.256 -10.689,-4.731 -15.369,-4.731C-19.967,-4.731 -23.724,-3.499 -26.641,-1.036C-29.559,1.428 -31.017,4.567 -31.017,8.38C-31.017,12.215 -29.579,15.379 -26.703,17.874C-23.827,20.369 -20.143,21.616 -15.647,21.616C-13.421,21.616 -11.277,21.322 -9.216,20.734C-7.154,20.147 -4.082,18.853 0,16.853" style="fill:rgb(159,159,159);"/>
                </g>
                <g transform="matrix(0.138747,0,0,0.138747,176.965,82.4227)">
                    <path d="M0,-43.2L0,0L-10.762,0L-10.762,-17.471L-32.284,-17.471L-32.284,0L-43.046,0L-43.046,-43.2L-32.284,-43.2L-32.284,-25.851L-10.762,-25.851L-10.762,-43.2L0,-43.2Z" style="fill:rgb(159,159,159);"/>
                </g>
                <g transform="matrix(0.138747,0,0,0.138747,182.573,82.5)">
                    <path d="M0,-43.757L10.761,-43.757L10.761,-19.235C10.761,-12.926 8.895,-8.143 5.164,-4.886C1.433,-1.628 -3.896,0 -10.823,0C-17.668,0 -22.982,-1.65 -26.765,-4.948C-30.548,-8.246 -32.439,-12.988 -32.439,-19.173L-32.439,-43.757L-21.646,-43.757L-21.646,-18.925C-21.646,-15.915 -20.663,-13.503 -18.693,-11.69C-16.726,-9.875 -14.144,-8.968 -10.947,-8.968C-7.628,-8.968 -4.975,-9.896 -2.984,-11.751C-0.995,-13.607 0,-16.245 0,-19.667L0,-43.757Z" style="fill:rgb(159,159,159);"/>
                </g>
                <g transform="matrix(0.138747,0,0,0.138747,186.679,81.3243)">
                    <path d="M0,-27.366L0,-17.533L5.689,-17.533C7.503,-17.533 8.941,-17.961 10.003,-18.816C11.064,-19.672 11.596,-20.892 11.596,-22.48C11.596,-25.737 9.544,-27.366 5.442,-27.366L0,-27.366ZM-10.762,-35.283L8.534,-35.283C12.72,-35.283 16.121,-34.072 18.739,-31.652C21.357,-29.231 22.667,-26.3 22.667,-22.86C22.667,-18.1 20.192,-14.578 15.245,-12.292C17.413,-11.304 19.475,-8.647 21.429,-4.321C23.383,0.006 25.269,4.085 27.089,7.917L15.279,7.917C14.574,6.494 13.347,3.784 11.595,-0.216C9.843,-4.215 8.344,-6.782 7.097,-7.916C5.849,-9.05 4.515,-9.616 3.092,-9.616L0,-9.616L0,7.917L-10.762,7.917L-10.762,-35.283Z" style="fill:rgb(159,159,159);"/>
                </g>
                <g transform="matrix(0.138747,0,0,0.138747,196.544,78.2566)">
                    <path d="M0,16.853L0,26.285C-5.401,29.151 -11.061,30.583 -16.978,30.583C-24.646,30.583 -30.754,28.465 -35.3,24.229C-39.846,19.992 -42.118,14.771 -42.118,8.566C-42.118,2.361 -39.722,-2.907 -34.929,-7.236C-30.136,-11.565 -23.873,-13.73 -16.143,-13.73C-9.979,-13.73 -4.763,-12.461 -0.495,-9.926L-0.495,-0.309C-5.731,-3.256 -10.689,-4.731 -15.369,-4.731C-19.967,-4.731 -23.724,-3.499 -26.641,-1.036C-29.559,1.428 -31.017,4.567 -31.017,8.38C-31.017,12.215 -29.579,15.379 -26.703,17.874C-23.827,20.369 -20.143,21.616 -15.647,21.616C-13.421,21.616 -11.277,21.322 -9.216,20.734C-7.154,20.147 -4.082,18.853 0,16.853" style="fill:rgb(159,159,159);"/>
                </g>
                <g transform="matrix(0.138747,0,0,0.138747,203.537,82.4227)">
                    <path d="M0,-43.2L0,0L-10.762,0L-10.762,-17.471L-32.284,-17.471L-32.284,0L-43.046,0L-43.046,-43.2L-32.284,-43.2L-32.284,-25.851L-10.762,-25.851L-10.762,-43.2L0,-43.2Z" style="fill:rgb(159,159,159);"/>
                </g>
                <g transform="matrix(0.138747,0,0,0.138747,142.614,57.1516)">
                    <path d="M0,-264.061C0,-264.061 11.515,-175.301 -43.42,-175.301C-109.391,-175.301 -171.223,-262.322 -189.515,-293.568C-185.916,-272.697 -170.083,-226.398 -121.385,-177.58C-67.653,-123.715 -9.476,-81.743 -29.987,-21.29C-33.345,-45.519 -35.024,-78.624 -41.681,-87.261C-41.681,-87.261 -40.242,-51.996 -58.774,-51.996C-77.305,-51.996 -110.23,-74.126 -121.565,-101.654C-118.327,-86.541 -108.851,-61.472 -83.482,-40.961C-58.114,-20.451 -45.22,-4.738 -61.292,29.507C-28.187,9.536 16.242,-3.858 23.27,-96.976C29.507,-179.619 0,-264.061 0,-264.061" style="fill:rgb(27,27,27);"/>
                </g>
            </g>
        </g>
    </g>
</svg>
