<?xml version="1.0" encoding="UTF-8"?>
<svg id="Layer_1" data-name="Layer 1" xmlns="http://www.w3.org/2000/svg" viewBox="0 0 250 90">
  <defs>
    <style>
      .cls-1 {
        fill: #1b1b1b;
      }

      .cls-1, .cls-2 {
        stroke-width: 0px;
      }

      .cls-2 {
        fill: #888;
      }
    </style>
  </defs>
  <g>
    <path class="cls-1" d="M33.52,56.19h-3.92c-.16,0-.26-.1-.26-.26v-18.11c0-.16.1-.26.26-.26h3.92c.16,0,.26.1.26.26v18.11c0,.16-.1.26-.26.26Z"/>
    <path class="cls-1" d="M57.4,56.19h-2.51c-.13,0-.24-.05-.31-.16l-7.94-9.69c-.16-.21-.31-.1-.31.13v9.46c0,.16-.1.26-.26.26h-3.92c-.16,0-.26-.1-.26-.26v-18.11c0-.16.1-.26.26-.26h2.51c.13,0,.24.05.31.16l7.94,9.69c.16.21.31.1.31-.13v-9.46c0-.16.1-.26.26-.26h3.92c.16,0,.26.1.26.26v18.11c0,.16-.1.26-.26.26Z"/>
    <path class="cls-1" d="M79.42,37.82v3.4c0,.16-.1.26-.26.26h-4.47c-.16,0-.26.1-.26.26v14.19c0,.16-.1.26-.26.26h-3.92c-.16,0-.26-.1-.26-.26v-14.19c0-.16-.1-.26-.26-.26h-4.49c-.16,0-.26-.1-.26-.26v-3.4c0-.16.1-.26.26-.26h13.93c.16,0,.26.1.26.26Z"/>
    <path class="cls-1" d="M98.46,52.53v3.4c0,.16-.1.26-.26.26h-11.47c-.16,0-.26-.1-.26-.26v-18.11c0-.16.1-.26.26-.26h11.21c.16,0,.26.1.26.26v3.4c0,.16-.1.26-.26.26h-6.77c-.16,0-.26.1-.26.26v3.06c0,.16.1.26.26.26h4.89c.16,0,.26.1.26.26v3.4c0,.16-.1.26-.26.26h-4.89c-.16,0-.26.1-.26.26v2.77c0,.16.1.26.26.26h7.03c.16,0,.26.1.26.26Z"/>
    <path class="cls-1" d="M105.77,55.93v-18.11c0-.16.1-.26.26-.26h7.97c3.74,0,6.77,2.77,6.77,6.56,0,2.38-1.1,4.31-3.19,5.59-.13.08-.16.24-.08.37l3.11,5.8c.1.18,0,.31-.18.31h-4.23c-.13,0-.26-.05-.31-.18l-2.64-5.15c-.05-.13-.18-.18-.31-.18h-2.46c-.16,0-.26.1-.26.26v4.99c0,.16-.1.26-.26.26h-3.92c-.16,0-.26-.1-.26-.26ZM113.48,46.76c1.59,0,2.85-1.1,2.85-2.64,0-1.62-1.33-2.64-2.85-2.64h-3c-.16,0-.26.1-.26.26v4.75c0,.16.1.26.26.26h3Z"/>
    <path class="cls-1" d="M140.85,49.5l3.63.47c.21.03.18.24.16.37-.63,3.4-3.97,5.93-7.94,5.93-5.41,0-9.14-4.29-9.14-9.43s3.74-9.35,9.14-9.35c3.97,0,7.26,2.53,7.94,5.93.03.13.05.34-.16.37l-3.63.47c-.13.03-.29.03-.37-.16-.42-1.07-1.52-2.69-3.97-2.69-2.25,0-4.52,1.72-4.52,5.43s2.27,5.51,4.52,5.51c2.46,0,3.55-1.62,3.97-2.69.08-.18.24-.18.37-.16Z"/>
    <path class="cls-1" d="M183.04,55.93v-18.11c0-.16.11-.26.26-.26h7.97c3.74,0,6.77,2.77,6.77,6.56,0,2.38-1.1,4.31-3.19,5.59-.13.08-.16.24-.08.37l3.11,5.8c.1.18,0,.31-.18.31h-4.23c-.13,0-.26-.05-.31-.18l-2.64-5.15c-.05-.13-.18-.18-.31-.18h-2.46c-.16,0-.26.1-.26.26v4.99c0,.16-.1.26-.26.26h-3.92c-.16,0-.26-.1-.26-.26ZM190.75,46.76c1.59,0,2.85-1.1,2.85-2.64,0-1.62-1.33-2.64-2.85-2.64h-3c-.16,0-.26.1-.26.26v4.75c0,.16.1.26.26.26h3Z"/>
    <path class="cls-1" d="M205.35,55.93v-18.11c0-.16.11-.26.26-.26h7.45c4.21,0,7.6,2.77,7.6,6.95s-3.4,6.95-7.6,6.95h-3c-.16,0-.26.1-.26.26v4.21c0,.16-.1.26-.26.26h-3.92c-.16,0-.26-.1-.26-.26ZM212.8,47.54c2.06,0,3.42-.84,3.42-3.03s-1.38-3.03-3.42-3.03h-2.74c-.16,0-.26.1-.26.26v5.54c0,.16.1.26.26.26h2.74Z"/>
  </g>
  <path class="cls-2" d="M178.48,40.99c-.1-1.54-.47-2.93-1.13-4.27-1.93-3.9-7.25-3.6-7.49-3.59-1.65.18-3.21.72-4.91,1.72-1.68.98-3.21,2.27-4.55,3.82-1.66,1.92-2.78,3.87-3.44,5.98-.41,1.3-.56,2.53-.47,3.75.09,1.32.47,2.47,1.16,3.52,1.12,1.71,2.59,2.55,4.38,2.52.8-.02,1.57-.21,2.44-.6,1.28-.58,2.43-1.45,3.6-2.74,1.35-1.48,2.44-3.2,3.32-5.28.1-.24.2-.48.29-.73l.13-.33c.03-.07.02-.16-.02-.22s-.12-.11-.19-.11c-.11,0-.26.03-.34.2-.73,1.14-1.43,2.12-2.14,2.98-.8.98-1.91,2.23-3.34,3.18-.65.43-1.46.88-2.53.95-.86.06-1.64-.23-2.31-.84-1-.92-1.67-2.04-1.93-3.22-.33-1.44-.23-2.85.3-4.44.51-1.52,1.35-2.87,2.56-4.12,1.38-1.43,2.92-2.44,4.71-3.08,1.45-.52,2.75-.69,4.09-.53.24.04,5.76.94,5.34,6.33,0,2.04-.35,3.97-1.07,5.89-.61,1.61-1.45,3.14-2.55,4.67l-.16.22c-.3.42-.58.81-.93,1.14-.53.51-1.12,1.01-1.78,1.51-1.39,1.04-2.64,1.75-3.93,2.22-1.41.52-2.66.7-3.94.57-1.87-.18-3.55-1.08-4.99-2.66-.56-.62-1.02-1.31-1.45-1.98l-.12-.19c-.77-1.18-1.31-2.37-1.6-3.55-.38-1.53-.45-3.04-.23-4.61.27-1.93.92-3.75,1.98-5.56,1.03-1.77,2.38-3.36,4.01-4.73,1.6-1.35,3.38-2.41,5.29-3.16,2.12-.83,4.23-1.24,6.45-1.26h.49s.23,0,.23,0c.11,0,.21-.08.24-.19.02-.11-.03-.23-.14-.27-.34-.16-.67-.24-.98-.31-1.38-.3-2.72-.27-4.34.1,0,0,0,0-.01,0-5.13,1.46-8.44,4.42-8.47,4.45-1.99,1.83-3.55,3.66-4.75,5.62-1.34,2.18-2.14,4.34-2.45,6.6-.4,2.88.03,5.63,1.32,8.39.42.9.93,1.86,1.8,2.69,1.63,1.55,3.29,2.54,5.08,3.03.91.25,1.81.37,2.73.37.67,0,1.36-.07,2.05-.2,2.12-.4,4.04-1.28,6.06-2.76,1.46-1.07,2.76-2.32,3.98-3.84,1.59-1.98,2.81-4.14,3.63-6.42.84-2.34,1.17-4.45,1.02-6.62Z"/>
</svg>