<?xml version="1.0" encoding="UTF-8"?>
<svg id="Layer_1" data-name="Layer 1" xmlns="http://www.w3.org/2000/svg" viewBox="0 0 250 90">
  <defs>
    <style>
      .cls-1 {
        fill: #202224;
        stroke-width: 0px;
      }
    </style>
  </defs>
  <path class="cls-1" d="M151.62,63.12v1.23h-22.21v-1.23h3.06v-23.06c0-5.97-.92-7.97-4.22-7.97-1.6,0-3.22.38-4.75,1.15.15,1.08.23,2.23.23,3.52v26.35h3.06v1.23h-21.44v-1.23h3.06v-23.04c0-5.97-.92-7.97-4.21-7.97-1.54,0-3.06.31-4.52,1v30.03h3.06v1.23h-22.21v-1.23h3.83v-27.95l-4.37-3.76,19.69-6.89v7.66c6.2-4.98,10.26-7.28,14.55-7.28,5.2,0,8.12,2.6,9.12,7.58,6.43-5.2,10.57-7.58,14.94-7.58,6.51,0,9.49,4.06,9.49,11.87v26.35h3.83v.02Z"/>
  <path class="cls-1" d="M155.3,58.06c0-4.6,2.91-7.43,7.35-7.43s7.35,2.83,7.35,7.43-2.91,7.43-7.35,7.43-7.35-2.83-7.35-7.43Z"/>
</svg>