<?xml version="1.0" encoding="UTF-8"?>
<svg id="Layer_1" data-name="Layer 1" xmlns="http://www.w3.org/2000/svg" viewBox="0 0 250 90">
  <defs>
    <style>
      .cls-1 {
        fill: #1b1b1b;
        stroke-width: 0px;
      }
    </style>
  </defs>
  <rect class="cls-1" x="33.15" y="34.65" width="1.25" height="20.63"/>
  <rect class="cls-1" x="65.6" y="34.65" width="1.25" height="20.63"/>
  <polygon class="cls-1" points="56.88 34.68 55.96 33.84 47.41 43.25 47.32 43.14 47.32 34.65 46.07 34.65 46.07 55.28 47.32 55.28 47.32 45.2 47.37 45.15 56.52 56.15 57.48 55.35 48.22 44.22 56.88 34.68"/>
  <polygon class="cls-1" points="75.64 35.82 81.21 35.82 81.21 55.28 82.46 55.28 82.46 35.82 88.03 35.82 88.03 34.57 75.64 34.57 75.64 35.82"/>
  <path class="cls-1" d="M189.69,40.23c0-3.02-2.46-5.48-5.48-5.48h-4.96v20.37h1.25v-9.41h3.71c.07,0,.13,0,.2-.01l5.09,9.71,1.11-.58-4.9-9.34c2.29-.66,3.97-2.77,3.97-5.27ZM180.5,44.46v-8.46h3.71c2.33,0,4.23,1.9,4.23,4.23s-1.9,4.23-4.23,4.23h-3.71Z"/>
  <polygon class="cls-1" points="200.21 55.2 209.46 55.2 209.46 53.95 201.46 53.95 201.46 44.9 208.08 44.9 208.08 43.9 201.46 43.9 201.46 36 209.46 36 209.46 34.75 200.21 34.75 200.21 55.2"/>
  <polygon class="cls-1" points="238.07 53.95 238.07 34.73 236.82 34.73 236.82 55.2 245.76 55.2 245.76 53.95 238.07 53.95"/>
  <polygon class="cls-1" points="220.2 34.73 218.95 34.73 218.95 55.2 227.89 55.2 227.89 53.95 220.2 53.95 220.2 34.73"/>
  <path class="cls-1" d="M161.55,34.64c-6.39,0-7.21,5.58-7.21,10.45s.82,10.45,7.21,10.45,7.21-5.58,7.21-10.45-.82-10.45-7.21-10.45ZM161.55,54.28c-4.23,0-5.96-2.66-5.96-9.2s1.73-9.2,5.96-9.2,5.96,2.66,5.96,9.2-1.73,9.2-5.96,9.2Z"/>
  <path class="cls-1" d="M99.15,34.64l-6.6,21.15,1.19.37,2.14-6.87h7.95l2.14,6.87,1.19-.37-6.6-21.15h-1.42ZM96.28,48.04l3.59-11.49,3.59,11.49h-7.17Z"/>
  <path class="cls-1" d="M21.41,34.65h-1.25v12.78h-2.61l-6.4-12.78h-1.32v12.78h-3.59v1.25h3.59v6.51h1.25v-6.51h5.7l3.26,6.51h1.37v-6.51h4.73v-1.25h-4.73v-12.78ZM11.08,47.42v-10.13l5.08,10.13h-5.08ZM20.16,52.64l-1.99-3.96h1.99v3.96Z"/>
  <path class="cls-1" d="M143.23,34.95h-1.26l-4.07,12.47h-2.04l-4.07-12.47h-1.26l-1.25,12.47h-2.8v1.25h2.68l-.67,6.67h1.25l.67-6.67h4.55l1.29,3.96h1.27l1.29-3.96h4.55l.67,6.67h1.25l-.67-6.67h1.77v-1.25h-1.9l-1.25-12.47ZM130.53,47.42l.94-9.44,3.08,9.44h-4.02ZM136.88,50.55l-.61-1.87h1.22l-.61,1.87ZM139.21,47.42l3.08-9.44.94,9.44h-4.02Z"/>
</svg>