<?xml version="1.0" encoding="UTF-8"?>
<svg id="Layer_1" data-name="Layer 1" xmlns="http://www.w3.org/2000/svg" xmlns:xlink="http://www.w3.org/1999/xlink" viewBox="0 0 250 90">
  <defs>
    <style>
      .cls-1 {
        fill: #1b1b1b;
      }

      .cls-1, .cls-2, .cls-3 {
        stroke-width: 0px;
      }

      .cls-2 {
        fill: url(#linear-gradient);
      }

      .cls-3 {
        fill: url(#linear-gradient-2);
      }
    </style>
    <linearGradient id="linear-gradient" x1="66.63" y1="12" x2="66.63" y2="60.14" gradientUnits="userSpaceOnUse">
      <stop offset="0" stop-color="#a3a3a3"/>
      <stop offset="1" stop-color="#dbdbdb"/>
    </linearGradient>
    <linearGradient id="linear-gradient-2" x1="66.39" y1="48.02" x2="79.91" y2="62.64" gradientUnits="userSpaceOnUse">
      <stop offset="0" stop-color="#5e5e5e"/>
      <stop offset="1" stop-color="#b8b8b8"/>
    </linearGradient>
  </defs>
  <g>
    <g>
      <path class="cls-1" d="M90.27,47.99v-7.71l-3.17,7.71h-.29l-3.18-7.71v7.71h-.74v-8.69h1.11l2.96,7.2,2.94-7.2h1.12v8.69h-.75Z"/>
      <path class="cls-1" d="M93.18,47.99v-8.69h5.51v.68h-4.77v3.22h4.68v.68h-4.68v3.44h4.77v.68h-5.51Z"/>
      <path class="cls-1" d="M100.53,47.99v-8.69h2.78c2.7,0,4.39,1.97,4.39,4.35s-1.69,4.34-4.39,4.34h-2.78ZM101.27,47.31h2.03c2.29,0,3.61-1.63,3.61-3.66s-1.3-3.67-3.61-3.67h-2.03v7.33Z"/>
      <path class="cls-1" d="M109.54,47.99v-8.69h.74v8.69h-.74Z"/>
      <path class="cls-1" d="M112.12,43.65c0-2.67,1.94-4.49,4.38-4.49,1.41,0,2.45.61,3.19,1.54l-.63.4c-.55-.76-1.5-1.26-2.57-1.26-2.02,0-3.6,1.55-3.6,3.82s1.58,3.82,3.6,3.82c1.07,0,2.02-.51,2.57-1.26l.63.39c-.77.95-1.79,1.55-3.19,1.55-2.44,0-4.38-1.82-4.38-4.49Z"/>
      <path class="cls-1" d="M127.49,47.99l-.87-2.14h-4.62l-.87,2.14h-.83l3.56-8.69h.93l3.56,8.69h-.83ZM124.29,40.03l-2.07,5.15h4.16l-2.08-5.15Z"/>
      <path class="cls-1" d="M129.59,47.99v-8.69h.74v8.01h4.21v.68h-4.95Z"/>
      <path class="cls-1" d="M139.21,43.65c0-2.67,1.94-4.49,4.38-4.49,1.41,0,2.45.61,3.19,1.54l-.63.4c-.55-.76-1.5-1.26-2.57-1.26-2.02,0-3.6,1.55-3.6,3.82s1.58,3.82,3.6,3.82c1.07,0,2.02-.51,2.57-1.26l.63.39c-.77.95-1.79,1.55-3.19,1.55-2.44,0-4.38-1.82-4.38-4.49Z"/>
      <path class="cls-1" d="M154.58,47.99l-.87-2.14h-4.62l-.87,2.14h-.83l3.56-8.69h.93l3.56,8.69h-.83ZM151.38,40.03l-2.07,5.15h4.16l-2.08-5.15Z"/>
      <path class="cls-1" d="M161.78,47.99l-2.44-3.6h-1.91v3.6h-.74v-8.69h3.24c1.5,0,2.64.95,2.64,2.54s-1.12,2.45-2.41,2.5l2.51,3.65h-.9ZM159.86,39.98h-2.44v3.74h2.44c1.15,0,1.93-.78,1.93-1.88s-.78-1.86-1.93-1.86Z"/>
      <path class="cls-1" d="M164.42,47.99v-8.69h5.51v.68h-4.77v3.22h4.68v.68h-4.68v3.44h4.77v.68h-5.51Z"/>
      <path class="cls-1" d="M171.77,47.99v-8.69h5.51v.68h-4.77v3.22h4.68v.68h-4.68v3.44h4.77v.68h-5.51Z"/>
      <path class="cls-1" d="M184.2,47.99l-2.44-3.6h-1.91v3.6h-.74v-8.69h3.24c1.5,0,2.64.95,2.64,2.54s-1.12,2.45-2.41,2.5l2.51,3.65h-.9ZM182.29,39.98h-2.44v3.74h2.44c1.15,0,1.93-.78,1.93-1.88s-.78-1.86-1.93-1.86Z"/>
      <path class="cls-1" d="M186.85,46.21c.56.65,1.47,1.26,2.71,1.26,1.78,0,2.29-.99,2.29-1.73,0-1.22-1.16-1.56-2.38-1.89-1.37-.38-2.83-.77-2.83-2.37,0-1.42,1.28-2.32,2.85-2.32,1.3,0,2.27.46,2.94,1.22l-.5.55c-.63-.76-1.51-1.09-2.49-1.09-1.16,0-2.03.66-2.03,1.6,0,1.03,1.08,1.33,2.27,1.64,1.41.4,2.94.85,2.94,2.61,0,1.12-.74,2.46-3.09,2.46-1.43,0-2.51-.57-3.18-1.38l.48-.56Z"/>
    </g>
    <g>
      <path class="cls-1" d="M82.63,67.89v-6.58h2.1c2.04,0,3.32,1.49,3.32,3.29s-1.28,3.28-3.32,3.28h-2.1ZM83.19,67.37h1.54c1.73,0,2.73-1.23,2.73-2.77s-.99-2.78-2.73-2.78h-1.54v5.55Z"/>
      <path class="cls-1" d="M93.3,67.89l-1.84-2.72h-1.45v2.72h-.56v-6.58h2.45c1.13,0,2,.72,2,1.92s-.85,1.85-1.82,1.89l1.9,2.76h-.68ZM91.85,61.82h-1.84v2.83h1.84c.87,0,1.46-.59,1.46-1.42s-.59-1.41-1.46-1.41Z"/>
      <path class="cls-1" d="M97.52,66.77c.3.38.69.72,1.31.72.9,0,1.45-.62,1.45-1.51v-4.67h.57v4.67c0,1.37-.9,2.02-1.99,2.02-.71,0-1.25-.25-1.69-.81l.35-.42Z"/>
      <path class="cls-1" d="M105.44,61.2c1.92,0,3.19,1.48,3.19,3.4s-1.27,3.4-3.19,3.4-3.19-1.48-3.19-3.4,1.26-3.4,3.19-3.4ZM105.44,61.71c-1.6,0-2.6,1.21-2.6,2.89s1.01,2.89,2.6,2.89,2.6-1.23,2.6-2.89-1.02-2.89-2.6-2.89Z"/>
      <path class="cls-1" d="M117.31,67.89v-3.12h-4.17v3.12h-.56v-6.58h.56v2.94h4.17v-2.94h.57v6.58h-.57Z"/>
      <path class="cls-1" d="M119.5,67.89v-6.58h4.17v.51h-3.61v2.44h3.54v.51h-3.54v2.6h3.61v.51h-4.17Z"/>
      <path class="cls-1" d="M125.06,67.89v-6.58h.56v6.06h3.18v.51h-3.75Z"/>
      <path class="cls-1" d="M130.77,67.89v-2.81l-2.61-3.77h.68l2.22,3.23,2.22-3.23h.68l-2.61,3.77v2.81h-.57Z"/>
    </g>
    <g>
      <path class="cls-1" d="M87.24,21.2v.79l-1.26.1v10.84l1.26.02v.75h-4.38v-.59l1.18-.39v-10.6l-1.17-.1v-.81h4.36Z"/>
      <path class="cls-1" d="M89.98,21.16h2.15l7.03,9.91-.14-8.83-2.33-.26v-.79h4.74v.81l-1.24.32v11.55l-1.3-.04-7.38-10.29-.16,9.12,3.4.28v.75h-5.63v-.59l1.09-.65.3-10.31-.51-.73v-.26Z"/>
      <path class="cls-1" d="M107.42,20.95c1.18,0,2.01.41,2.53.89l.2-.77h.99l.22,3.2-1.09.04c-.18-1.07-.81-2.43-2.7-2.43-1.34,0-2.39.79-2.39,1.91s.59,1.66,1.9,2.27l1.54.73c2.15,1.03,3.18,1.99,3.18,3.77,0,2.05-1.38,3.42-3.81,3.42-1.42,0-2.37-.61-2.98-1.32l-.08,1.11h-.95l-.75-4.66,1.22-.1c.36,1.92,1.28,4.05,3.51,4.05,1.34,0,2.13-.85,2.13-1.97s-.45-1.76-2.33-2.61l-1.62-.73c-1.56-.69-2.55-1.86-2.55-3.44,0-1.95,1.72-3.36,3.83-3.36Z"/>
      <path class="cls-1" d="M117.97,21.2v.79l-1.26.1v10.84l1.26.02v.75h-4.38v-.59l1.18-.39v-10.6l-1.17-.1v-.81h4.36Z"/>
      <path class="cls-1" d="M125.4,20.95c1.78,0,2.78.71,3.28,1.3l-.02-1.17h1.09l.39,3.95-1.09.04c-.3-1.78-1.28-3.28-3.34-3.28-1.88,0-3.71,1.58-3.71,5.53,0,3.5,1.5,5.67,3.97,5.67,1.48,0,2.43-.65,2.61-.79v-3.69l-1.88-.12v-.87h4.17v.85l-.69.1v4.13c-.69.45-2.39,1.34-4.72,1.34-3.38,0-5.51-2.51-5.51-6.44,0-4.62,2.59-6.56,5.45-6.56Z"/>
      <path class="cls-1" d="M144.55,21.2v.79l-1.24.1v10.84l1.24.02v.75h-5.02v-.63l1.84-.36v-5.13h-5.41v5.35l2.01.02v.75h-5.13v-.59l1.18-.39v-10.6l-1.16-.1v-.81h5.07v.79l-1.97.1v4.6h5.41v-4.6l-1.82-.1v-.79h5Z"/>
      <path class="cls-1" d="M156.88,21.2c0,.12.22,4.11.22,4.11h-1.3l-.73-3.4h-2.29v11.02l1.44.02v.75h-4.7v-.57l1.36-.41v-10.8h-2.29l-.73,3.4h-1.32s.24-3.99.24-4.11h10.11Z"/>
    </g>
    <rect class="cls-1" x="82.86" y="54.72" width="107.97" height=".44"/>
  </g>
  <g>
    <path class="cls-2" d="M75.29,25.65c-.62-16.4-17.36-15.99-17.36-15.99,0,0,.01,54.43.02,54.28.79,16.12,17.37,15.72,17.37,15.72V26.57c0,.57-.02,1.12-.05,1.66.03-.54.05-1.1.05-1.66,0-.62-.02-.68-.03-.93Z"/>
    <path class="cls-3" d="M75.32,79.66V26.57c0,17.95-16.74,24.11-17.36,37.1.62,16.4,17.36,15.99,17.36,15.99Z"/>
  </g>
</svg>