<?xml version="1.0" encoding="UTF-8"?>
<svg id="Layer_1" data-name="Layer 1" xmlns="http://www.w3.org/2000/svg" xmlns:xlink="http://www.w3.org/1999/xlink" viewBox="0 0 250 90">
  <defs>
    <style>
      .cls-1 {
        fill: #1b1b1b;
      }

      .cls-1, .cls-2, .cls-3, .cls-4, .cls-5, .cls-6 {
        stroke-width: 0px;
      }

      .cls-2 {
        filter: url(#drop-shadow-1);
      }

      .cls-2, .cls-5 {
        fill: #fff;
      }

      .cls-3 {
        fill: #9e9e9e;
      }

      .cls-4 {
        fill: none;
      }

      .cls-7 {
        clip-path: url(#clippath);
      }

      .cls-6 {
        fill: #f1f1f1;
      }
    </style>
    <clipPath id="clippath">
      <path class="cls-4" d="M78.29,30.49l-4.75-2.62c-4.2.86-9.52,3.48-13.8,11.39h-2.19c-6.27-11.59-14.77-11.81-18.72-11.81,0,13.54,9.03,16.03,10.03,17.04,0,2.63-.38,5.27-1.35,7.71-.48,1.21-.5,2.41-.5,4.2,0,8.75,7.87,14.84,10.91,14.84v-4.95c-2.23,0-3.72-1.94-3.9-3.1,2.06,2.15,4.62,2.06,4.62,2.06,0,0,2.56.08,4.62-2.06-.19,1.16-1.67,3.1-3.9,3.1v4.95c3.03,0,10.91-6.09,10.91-14.84,0-1.79-.02-2.99-.5-4.2-.97-2.44-1.35-5.08-1.35-7.71.92-.92,8.63-3.11,9.86-13.99Z"/>
    </clipPath>
    <filter id="drop-shadow-1" filterUnits="userSpaceOnUse">
      <feOffset dx="0" dy="0"/>
      <feGaussianBlur result="blur" stdDeviation="2"/>
      <feFlood flood-color="#000" flood-opacity=".5"/>
      <feComposite in2="blur" operator="in"/>
      <feComposite in="SourceGraphic"/>
    </filter>
  </defs>
  <g>
    <path class="cls-1" d="M100.75,53.33l1.11-2.56c1.68,1.11,2.79,1.59,4.7,1.59.68,0,3.07-.23,3.07-1.59,0-1.11-2.19-1.22-2.93-1.22-2.22,0-6.35-.31-6.35-4.1s3.81-4.7,6.32-4.7,4.24.77,5.66,2.31l-1.19,2.16c-1.34-1.02-2.73-1.62-4.47-1.62-.97,0-3.27-.03-3.27,1.68,0,1.19,2.62,1.28,3.3,1.28,2.22,0,6.15.6,6.15,4.18s-4.01,4.44-6.29,4.44-3.79-.48-5.81-1.85Z"/>
    <path class="cls-1" d="M127.21,41.04h3.24v13.94h-3.24v-13.94Z"/>
    <path class="cls-1" d="M140.47,55.21c-3.47,0-7.03-2.42-7.03-7.11s3.56-7.31,7.03-7.31c2.28,0,4.24.65,5.72,1.94l-1.08,2.65c-.91-.65-2.56-1.42-4.64-1.42s-3.73,1.85-3.73,4.07,1.57,3.76,3.73,3.76c1.71,0,3.22-.34,4.47-1.17l1.11,2.7c-1.22,1.08-3.33,1.91-5.58,1.91Z"/>
    <path class="cls-1" d="M148.78,33.13h3.24v12.78h.06l4.67-4.87h3.44v.28l-4.52,4.72,4.7,8.65v.28h-3.39l-3.73-6.6-1.22,1.2v5.41h-3.24v-21.85Z"/>
    <path class="cls-1" d="M176.42,45.96c.2,1,.2,2.16.14,3.24h-9.9c-.03,1.31,1.74,3.02,3.76,3.02,1.71,0,3.07-.2,4.3-1.02l1.22,2.05c-1,1.17-3.44,1.94-5.63,1.94-3.39,0-7.03-2.42-7.03-7.14s3.53-7.26,6.86-7.26c3.87,0,5.72,2.25,6.29,5.18ZM170.13,43.54c-1.62,0-2.9,1.17-3.33,3.13h6.66c0-1.02-.28-3.13-3.33-3.13Z"/>
    <path class="cls-1" d="M187.23,44.08c-1.22,0-2.42,1.2-3.16,2.19v8.71h-3.24v-13.94h3.24v1.68c.85-1,2.19-1.94,3.42-1.94.88,0,1.91.26,2.85.83l-1.05,3.3c-.48-.57-1.2-.83-2.05-.83Z"/>
    <path class="cls-1" d="M200.21,55.21c-3.67,0-7.26-2.42-7.26-7.11s3.58-7.28,7.26-7.28,7.23,2.62,7.23,7.28-3.53,7.11-7.23,7.11ZM200.21,44.02c-2.33,0-3.93,1.74-3.93,3.98s1.59,3.9,3.93,3.9,3.93-1.65,3.93-3.9-1.54-3.98-3.93-3.98Z"/>
    <path class="cls-1" d="M217.11,55.21c-3.67,0-7.26-2.42-7.26-7.11s3.58-7.28,7.26-7.28,7.23,2.62,7.23,7.28-3.53,7.11-7.23,7.11ZM217.11,44.02c-2.33,0-3.93,1.74-3.93,3.98s1.59,3.9,3.93,3.9,3.93-1.65,3.93-3.9-1.54-3.98-3.93-3.98Z"/>
    <path class="cls-3" d="M128.81,39.16c-.97,0-1.88-.91-1.88-2.11s.91-2.11,1.88-2.11c1.05,0,1.91.91,1.91,2.11s-.85,2.11-1.91,2.11Z"/>
    <path class="cls-1" d="M120.41,37.31v3.48h2.49v2.69h-2.49v7.23c0,.55.11.94.34,1.18s.53.35.92.35c.26,0,.49-.01.69-.03.2-.02.42-.06.66-.11l.33,2.77c-.43.13-.85.23-1.27.29-.42.07-.87.1-1.36.1-1.32,0-2.34-.36-3.05-1.09-.71-.73-1.07-1.88-1.07-3.45v-7.24h-2.09v-2.69h2.09v-3.48h3.82Z"/>
  </g>
  <g>
    <path class="cls-6" d="M58.65,82.43c-2.45,0-4.88-.65-7-1.88l-19.99-11.54c-4.32-2.49-7-7.14-7-12.12v-23.09c0-4.98,2.68-9.63,7-12.12l19.99-11.54c2.12-1.23,4.55-1.88,7-1.88s4.88.65,7,1.88l19.99,11.54c4.32,2.49,7,7.14,7,12.12v23.09c0,4.99-2.68,9.63-7,12.12l-19.99,11.54c-2.12,1.23-4.55,1.88-7,1.88Z"/>
    <path class="cls-3" d="M50.73,15.28l-17.07,9.86c-3.09,1.79-5,5.09-5,8.66v23.09c0,3.57,1.91,6.87,5,8.66l19.99,11.54c3.09,1.79,6.91,1.79,10,0l19.99-11.54c3.09-1.79,5-5.09,5-8.66v-20.69l-25.25-8.17-12.67-12.74h0Z"/>
    <path class="cls-5" d="M78.29,30.49l-4.75-2.62c-4.2.86-9.52,3.48-13.8,11.39h-2.19c-6.27-11.59-14.77-11.81-18.72-11.81,0,13.54,9.03,16.03,10.03,17.04,0,2.63-.38,5.27-1.35,7.71-.48,1.21-.5,2.41-.5,4.2,0,8.75,7.87,14.84,10.91,14.84v-4.95c-2.23,0-3.72-1.94-3.9-3.1,2.06,2.15,4.62,2.06,4.62,2.06,0,0,2.56.08,4.62-2.06-.19,1.16-1.67,3.1-3.9,3.1v4.95c3.03,0,10.91-6.09,10.91-14.84,0-1.79-.02-2.99-.5-4.2-.97-2.44-1.35-5.08-1.35-7.71.92-.92,8.63-3.11,9.86-13.99Z"/>
    <g class="cls-7">
      <path class="cls-2" d="M50.73,15.28l-.04,4.33c.1,3.57,2.1,6.82,5.24,8.52l20.31,10.98c.22.12.45.23.68.34,3.79,1.69,8.25.54,11.05-2.51l.67-.73L50.73,15.28Z"/>
    </g>
    <path class="cls-5" d="M50.73,15.28l-.04,4.33c.1,3.57,2.1,6.82,5.24,8.52l20.31,10.98c.22.12.45.23.68.34,3.79,1.69,8.25.54,11.05-2.51l.67-.73L50.73,15.28Z"/>
  </g>
</svg>