<?xml version="1.0" encoding="UTF-8" standalone="no"?>
<!DOCTYPE svg PUBLIC "-//W3C//DTD SVG 1.1//EN" "http://www.w3.org/Graphics/SVG/1.1/DTD/svg11.dtd">
<svg width="100%" height="100%" viewBox="0 0 280 90" version="1.1" xmlns="http://www.w3.org/2000/svg" xmlns:xlink="http://www.w3.org/1999/xlink" xml:space="preserve" xmlns:serif="http://www.serif.com/" style="fill-rule:evenodd;clip-rule:evenodd;stroke-linejoin:round;stroke-miterlimit:2;">
    <g transform="matrix(1,0,0,1,-2310,0)">
        <g id="Artboard1" transform="matrix(1,0,0,1,2310,0)">
            <rect x="0" y="0" width="280" height="90" style="fill:none;"/>
            <g id="Layer-1" serif:id="Layer 1" transform="matrix(1,0,0,1,97.8407,7.49965)">
                <g transform="matrix(1.0756,0,0,1.0756,38.9791,61.1326)">
                    <path d="M0,-58.97C0.986,-59.068 2.924,-59.117 5.762,-59.117C8.031,-59.117 10.155,-59.085 10.853,-59.075C10.968,-59.073 11.038,-59.072 11.058,-59.072C12.324,-59.064 23.381,-58.036 30.537,-55.758C30.538,-55.757 30.54,-55.757 30.541,-55.756C32.945,-54.956 34.785,-53.89 35.669,-53.377C35.771,-53.318 35.86,-53.266 35.936,-53.224C36.883,-52.687 37.807,-52.084 38.763,-51.382C39.993,-50.478 41.142,-49.369 42.276,-47.992C42.832,-47.317 43.324,-46.525 43.78,-45.571C44.216,-44.66 44.71,-43.627 44.757,-42.445C44.777,-41.92 44.586,-41.549 44.174,-41.312C44.052,-41.243 43.929,-41.176 43.81,-41.111C43.528,-40.959 43.262,-40.815 43.026,-40.638C41.965,-39.843 41.058,-39.071 40.255,-38.279C40.055,-38.082 39.835,-37.977 39.618,-37.977C39.333,-37.977 39.001,-38.164 38.922,-38.687C38.825,-39.323 38.56,-39.9 38.28,-40.51C38.227,-40.626 38.174,-40.741 38.122,-40.857C37.728,-41.739 37.172,-42.628 36.422,-43.573C35.395,-44.87 34.079,-46.06 32.281,-47.318C31.145,-48.113 29.841,-48.762 28.794,-49.284C28.112,-49.624 24.604,-51.005 24.102,-51.131C23.979,-51.162 23.723,-51.238 23.369,-51.344C22.266,-51.672 20.213,-52.284 18.741,-52.551C18.737,-52.552 18.733,-52.552 18.729,-52.553C15.573,-53.236 11.47,-53.687 8.8,-53.832C7.206,-53.846 5.528,-53.853 3.81,-53.853C2.846,-53.853 1.841,-53.851 0.823,-53.846C-0.204,-53.842 -4.978,-53.545 -6.375,-53.296C-7.922,-53.035 -10.929,-52.471 -11.583,-52.31C-12.186,-52.162 -14.765,-51.415 -15.479,-51.135C-15.483,-51.133 -15.488,-51.131 -15.493,-51.13C-17.203,-50.54 -18.219,-49.916 -18.598,-49.225C-18.768,-48.762 -18.756,-48.673 -18.526,-48.513C-18.517,-48.507 -18.509,-48.5 -18.501,-48.493C-17.985,-48.06 -16.828,-47.768 -15.971,-47.68C-14.866,-47.567 -13.712,-47.509 -12.542,-47.509C-12.024,-47.509 -11.492,-47.52 -10.96,-47.543C-8.488,-47.645 2.099,-48.342 3.21,-48.513C3.216,-48.514 3.221,-48.515 3.227,-48.516C4.108,-48.61 5.128,-48.658 6.257,-48.658C7.631,-48.658 8.778,-48.587 9.394,-48.52L9.4,-48.52C10.786,-48.349 12.47,-47.461 12.984,-47.033C14.079,-46.121 15.046,-44.976 15.94,-43.533C16.461,-42.693 17.051,-41.74 17.424,-40.678C17.605,-40.163 17.808,-39.737 18.045,-39.376C18.831,-38.179 19.768,-37.106 20.935,-35.863C21.381,-35.387 21.846,-34.91 22.294,-34.45C23.284,-33.434 24.307,-32.384 25.224,-31.257C25.808,-30.539 26.182,-29.791 26.368,-28.972L26.371,-28.957C26.643,-27.479 26.582,-26.125 26.184,-24.82C25.863,-23.767 25.413,-22.799 24.807,-21.861C24.796,-21.844 24.786,-21.826 24.775,-21.808C24.702,-21.682 24.548,-21.419 24.212,-21.419C24.168,-21.419 24.122,-21.424 24.076,-21.434C23.844,-21.484 23.73,-21.68 23.736,-22.017C23.739,-22.169 23.759,-22.365 23.785,-22.612C23.843,-23.176 23.926,-23.978 23.849,-24.81C23.767,-24.727 23.686,-24.642 23.625,-24.578C23.391,-24.332 23.241,-24.178 23.123,-24.097C22.284,-23.526 21.36,-22.945 20.294,-22.564C20.093,-22.492 19.89,-22.426 19.692,-22.361C19.539,-22.311 19.381,-22.26 19.227,-22.207C18.672,-22.015 17.464,-21.761 17.021,-21.671C16.993,-21.613 16.959,-21.537 16.927,-21.447C16.823,-21.158 16.756,-20.858 16.686,-20.541C16.613,-20.215 16.538,-19.877 16.418,-19.542C16.146,-18.781 15.876,-18.128 15.594,-17.543C15.211,-16.753 14.715,-15.925 14.032,-14.939C14.009,-14.906 13.987,-14.873 13.964,-14.84C13.784,-14.576 13.579,-14.277 13.27,-14.055C13.177,-13.988 13.031,-13.899 12.846,-13.899C12.707,-13.899 12.573,-13.951 12.46,-14.049C12.316,-14.174 12.291,-14.276 12.292,-15.273C12.294,-15.807 12.306,-16.477 12.317,-17.069C12.328,-17.644 12.34,-18.295 12.33,-18.397C12.292,-18.754 12.282,-19.337 12.271,-19.901C12.263,-20.36 12.251,-21.011 12.217,-21.324C10.915,-21.493 5.582,-22.417 4.87,-22.555C3.804,-22.762 0.312,-23.244 -0.249,-23.261C-0.651,-23.274 -1.126,-23.291 -1.599,-23.323C-1.771,-23.335 -1.955,-23.34 -2.163,-23.34C-2.406,-23.34 -2.655,-23.332 -2.899,-23.324C-2.224,-22.552 -1.703,-21.679 -1.197,-20.833L-1.083,-20.642C-0.359,-19.433 0.227,-18.1 0.707,-16.568C0.847,-16.121 0.968,-15.663 1.085,-15.22C1.17,-14.898 1.258,-14.566 1.352,-14.244C1.69,-13.081 2.107,-11.74 2.785,-10.531C2.859,-10.398 2.91,-10.252 2.932,-10.107C2.98,-9.788 2.814,-9.525 2.519,-9.451C2.476,-9.441 2.432,-9.435 2.389,-9.435C2.124,-9.435 1.979,-9.631 1.917,-9.714C1.821,-9.843 1.722,-9.974 1.625,-10.1C1.488,-10.28 1.346,-10.466 1.21,-10.654C0.592,-11.511 0.06,-12.465 -0.417,-13.572C-0.452,-13.654 -0.487,-13.735 -0.522,-13.817C-0.738,-14.314 -0.96,-14.828 -1.129,-15.359C-1.444,-16.348 -1.794,-17.171 -2.199,-17.874C-2.616,-18.599 -3.435,-19.751 -4.286,-20.81C-5.294,-22.065 -5.839,-22.564 -6.034,-22.686C-6.807,-22.393 -8.101,-22.068 -9.543,-21.993C-9.889,-21.946 -10.263,-21.925 -10.752,-21.925C-10.946,-21.925 -11.142,-21.928 -11.331,-21.931C-11.462,-21.933 -11.592,-21.935 -11.722,-21.936C-12.059,-21.939 -13.186,-22.059 -14.491,-22.198C-15.498,-22.305 -16.66,-22.428 -17.549,-22.506C-17.447,-22.434 -17.348,-22.361 -17.25,-22.288C-17.123,-22.195 -17.003,-22.107 -16.879,-22.02C-16.295,-21.61 -15.724,-21.131 -15.134,-20.557C-14.299,-19.743 -13.624,-19.034 -13.047,-18.218C-12.668,-17.681 -12.324,-17.116 -11.991,-16.569C-11.934,-16.476 -11.878,-16.383 -11.821,-16.29C-11.308,-15.452 -10.846,-14.516 -10.366,-13.342C-10.027,-12.515 -9.69,-11.709 -9.278,-10.95C-8.285,-9.119 -7.162,-7.599 -5.845,-6.302C-4.883,-5.356 -3.804,-4.408 -2.431,-3.886C-2.112,-3.765 -1.802,-3.704 -1.51,-3.704C-1.256,-3.704 -1.015,-3.75 -0.791,-3.843C0.454,-4.354 1.441,-5.325 2.227,-6.81C2.257,-6.866 2.306,-7.011 2.35,-7.14C2.521,-7.641 2.669,-8.074 3.053,-8.074C3.065,-8.074 3.078,-8.073 3.091,-8.072C3.28,-8.055 3.593,-7.942 3.576,-7.383L3.576,-7.376C3.556,-6.741 3.441,-5.42 3.372,-4.631C3.359,-4.482 3.346,-4.343 3.337,-4.232C3.353,-4.238 3.37,-4.244 3.387,-4.251C4.284,-4.581 6.382,-5.352 7.81,-6.966C8.309,-7.648 8.839,-8.479 9.007,-9.479C9.03,-9.613 9.099,-10.021 9.531,-10.079C9.558,-10.082 9.586,-10.084 9.612,-10.084C9.93,-10.084 10.093,-9.849 10.18,-9.723L10.188,-9.712C10.383,-9.434 10.388,-9.133 10.392,-8.891C10.415,-7.63 10.227,-6.409 9.818,-5.157C9.486,-4.14 8.914,-3.292 8.071,-2.564C7.46,-1.901 6.456,-1.248 5.242,-0.725C4.146,-0.253 2.979,0.065 2.12,0.126C1.925,0.14 1.662,0.147 1.339,0.147C-0.006,0.147 -2.426,0.015 -2.907,-0.085C-4.677,-0.453 -6.075,-1.505 -7.095,-2.38C-8.779,-3.824 -10.261,-5.41 -11.5,-7.094C-12.005,-7.779 -12.49,-8.491 -12.959,-9.18C-13.229,-9.577 -13.509,-9.987 -13.788,-10.386L-14.043,-10.751C-14.766,-11.786 -15.513,-12.857 -16.317,-13.859C-17.437,-15.255 -18.934,-16.255 -21.17,-17.102C-22.055,-17.437 -22.993,-17.689 -23.901,-17.933C-24.427,-18.074 -24.971,-18.22 -25.503,-18.381C-27.232,-18.906 -28.725,-19.475 -30.069,-20.12C-31.83,-20.966 -33.432,-22.292 -35.111,-24.294C-35.975,-25.324 -36.718,-26.571 -37.448,-28.218C-37.598,-28.556 -38.179,-30.253 -38.323,-30.776C-38.537,-31.549 -38.78,-32.424 -38.834,-33.331C-38.969,-35.727 -37.829,-41.401 -37.524,-42.308C-37.398,-42.685 -37.146,-42.774 -36.956,-42.783C-36.945,-42.784 -36.933,-42.784 -36.922,-42.784C-36.626,-42.784 -36.389,-42.595 -36.304,-42.291C-36.274,-42.186 -36.241,-42.046 -36.249,-41.898C-36.289,-41.067 -36.03,-40.3 -35.629,-39.403C-35.214,-38.477 -34.479,-37.688 -33.316,-36.919C-32.709,-36.517 -31.971,-36.181 -30.994,-35.861C-30.549,-35.716 -29.698,-35.504 -28.464,-35.232C-28.396,-35.217 -28.353,-35.208 -28.341,-35.205C-27.168,-34.921 -24.64,-34.673 -23.822,-34.657C-23.181,-34.644 -22.654,-34.639 -22.163,-34.639C-21.674,-34.639 -21.228,-34.644 -20.798,-34.656C-19.264,-34.696 -16.913,-34.887 -14.639,-35.071L-13.972,-35.125C-11.214,-35.34 -7.155,-36.156 -5.537,-36.497L-5.475,-36.51C-4.509,-36.724 -2.32,-36.886 -0.387,-36.886C0.795,-36.886 2.409,-36.828 3.415,-36.554C4.18,-36.44 4.697,-36.352 5.352,-36.131C6.039,-35.898 6.695,-35.61 7.362,-35.311C8.466,-34.816 9.531,-34.224 10.561,-33.652C10.684,-33.583 10.808,-33.515 10.931,-33.447C11.177,-33.311 11.417,-33.162 11.649,-33.019C11.846,-32.898 12.05,-32.772 12.252,-32.658C12.542,-32.493 12.841,-32.329 13.13,-32.171C13.514,-31.962 13.91,-31.745 14.296,-31.519C14.753,-31.252 15.245,-30.986 15.8,-30.706C15.885,-30.663 15.97,-30.619 16.055,-30.576C16.802,-30.196 17.507,-29.837 18.278,-29.634C18.46,-29.585 18.64,-29.53 18.814,-29.476C19.265,-29.336 19.691,-29.205 20.122,-29.205C20.395,-29.205 20.648,-29.258 20.898,-29.369C21.235,-29.519 21.474,-29.743 21.57,-30C21.653,-30.224 21.632,-30.472 21.506,-30.738C21.185,-31.42 20.725,-32.061 20.101,-32.696C18.8,-34.021 17.587,-35.174 16.393,-36.221C15.061,-37.39 14.163,-38.51 13.568,-39.744C13.021,-40.88 12.387,-42.065 11.462,-43.034C11.409,-43.089 11.357,-43.144 11.305,-43.199C10.779,-43.754 10.283,-44.278 9.593,-44.576C9.568,-44.587 9.535,-44.602 9.495,-44.62C9.097,-44.802 7.886,-45.354 6.095,-45.354C5.862,-45.354 5.624,-45.345 5.388,-45.326C5.379,-45.326 5.37,-45.325 5.36,-45.325C5.342,-45.325 5.324,-45.327 5.306,-45.329C5.305,-45.329 5.275,-45.333 5.173,-45.333C4.17,-45.333 -0.31,-45.022 -3.91,-44.773C-6.592,-44.587 -8.71,-44.44 -9.079,-44.44L-9.245,-44.44C-9.703,-44.44 -10.17,-44.437 -10.621,-44.434C-11.074,-44.431 -11.542,-44.428 -12.003,-44.428C-13.831,-44.428 -15.792,-44.471 -17.747,-44.782C-17.751,-44.783 -17.755,-44.784 -17.759,-44.784C-18.533,-44.934 -19.484,-45.191 -20.588,-45.55C-21.16,-45.736 -21.688,-46.04 -22.199,-46.334L-22.244,-46.359C-23.618,-47.15 -24.129,-48.13 -23.901,-49.538C-23.742,-50.525 -23.154,-51.373 -22.102,-52.131C-20.033,-53.622 -16.115,-55.289 -16.076,-55.306C-15.271,-55.647 -10.247,-57.304 -9.253,-57.472C-9.168,-57.486 -8.953,-57.531 -8.655,-57.593C-7.187,-57.897 -3.29,-58.704 0,-58.97ZM-8.969,-30.952C-8.375,-30.784 -7.839,-30.558 -7.287,-30.38C-6.8,-30.224 -6.48,-29.918 -6.328,-29.47C-5.975,-28.431 -5.168,-27.947 -4.218,-27.571C-2.61,-26.936 -1.103,-27.197 0.368,-27.981C0.867,-28.247 1.415,-28.417 1.86,-28.787C2.169,-29.044 2.167,-29.166 1.809,-29.322C1.55,-29.436 1.292,-29.568 1.02,-29.637C0.235,-29.834 -0.413,-30.269 -0.972,-30.82C-1.917,-31.749 -3.071,-31.757 -4.264,-31.659C-4.412,-31.647 -4.56,-31.604 -4.706,-31.612C-5.442,-31.654 -6.152,-31.526 -6.864,-31.351C-7.557,-31.181 -8.267,-31.082 -8.969,-30.952Z" style="fill:rgb(159,159,159);"/>
                </g>
                <g transform="matrix(1.0756,0,0,1.0756,-3.18737,-2.83841)">
                    <g transform="matrix(1,0,0,1,10.8301,57.5533)">
                        <path d="M0,16.735C-0.222,16.735 -0.548,16.649 -0.838,16.237C-0.96,16.065 -1.058,15.887 -1.153,15.715L-1.194,15.641C-3.039,12.321 -4.748,9.242 -6.42,6.229L-6.822,5.506C-7.278,4.685 -7.751,3.836 -8.206,2.994C-8.48,2.488 -8.554,2.048 -8.435,1.649C-8.315,1.251 -8.012,0.927 -7.507,0.657C-7.222,0.504 -6.965,0.371 -6.72,0.248C-6.384,0.081 -6.087,0 -5.809,0C-5.254,0 -4.811,0.31 -4.453,0.949C-4.151,1.487 -3.854,2.037 -3.567,2.57C-3.449,2.788 -3.331,3.007 -3.213,3.226L-2.304,4.899C-1.597,6.203 -0.89,7.506 -0.181,8.808L-0.161,8.847C-0.119,8.923 -0.042,9.066 -0.003,9.086C-0.003,9.086 0.003,9.087 0.012,9.087C0.077,9.086 0.13,9.025 0.261,8.805C0.286,8.763 0.31,8.72 0.328,8.687L1.206,7.074C1.732,6.109 2.258,5.143 2.785,4.177C2.938,3.896 3.091,3.616 3.244,3.335C3.684,2.526 4.139,1.69 4.592,0.87C4.91,0.296 5.337,0.004 5.861,0.004C6.121,0.004 6.389,0.077 6.682,0.228C7.005,0.394 7.35,0.583 7.735,0.807C8.205,1.08 8.474,1.523 8.491,2.054L8.491,2.08C8.481,2.475 8.337,2.766 8.191,3.031C5.824,7.301 3.458,11.571 1.09,15.84L1.085,15.849C1.013,15.979 0.939,16.113 0.842,16.246C0.544,16.65 0.22,16.735 0,16.735Z" style="fill:rgb(27,27,27);"/>
                    </g>
                    <g transform="matrix(1,0,0,1,5.0214,73.8412)">
                        <path d="M0,-15.841C0.388,-15.841 0.693,-15.608 0.966,-15.12C1.387,-14.368 1.792,-13.606 2.203,-12.849C3.214,-10.988 4.223,-9.126 5.235,-7.266C5.366,-7.023 5.495,-6.753 5.821,-6.753C5.825,-6.753 5.83,-6.754 5.834,-6.754C6.155,-6.761 6.309,-7.011 6.454,-7.255C6.48,-7.298 6.505,-7.343 6.529,-7.387C7.348,-8.89 8.167,-10.394 8.986,-11.897C9.587,-12.999 10.185,-14.103 10.792,-15.201C11.028,-15.627 11.316,-15.836 11.669,-15.836C11.856,-15.836 12.061,-15.778 12.287,-15.662C12.636,-15.483 12.98,-15.291 13.32,-15.094C13.664,-14.894 13.841,-14.586 13.853,-14.219C13.845,-13.923 13.732,-13.697 13.608,-13.474C11.242,-9.204 8.875,-4.934 6.508,-0.664C6.44,-0.542 6.373,-0.419 6.29,-0.307C6.139,-0.103 5.973,-0 5.809,-0C5.644,-0 5.481,-0.103 5.336,-0.309C5.212,-0.484 5.11,-0.676 5.006,-0.864C3.263,-4.001 1.521,-7.139 -0.22,-10.276C-0.817,-11.352 -1.419,-12.425 -2.004,-13.507C-2.43,-14.295 -2.265,-14.821 -1.488,-15.237C-1.231,-15.374 -0.972,-15.509 -0.711,-15.639C-0.444,-15.773 -0.21,-15.841 0,-15.841M0,-16.735C-0.349,-16.735 -0.712,-16.639 -1.111,-16.44C-1.359,-16.316 -1.621,-16.18 -1.91,-16.025C-2.516,-15.701 -2.901,-15.278 -3.054,-14.767C-3.208,-14.256 -3.119,-13.689 -2.791,-13.081C-2.334,-12.236 -1.86,-11.386 -1.403,-10.563C-1.269,-10.323 -1.136,-10.083 -1.002,-9.842C0.661,-6.844 2.42,-3.678 4.224,-0.43C4.237,-0.406 4.251,-0.381 4.264,-0.357C4.36,-0.183 4.469,0.014 4.605,0.207C5.026,0.805 5.54,0.894 5.809,0.894C6.073,0.894 6.58,0.807 7.01,0.223C7.125,0.068 7.21,-0.086 7.285,-0.222L7.29,-0.231C9.421,-4.074 11.677,-8.144 14.391,-13.04C14.51,-13.257 14.733,-13.659 14.747,-14.196L14.747,-14.248C14.725,-14.929 14.368,-15.519 13.769,-15.867C13.376,-16.095 13.025,-16.289 12.695,-16.458C12.343,-16.639 11.997,-16.731 11.669,-16.731C11.189,-16.731 10.511,-16.541 10.01,-15.634C9.555,-14.814 9.1,-13.977 8.66,-13.168C8.507,-12.887 8.354,-12.606 8.201,-12.325C7.677,-11.364 7.153,-10.402 6.629,-9.441C6.369,-8.963 6.109,-8.486 5.849,-8.008C5.197,-9.208 4.538,-10.421 3.899,-11.598C3.596,-12.157 3.293,-12.716 2.989,-13.275C2.871,-13.493 2.753,-13.711 2.636,-13.929C2.348,-14.463 2.05,-15.016 1.746,-15.557C1.308,-16.339 0.721,-16.735 0,-16.735" style="fill:rgb(27,27,27);"/>
                    </g>
                </g>
                <g transform="matrix(1.0756,0,0,1.0756,23.4505,63.6988)">
                    <path d="M0,12.692C-0.772,12.692 -1.286,12.484 -1.287,11.471C-1.288,10.259 -1.288,9.047 -1.287,7.834L-1.287,4.909C-1.288,3.685 -1.288,2.461 -1.287,1.237C-1.286,0.36 -0.928,0.002 -0.051,0.002C1.091,0.001 2.232,0.001 3.374,0.001C4.515,0.001 5.657,0.001 6.798,0.002C7.127,0.002 7.498,0.037 7.759,0.299C8.019,0.56 8.055,0.932 8.055,1.261C8.056,3.424 8.056,5.652 8.055,8.071C8.055,8.978 7.683,9.347 6.774,9.348L3.701,9.348C3.001,9.348 2.3,9.348 1.6,9.349C1.412,9.35 1.338,9.37 1.313,9.379C1.304,9.404 1.283,9.481 1.282,9.677C1.281,9.972 1.281,10.267 1.281,10.562C1.282,10.863 1.282,11.164 1.281,11.465C1.28,11.795 1.242,12.166 0.974,12.418C0.717,12.659 0.354,12.692 0.001,12.692L0,12.692ZM1.313,6.74C1.324,6.746 1.378,6.772 1.536,6.772C2.162,6.775 2.787,6.777 3.393,6.777C4.019,6.777 4.646,6.775 5.255,6.772C5.408,6.771 5.453,6.742 5.455,6.741C5.454,6.741 5.483,6.696 5.484,6.542C5.491,5.294 5.491,4.043 5.484,2.824C5.483,2.66 5.453,2.612 5.452,2.61C5.451,2.61 5.403,2.579 5.228,2.577C5.011,2.574 4.778,2.573 4.494,2.573C4.307,2.573 4.121,2.574 3.934,2.574C3.746,2.575 3.558,2.575 3.371,2.575C3.186,2.575 3.002,2.575 2.818,2.574C2.634,2.574 2.451,2.573 2.267,2.573C1.991,2.573 1.764,2.574 1.552,2.577C1.385,2.579 1.327,2.604 1.315,2.611C1.309,2.623 1.284,2.681 1.283,2.848C1.279,4.115 1.279,5.353 1.283,6.529C1.284,6.678 1.308,6.73 1.313,6.74M-3.82,9.8C-4.468,9.799 -5.159,9.712 -5.163,8.687C-5.165,8.117 -5.164,7.539 -5.164,6.979L-5.164,6.251C-5.164,6.053 -5.163,5.855 -5.163,5.657C-5.162,5.229 -5.161,4.786 -5.165,4.352C-5.165,4.253 -5.167,4.162 -5.169,4.077C-5.179,3.609 -5.187,3.239 -4.918,2.963C-4.816,2.859 -4.693,2.789 -4.548,2.743C-4.666,2.71 -4.766,2.655 -4.856,2.568C-5.098,2.333 -5.098,2.029 -5.098,1.524C-5.098,0.986 -5.098,0.661 -4.863,0.414C-4.615,0.153 -4.274,0.153 -3.757,0.153L-3.707,0.153C-3.178,0.154 -2.859,0.154 -2.618,0.389C-2.372,0.629 -2.372,0.944 -2.372,1.466C-2.372,1.997 -2.372,2.318 -2.62,2.56C-2.712,2.65 -2.815,2.706 -2.937,2.74C-2.596,2.855 -2.303,3.136 -2.302,3.761C-2.3,5.615 -2.3,7.233 -2.302,8.708C-2.303,8.905 -2.304,9.367 -2.712,9.616C-2.964,9.77 -3.303,9.8 -3.804,9.8L-3.82,9.8ZM32.9,9.374C32.666,9.374 32.423,9.326 32.179,9.233C31.589,9.008 31.591,8.415 31.592,8.13L31.592,8.096C31.594,6.319 31.595,4.581 31.591,2.849C31.591,2.679 31.564,2.622 31.558,2.611C31.548,2.605 31.491,2.578 31.322,2.577C31.142,2.575 30.945,2.574 30.705,2.574C30.564,2.574 30.422,2.574 30.281,2.575L29.854,2.575C29.685,2.575 29.515,2.575 29.346,2.574C28.307,2.566 28.167,1.914 28.168,1.277C28.169,0.374 28.515,0.004 29.363,0.002C29.831,0.001 30.298,0.001 30.766,0.001L33.88,0.001C34.204,0.001 34.528,0 34.853,0C35.459,0 35.952,0.001 36.403,0.004C37.09,0.007 37.483,0.39 37.509,1.081C37.511,1.112 37.511,1.143 37.51,1.174L37.51,1.208C37.513,1.598 37.493,2.002 37.22,2.277C36.949,2.551 36.553,2.574 36.17,2.575L34.535,2.575C34.313,2.576 34.225,2.595 34.194,2.606C34.182,2.638 34.162,2.729 34.162,2.961C34.161,4.798 34.16,6.455 34.163,8.132C34.163,8.401 34.163,8.901 33.696,9.166C33.453,9.304 33.185,9.374 32.9,9.374M55.953,9.345C54.709,9.343 53.474,9.343 52.324,9.343L49.029,9.343C48.715,9.343 48.36,9.309 48.103,9.056C47.84,8.799 47.806,8.429 47.805,8.135C47.804,7.303 47.804,6.457 47.804,5.639L47.805,4.672C47.805,4.329 47.805,3.987 47.804,3.644C47.804,2.821 47.803,1.97 47.806,1.132C47.809,0.417 48.2,0.007 48.877,0.005C50.173,0.002 51.471,0.001 52.457,0.001L55.384,0.002L56.108,0.002C56.624,0.002 56.874,0.24 56.993,0.44C57.247,0.869 57.28,1.376 57.092,1.949C56.885,2.576 56.266,2.576 56.002,2.576L55.923,2.576C55.009,2.575 54.095,2.574 53.181,2.574C52.345,2.574 51.509,2.575 50.674,2.576C50.499,2.576 50.428,2.596 50.404,2.605C50.395,2.629 50.375,2.702 50.374,2.884C50.372,3.994 50.373,5.122 50.373,6.214L50.374,6.383C50.374,6.619 50.395,6.709 50.406,6.74C50.438,6.752 50.532,6.774 50.782,6.774C51.618,6.775 52.452,6.775 53.287,6.775C54.189,6.775 55.092,6.775 55.994,6.774L56.008,6.774C56.241,6.774 56.726,6.774 56.992,7.212C57.251,7.64 57.283,8.15 57.086,8.726C56.875,9.345 56.244,9.345 55.975,9.345L55.953,9.345ZM15.24,9.344L14.234,9.344C13.899,9.343 13.202,9.343 13.202,9.343L11.173,9.344C10.696,9.344 10.218,9.343 9.74,9.343C8.917,9.342 8.533,8.965 8.532,8.158C8.53,5.948 8.53,3.606 8.532,1.197C8.533,0.382 8.914,0.003 9.731,0.002C10.884,0.001 12.036,0.001 13.189,0.001C14.344,0.001 15.499,0.001 16.655,0.002C17.484,0.003 17.871,0.391 17.873,1.225C17.875,2.143 17.874,3.076 17.874,3.978L17.874,4.649C17.873,5.015 17.85,5.428 17.572,5.703C17.295,5.977 16.897,5.999 16.513,6L13.912,6C13.08,6 12.248,6 11.415,5.999L11.368,5.999C11.321,5.999 11.202,5.999 11.152,6.013C11.043,6.221 11.042,6.471 11.15,6.758C11.205,6.775 11.339,6.775 11.393,6.775L11.453,6.775C12.379,6.775 13.304,6.774 14.229,6.774C15.054,6.774 15.879,6.775 16.704,6.776C17.732,6.777 17.872,7.414 17.874,8.036C17.875,8.643 17.743,9.339 16.703,9.342C16.216,9.344 15.728,9.344 15.24,9.344M11.137,2.611C11.137,2.611 11.104,2.658 11.101,2.84C11.098,2.972 11.095,3.121 11.103,3.26C11.112,3.416 11.155,3.417 11.24,3.418C11.899,3.424 12.579,3.428 13.26,3.428C13.875,3.428 14.51,3.425 15.147,3.419C15.251,3.419 15.29,3.418 15.303,3.232C15.312,3.096 15.308,2.95 15.304,2.824C15.298,2.653 15.264,2.611 15.264,2.61C15.263,2.61 15.223,2.58 15.065,2.577C14.848,2.574 14.614,2.573 14.329,2.573C14.143,2.573 13.957,2.574 13.77,2.574C13.583,2.575 13.396,2.575 13.208,2.575C13.023,2.575 12.837,2.575 12.651,2.574C12.462,2.574 12.273,2.573 12.085,2.573C11.801,2.573 11.568,2.574 11.351,2.577C11.183,2.579 11.138,2.61 11.137,2.611ZM40.637,9.344C40.131,9.344 39.625,9.343 39.119,9.342C38.419,9.34 37.998,8.956 37.993,8.314C37.982,7.065 37.982,5.744 37.992,4.389C37.997,3.778 38.378,3.391 39.01,3.353C39.062,3.35 39.117,3.349 39.184,3.349L39.286,3.349C39.317,3.35 39.348,3.35 39.379,3.35L42.144,3.35C42.922,3.35 43.699,3.35 44.476,3.349C44.643,3.348 44.708,3.327 44.726,3.319C44.735,3.3 44.758,3.234 44.76,3.057C44.761,2.998 44.761,2.938 44.76,2.878C44.758,2.695 44.734,2.629 44.726,2.611C44.708,2.603 44.638,2.577 44.441,2.575C44.34,2.574 44.238,2.574 44.136,2.574L43.892,2.574C43.81,2.575 43.729,2.575 43.647,2.575L39.272,2.575C38.913,2.574 38.546,2.539 38.286,2.285C38.024,2.028 37.987,1.664 37.986,1.309L37.986,1.261C37.986,1.211 37.985,1.159 37.987,1.105C38.008,0.385 38.397,0.004 39.113,0.003C40.294,0.001 41.488,0 42.661,0C43.835,0 45.023,0.001 46.19,0.003C46.922,0.004 47.326,0.412 47.327,1.15C47.331,3.464 47.331,5.832 47.327,8.189C47.326,8.941 46.922,9.34 46.159,9.342C45.668,9.344 45.177,9.344 44.686,9.344C44.341,9.344 42.632,9.343 42.632,9.343C42.3,9.343 41.967,9.343 41.635,9.344L40.637,9.344M42.718,6.775C42.894,6.775 43.07,6.775 43.245,6.776L43.77,6.776C44.06,6.776 44.297,6.775 44.515,6.773C44.735,6.77 44.751,6.754 44.759,6.532C44.763,6.407 44.767,6.243 44.756,6.086C44.746,5.931 44.711,5.931 44.62,5.93C43.888,5.925 43.237,5.923 42.631,5.923C41.936,5.923 41.298,5.926 40.68,5.932C40.614,5.933 40.591,5.946 40.59,5.946C40.59,5.946 40.564,5.981 40.557,6.096C40.552,6.164 40.553,6.24 40.554,6.319C40.555,6.348 40.555,6.378 40.555,6.407C40.556,6.638 40.583,6.717 40.592,6.738C40.614,6.748 40.691,6.774 40.917,6.774C41.142,6.775 41.368,6.775 41.593,6.775L42.718,6.775ZM19.629,9.343C19.278,9.343 18.917,9.31 18.658,9.066C18.387,8.812 18.35,8.441 18.35,8.113C18.349,5.783 18.349,3.466 18.35,1.226C18.35,0.905 18.386,0.542 18.649,0.287C18.907,0.036 19.273,0.002 19.596,0.002C20.06,0.001 20.524,0.001 20.988,0.001L24.856,0.002C25.411,0.002 25.966,0.001 26.521,0L26.54,0C26.759,0 27.214,0 27.48,0.407C27.753,0.823 27.794,1.318 27.605,1.92C27.4,2.576 26.748,2.576 26.469,2.576L26.446,2.576C25.643,2.575 24.785,2.574 23.822,2.574C22.972,2.574 22.122,2.575 21.272,2.575C21.062,2.576 20.979,2.596 20.95,2.606C20.939,2.635 20.919,2.721 20.919,2.942C20.918,3.667 20.918,4.392 20.918,5.116C20.918,6.117 20.919,7.117 20.917,8.117C20.916,8.988 20.543,9.343 19.629,9.343" style="fill:rgb(27,27,27);"/>
                </g>
            </g>
        </g>
    </g>
</svg>
