<?xml version="1.0" encoding="UTF-8"?>
<svg xmlns="http://www.w3.org/2000/svg" viewBox="0 0 250 90">
  <defs>
    <style>
      .cls-1, .cls-2, .cls-3, .cls-4, .cls-5, .cls-6, .cls-7, .cls-8, .cls-9, .cls-10, .cls-11, .cls-12, .cls-13 {
        stroke-width: 0px;
      }

      .cls-1, .cls-2, .cls-3, .cls-4, .cls-5, .cls-6, .cls-7, .cls-8, .cls-9, .cls-13 {
        fill: #adadad;
      }

      .cls-1, .cls-2, .cls-3, .cls-4, .cls-6, .cls-8, .cls-9, .cls-10 {
        mix-blend-mode: multiply;
      }

      .cls-1, .cls-7 {
        opacity: .5;
      }

      .cls-2 {
        opacity: .4;
      }

      .cls-14 {
        isolation: isolate;
      }

      .cls-4 {
        opacity: .6;
      }

      .cls-6, .cls-13 {
        opacity: .75;
      }

      .cls-7, .cls-13 {
        mix-blend-mode: screen;
      }

      .cls-8 {
        opacity: .3;
      }

      .cls-9 {
        opacity: .2;
      }

      .cls-10 {
        opacity: .45;
      }

      .cls-10, .cls-12 {
        fill: #3b3b3b;
      }

      .cls-11 {
        fill: #1b1b1b;
      }
    </style>
  </defs>
  <g class="cls-14">
    <g id="Layer_1" data-name="Layer 1">
      <g>
        <g>
          <g>
            <path class="cls-11" d="M93.56,52.52c-.26-.24-.41-.52-.46-.83l-2.9-20.05v-.09c0-.19.07-.35.2-.49s.3-.2.49-.2h5.85c.38,0,.66.06.83.19s.28.35.3.66l1.07,8.88,1.29-3.93c.21-.61.57-.91,1.07-.91h3.21c.5,0,.86.3,1.07.91l1.29,3.9,1.07-8.84c.02-.31.12-.54.3-.66.18-.13.46-.19.83-.19h5.85c.19,0,.35.07.49.2.14.14.2.3.2.49v.09l-2.9,20.05c-.04.31-.19.59-.46.83-.26.24-.59.36-.99.36h-4.5c-.38,0-.67-.09-.87-.28-.2-.19-.34-.38-.42-.57l-2.58-6.45-2.58,6.45c-.08.19-.23.38-.42.57-.2.19-.49.28-.87.28h-4.5c-.4,0-.73-.12-.99-.36Z"/>
            <path class="cls-11" d="M119.57,52.63c-.17-.17-.25-.37-.25-.6v-20.33c0-.23.08-.43.25-.6s.37-.25.6-.25h6.42c.23,0,.43.08.6.25.17.17.25.37.25.6v20.33c0,.23-.08.43-.25.6-.17.17-.37.25-.6.25h-6.42c-.23,0-.43-.08-.6-.25Z"/>
            <path class="cls-11" d="M131.38,52.63c-.17-.17-.25-.37-.25-.6v-20.33c0-.23.08-.43.25-.6s.37-.25.6-.25h6.29c.23,0,.43.08.6.25.17.17.25.37.25.6v14.73h8.72c.23,0,.43.08.6.25.17.17.25.37.25.6v4.75c0,.23-.08.43-.25.6-.17.17-.37.25-.6.25h-15.86c-.23,0-.43-.08-.6-.25Z"/>
            <path class="cls-11" d="M152.63,52.63c-.17-.17-.25-.37-.25-.6v-20.33c0-.23.08-.43.25-.6s.37-.25.6-.25h6.29c.23,0,.43.08.6.25.17.17.25.37.25.6v14.73h8.72c.23,0,.43.08.6.25.17.17.25.37.25.6v4.75c0,.23-.08.43-.25.6-.17.17-.37.25-.6.25h-15.86c-.23,0-.43-.08-.6-.25Z"/>
            <path class="cls-11" d="M173.87,52.63c-.17-.17-.25-.37-.25-.6v-20.33c0-.23.08-.43.25-.6s.37-.25.6-.25h6.42c.23,0,.43.08.6.25.17.17.25.37.25.6v20.33c0,.23-.08.43-.25.6-.17.17-.37.25-.6.25h-6.42c-.23,0-.43-.08-.6-.25Z"/>
            <path class="cls-11" d="M190.01,52.02c-1.5-.59-2.64-1.39-3.39-2.38-.76-.99-1.16-2.08-1.2-3.27,0-.18.07-.34.2-.48s.29-.2.48-.2h5.83c.29,0,.52.04.69.11.17.07.38.21.63.41.59.47,1.35.71,2.27.71.7,0,1.25-.08,1.67-.23.42-.15.63-.36.63-.63,0-.37-.28-.65-.83-.84-.55-.19-1.6-.39-3.13-.6-5.28-.7-7.92-2.95-7.92-6.75,0-1.37.39-2.59,1.18-3.67s1.89-1.91,3.3-2.5c1.41-.59,3.04-.89,4.88-.89s3.61.33,5.07.98c1.45.66,2.57,1.48,3.35,2.47.78.99,1.19,1.96,1.23,2.9,0,.18-.07.34-.2.48-.13.13-.28.2-.45.2h-6.14c-.29,0-.51-.04-.68-.11-.16-.07-.35-.2-.55-.38-.43-.37-.97-.55-1.63-.55-.98,0-1.47.29-1.47.86,0,.31.24.56.72.77.48.2,1.38.39,2.69.55,2.05.27,3.69.67,4.93,1.2,1.24.53,2.14,1.24,2.7,2.13.56.89.84,2.01.84,3.36,0,1.45-.44,2.73-1.32,3.82-.88,1.1-2.09,1.94-3.64,2.53-1.55.59-3.29.89-5.23.89-2.17,0-4.01-.3-5.51-.89Z"/>
          </g>
          <g>
            <path class="cls-11" d="M94.82,63.97v-7.37h5.36v1.89h-3.15v.96h2.75v1.68h-2.75v.94h3.15v1.89h-5.36Z"/>
            <path class="cls-11" d="M104.23,62.07h3.3v1.89h-5.52v-7.37h2.21v5.47Z"/>
            <path class="cls-11" d="M109.38,63.97v-7.37h5.36v1.89h-3.15v.96h2.75v1.68h-2.75v.94h3.15v1.89h-5.36Z"/>
            <path class="cls-11" d="M120.56,56.6c1.18,0,1.99.47,2.76,1.14l-1.21,1.39c-.48-.54-1.05-.69-1.54-.69-1.11,0-1.84.82-1.84,1.85s.72,1.85,1.84,1.85c.49,0,1.06-.15,1.54-.69l1.21,1.39c-.77.67-1.57,1.14-2.76,1.14-2.41,0-3.98-1.69-3.98-3.68s1.57-3.68,3.98-3.68Z"/>
            <path class="cls-11" d="M131.28,56.6v1.89h-2v5.47h-2.17v-5.47h-1.96v-1.89h6.13Z"/>
            <path class="cls-11" d="M135.3,61.41v2.45h-2.18v-7.25h3.52c1.69,0,2.59,1.14,2.59,2.53,0,1.07-.55,1.84-1.5,2.15.09.68.43,1,.85,1,.25,0,.52-.07.79-.25l.66,1.38c-.53.36-1.16.56-1.9.56-1.89,0-2.24-1.81-2.32-2.56h-.52ZM135.3,59.9h1.12c.37,0,.64-.35.64-.7,0-.38-.27-.74-.64-.74h-1.12v1.44Z"/>
            <path class="cls-11" d="M144.09,63.97h-2.21v-7.37h2.21v7.37Z"/>
            <path class="cls-11" d="M149.91,56.6c1.18,0,1.99.47,2.76,1.14l-1.21,1.39c-.48-.54-1.05-.69-1.54-.69-1.11,0-1.84.82-1.84,1.85s.72,1.85,1.84,1.85c.49,0,1.06-.15,1.54-.69l1.21,1.39c-.77.67-1.57,1.14-2.76,1.14-2.41,0-3.98-1.69-3.98-3.68s1.57-3.68,3.98-3.68Z"/>
            <path class="cls-11" d="M154.51,63.97l2.85-7.37h1.96l2.93,7.37h-2.35l-.47-1.23h-2.19l-.44,1.23h-2.28ZM157.59,61.01h1.47l-.71-2.07-.77,2.07Z"/>
            <path class="cls-11" d="M166.3,62.07h3.3v1.89h-5.52v-7.37h2.21v5.47Z"/>
            <path class="cls-11" d="M184.57,65.6c-.68.45-1.38.54-1.79.54-1.69,0-2.66-.9-2.93-2.28-1.83-.38-2.88-1.88-2.88-3.58,0-1.99,1.45-3.68,3.86-3.68s3.86,1.69,3.86,3.68c0,1.68-1.02,3.16-2.82,3.57.12.4.45.65.98.65.41,0,.86-.17,1.08-.31l.63,1.4ZM182.55,60.28c0-1-.62-1.85-1.71-1.85s-1.71.85-1.71,1.85.62,1.85,1.71,1.85,1.71-.85,1.71-1.85Z"/>
            <path class="cls-11" d="M188.74,62.07h3.3v1.89h-5.52v-7.37h2.21v5.47Z"/>
            <path class="cls-11" d="M193.89,63.97v-7.37h3.46c2.15,0,3.75,1.65,3.75,3.68s-1.6,3.68-3.75,3.68h-3.46ZM196.1,58.49v3.58h.95c1.14,0,1.84-.71,1.84-1.79s-.71-1.8-1.84-1.79h-.95Z"/>
          </g>
        </g>
        <polygon class="cls-5" points="86.73 45 86.73 45 86.73 45 86.73 45 86.73 45"/>
        <g>
          <g>
            <polygon class="cls-5" points="56.23 54.04 56.23 54.04 56.23 54.04 56.23 54.04 56.23 54.04"/>
            <path class="cls-5" d="M55.83,54.56c.41-.83,1.04-2.64.72-3.61-.32-.98-1.34-1.53-2.29-1.23,0,0,0,0,0,0,0,0,0,0,0,0-.95.29-1.46,1.32-1.14,2.3s1.9,2.1,2.73,2.55Z"/>
          </g>
          <path class="cls-5" d="M55.83,54.56c-.38-1.78-1.02-3.5-1.91-5.07-.89-1.57-2.01-3-3.31-4.22l.51-.51c1.27,1.36,2.32,2.9,3.12,4.56.8,1.66,1.33,3.43,1.59,5.23Z"/>
          <path class="cls-3" d="M55.83,54.56c-.38-1.78-1.02-3.5-1.91-5.07-.89-1.57-2.01-3-3.31-4.22l.51-.51c1.27,1.36,2.32,2.9,3.12,4.56.8,1.66,1.33,3.43,1.59,5.23Z"/>
          <path class="cls-2" d="M56.55,50.94c-.3-.93-1.25-1.47-2.15-1.27.71,1.56,1.19,3.21,1.43,4.88.41-.83,1.04-2.64.72-3.61Z"/>
          <path class="cls-4" d="M53.1,52.01c.32.98,1.9,2.1,2.73,2.55h0c-.35-1.68-.95-3.29-1.76-4.78-.84.36-1.27,1.32-.97,2.24Z"/>
          <path class="cls-2" d="M54.07,49.78c-.08.04-.16.08-.23.12.88,1.44,1.55,3.01,1.99,4.66,0,0,0,0,0,0-.35-1.67-.95-3.29-1.76-4.78Z"/>
          <path class="cls-9" d="M55.83,54.56c-.38-1.78-1.02-3.5-1.91-5.07-.89-1.57-2.01-3-3.31-4.22l.51-.51c1.27,1.36,2.32,2.9,3.12,4.56.8,1.66,1.33,3.43,1.59,5.23Z"/>
          <g>
            <polygon class="cls-5" points="63.3 50.2 63.3 50.2 63.3 50.2 63.3 50.2 63.3 50.2"/>
            <path class="cls-5" d="M63.56,50.26c-.75-1.11-2.57-3.16-4.01-3.44s-2.84.62-3.13,2.02c0,0,0,0,0,0,0,0,0,0,0,0-.29,1.4.64,2.77,2.07,3.05s3.94-.91,5.07-1.64Z"/>
          </g>
          <g>
            <polygon class="cls-5" points="66.62 27.51 66.62 27.51 66.62 27.51 66.62 27.51 66.62 27.51"/>
            <path class="cls-5" d="M66.74,26.86c-2.73,1.93-7.77,6.57-8.41,10.18-.64,3.61,1.68,7.07,5.2,7.73,0,0,.02,0,.02,0,0,0,.02,0,.02,0,3.51.66,6.88-1.72,7.52-5.33.64-3.61-2.47-9.79-4.35-12.6Z"/>
          </g>
          <path class="cls-5" d="M47.32,38.17c.48,1.4,1.27,2.71,2.3,3.78,1.04,1.08,2.33,1.92,3.74,2.46,1.41.53,2.95.76,4.47.64.76-.06,1.51-.21,2.25-.43.73-.23,1.45-.53,2.12-.91,1.35-.74,2.51-1.82,3.36-3.11.86-1.29,1.39-2.79,1.68-4.33.29-1.54.33-3.13.22-4.71-.11-1.58-.37-3.15-.72-4.69.4,1.53.72,3.1.88,4.68.16,1.58.18,3.19-.06,4.78-.24,1.58-.74,3.15-1.59,4.54-.85,1.39-2.04,2.57-3.44,3.41-.7.42-1.44.77-2.21,1.04-.77.27-1.58.47-2.39.57-1.64.2-3.32.03-4.9-.49-1.57-.53-3.05-1.4-4.26-2.56-1.21-1.16-2.18-2.59-2.79-4.17l1.35-.49Z"/>
          <path class="cls-7" d="M66.74,26.86h0c.4,1.53.72,3.1.88,4.68.16,1.58.18,3.19-.06,4.78-.24,1.58-.74,3.15-1.59,4.54-.85,1.39-2.04,2.57-3.44,3.41-.08.05-.16.09-.25.14.4.16.81.29,1.25.37,0,0,.02,0,.02,0,0,0,.02,0,.02,0,3.51.66,6.88-1.72,7.52-5.33.64-3.61-2.47-9.79-4.35-12.6Z"/>
          <path class="cls-8" d="M65.55,40.6c.86-1.29,1.39-2.79,1.68-4.33.29-1.54.33-3.13.22-4.71-.11-1.58-.37-3.15-.72-4.69-2.73,1.93-7.77,6.57-8.41,10.18-.51,2.87.86,5.65,3.21,7,.22-.11.44-.22.66-.34,1.35-.74,2.51-1.82,3.36-3.11ZM66.62,27.51s0,0,0,0c0,0,0,0,0,0s0,0,0,0c0,0,0,0,0,0Z"/>
          <path class="cls-8" d="M67.45,31.57c-.11-1.59-.37-3.16-.72-4.7,0,0,0,0,0,0,.27,1.56.45,3.14.47,4.72.02,1.58-.1,3.17-.47,4.69-.36,1.52-.98,2.99-1.9,4.24-.92,1.25-2.13,2.26-3.52,2.93-.13.07-.27.13-.41.19.2.15.4.29.62.41.22-.11.44-.22.66-.34.15-.08.3-.17.45-.26.08-.05.16-.1.23-.15.06-.04.12-.08.18-.12.1-.07.2-.15.3-.22.02-.02.05-.04.07-.06.11-.09.23-.18.34-.27h0c.68-.58,1.29-1.26,1.79-2.02.86-1.29,1.39-2.79,1.68-4.33.07-.38.13-.75.17-1.14.13-1.18.13-2.38.05-3.56Z"/>
          <path class="cls-6" d="M47.32,38.17c.48,1.4,1.27,2.71,2.3,3.78,1.04,1.08,2.33,1.92,3.74,2.46,1.41.53,2.95.76,4.47.64.76-.06,1.51-.21,2.25-.43.73-.23,1.45-.53,2.12-.91,1.35-.74,2.51-1.82,3.36-3.11.86-1.29,1.39-2.79,1.68-4.33.29-1.54.33-3.13.22-4.71-.11-1.58-.37-3.15-.72-4.69.4,1.53.72,3.1.88,4.68.16,1.58.18,3.19-.06,4.78-.24,1.58-.74,3.15-1.59,4.54-.85,1.39-2.04,2.57-3.44,3.41-.7.42-1.44.77-2.21,1.04-.77.27-1.58.47-2.39.57-1.64.2-3.32.03-4.9-.49-1.57-.53-3.05-1.4-4.26-2.56-1.21-1.16-2.18-2.59-2.79-4.17l1.35-.49Z"/>
          <path class="cls-12" d="M56.7,63.51l13.02,2.17c1.3.22,2.48-.79,2.48-2.1h0c0-1.04-.75-1.93-1.78-2.1l-13.02-2.17c-1.3-.22-2.48.79-2.48,2.1h0c0,1.04.75,1.93,1.78,2.1Z"/>
          <path class="cls-12" d="M56.7,69.27l13.02,2.17c1.3.22,2.48-.79,2.48-2.1h0c0-1.04-.75-1.93-1.78-2.1l-13.02-2.17c-1.3-.22-2.48.79-2.48,2.1h0c0,1.04.75,1.93,1.78,2.1Z"/>
          <path class="cls-10" d="M56.7,63.51l13.02,2.17c1.3.22,2.48-.79,2.48-2.1h0c0-1.04-.75-1.93-1.78-2.1l-13.02-2.17c-1.3-.22-2.48.79-2.48,2.1h0c0,1.04.75,1.93,1.78,2.1Z"/>
          <path class="cls-10" d="M56.7,69.27l13.02,2.17c1.3.22,2.48-.79,2.48-2.1h0c0-1.04-.75-1.93-1.78-2.1l-13.02-2.17c-1.3-.22-2.48.79-2.48,2.1h0c0,1.04.75,1.93,1.78,2.1Z"/>
          <path class="cls-5" d="M72.2,77.5c-.95-1.04-1.78-2.19-2.51-3.41-.72-1.23-1.33-2.53-1.79-3.89-.47-1.36-.79-2.78-.97-4.21-.09-.72-.15-1.44-.17-2.17,0-.36-.02-.73,0-1.1.02-.37.02-.75.08-1.11.16-1.48.53-2.92,1.02-4.3.49-1.38,1.12-2.7,1.8-3.98.68-1.28,1.45-2.5,2.24-3.69.79-1.19,1.61-2.34,2.39-3.48.78-1.14,1.52-2.29,2.2-3.46.68-1.17,1.3-2.36,1.81-3.58.52-1.22.94-2.46,1.22-3.7l.17-.93c.04-.16.04-.31.06-.47l.05-.47.03-.23c0-.08,0-.15,0-.23v-.46s.02-.23.02-.23c0-.08,0-.15,0-.23l-.02-.48v-.24s-.03-.24-.03-.24l-.04-.47c0-.16-.04-.31-.06-.47l-.06-.47c-.06-.31-.11-.62-.18-.93-.08-.31-.14-.62-.24-.92-.35-1.22-.83-2.4-1.46-3.49-.62-1.1-1.36-2.13-2.21-3.07-.86-.93-1.82-1.76-2.86-2.48-2.08-1.43-4.5-2.38-7-2.7-1.25-.17-2.53-.21-3.79-.09-1.26.12-2.51.39-3.71.79-1.21.39-2.36.95-3.44,1.62-1.08.67-2.1,1.46-3,2.37-.9.91-1.72,1.91-2.39,3.01-.68,1.09-1.24,2.26-1.65,3.49-.81,2.45-1.09,5.11-.73,7.71.17,1.3.5,2.58.97,3.82.47,1.23,1.09,2.42,1.84,3.53,1.5,2.21,3.52,4.11,5.89,5.46.29.18.6.33.9.49.15.08.31.15.46.22l.47.22c.32.12.63.27.96.38.33.11.65.23.98.32,1.32.41,2.71.65,4.11.76-2.8.18-5.71-.29-8.34-1.49-2.64-1.17-5.01-3.01-6.86-5.3-.92-1.15-1.7-2.42-2.33-3.76-.63-1.35-1.08-2.78-1.38-4.24l-.06-.27-.04-.28-.09-.55c-.05-.37-.08-.74-.12-1.12-.02-.37-.05-.75-.05-1.12v-.56s0-.28,0-.28v-.28c.07-1.5.31-3.01.72-4.46.42-1.46,1.01-2.86,1.76-4.19.74-1.33,1.67-2.55,2.7-3.67.25-.29.53-.55.8-.82.13-.14.28-.26.42-.39.14-.13.28-.26.43-.38.59-.49,1.2-.95,1.84-1.37,1.28-.84,2.66-1.54,4.1-2.06,1.45-.52,2.96-.87,4.49-1.04,1.53-.16,3.08-.15,4.61.04,1.53.19,3.04.57,4.48,1.12,1.44.55,2.82,1.26,4.1,2.14,1.27.88,2.44,1.9,3.47,3.04,1.03,1.15,1.93,2.41,2.67,3.76.74,1.35,1.31,2.8,1.71,4.28.11.37.18.75.27,1.12.08.38.14.76.2,1.14.04.38.1.76.13,1.15l.04.57.02.29v.29s.01.57.01.57c0,.09,0,.19,0,.29l-.02.29-.03.59c0,.1-.01.2-.02.29l-.04.29-.08.58c-.03.19-.05.39-.09.57l-.24,1.13c-.37,1.49-.91,2.89-1.54,4.24-.63,1.34-1.35,2.62-2.13,3.85-.78,1.23-1.62,2.4-2.48,3.54-.86,1.14-1.74,2.23-2.56,3.33-.82,1.1-1.61,2.22-2.33,3.37-.72,1.15-1.37,2.34-1.91,3.57-.54,1.23-.96,2.5-1.21,3.8-.25,1.28-.3,2.66-.26,4.01.05,1.36.22,2.72.54,4.05.62,2.67,1.76,5.25,3.34,7.58Z"/>
          <path class="cls-13" d="M58.47,49.17c-.33-.11-.64-.25-.96-.38l-.47-.22c-.16-.07-.31-.14-.46-.22-.3-.16-.61-.31-.9-.49-2.37-1.36-4.39-3.25-5.89-5.46-.74-1.11-1.36-2.29-1.84-3.53-.47-1.24-.79-2.52-.97-3.82-.36-2.6-.08-5.26.73-7.71.41-1.22.97-2.39,1.65-3.49.67-1.1,1.48-2.1,2.39-3.01.9-.91,1.92-1.7,3-2.37,1.08-.67,2.24-1.22,3.44-1.62.97-.32,1.98-.56,2.99-.7-.93,0-1.86.09-2.78.25-.56.13-1.1.28-1.65.45-1.21.39-2.36.95-3.44,1.62-1.08.67-2.1,1.46-3,2.37-.9.91-1.72,1.91-2.39,3.01-.68,1.09-1.24,2.26-1.65,3.49-.05.14-.09.28-.13.42-.22,1.06-.36,2.13-.4,3.21v.28s-.01.28-.01.28v.56c0,.38.03.75.05,1.12.04.37.07.75.12,1.12l.09.55.04.28.06.27c.3,1.47.75,2.9,1.38,4.24.63,1.34,1.42,2.61,2.33,3.76,1.84,2.3,4.21,4.14,6.86,5.3,2.02.91,4.19,1.41,6.36,1.5.18,0,.36,0,.54-.02-1.4-.11-2.78-.35-4.11-.76-.33-.09-.66-.21-.98-.32Z"/>
          <path class="cls-1" d="M55.87,49.05c.11.04.21.09.32.13.07.03.14.05.21.08.09.03.19.07.28.1.08.03.16.05.24.08.09.03.17.06.26.08.08.03.17.05.25.08.08.02.16.05.25.07.09.02.18.05.27.07.08.02.16.04.23.06.09.02.19.04.28.07.07.02.15.03.22.05.1.02.2.04.3.06.07.01.14.03.21.04.1.02.21.04.31.05.07.01.13.02.2.03.11.02.22.03.32.05.06,0,.12.02.18.02.11.01.23.03.34.04.06,0,.11.01.17.02.12.01.24.02.35.03.05,0,.1,0,.15,0,.12,0,.25.02.37.02.04,0,.08,0,.13,0,.13,0,.26,0,.39.01.03,0,.07,0,.1,0,.14,0,.28,0,.42,0,.02,0,.04,0,.06,0,.15,0,.3,0,.45-.01h0c-2.2-.09-4.41-.58-6.46-1.51-2.64-1.17-5.01-3.01-6.86-5.3-.92-1.15-1.7-2.42-2.33-3.76-.63-1.35-1.08-2.78-1.38-4.24l-.06-.27-.04-.28-.09-.55c-.05-.37-.08-.74-.12-1.12-.02-.37-.05-.75-.05-1.12v-.56s0-.28,0-.28v-.28c.07-1.5.31-3.01.72-4.46.42-1.46,1.01-2.86,1.76-4.19.74-1.33,1.67-2.55,2.7-3.67.25-.29.53-.55.8-.82.13-.14.28-.26.42-.39.14-.13.28-.26.43-.38.59-.49,1.2-.95,1.84-1.37,1.28-.84,2.66-1.54,4.1-2.06,1.45-.52,2.96-.87,4.49-1.04.48-.05.95-.08,1.43-.1,0,0,0,0,0,0-.22,0-.44-.01-.66-.01-.06,0-.13,0-.19,0-.16,0-.31,0-.47,0-.07,0-.15,0-.22,0-.15,0-.31.01-.46.02-.07,0-.14,0-.2.01-.22.02-.44.03-.66.06-1.53.17-3.04.51-4.49,1.04-1.45.52-2.83,1.22-4.1,2.06-.64.41-1.25.88-1.84,1.37-.15.12-.29.25-.43.38-.14.13-.29.25-.42.39-.27.27-.55.53-.8.82-1.04,1.12-1.96,2.34-2.7,3.67-.74,1.33-1.34,2.73-1.76,4.19-.41,1.46-.65,2.96-.71,4.46v.28s-.01.28-.01.28v.56c0,.38.03.75.05,1.12.04.37.07.75.12,1.12l.09.55.04.28.06.27c.3,1.47.75,2.9,1.38,4.24.63,1.34,1.42,2.61,2.33,3.76,1.84,2.3,4.21,4.14,6.86,5.3.16.07.32.14.48.21.06.02.11.05.17.07Z"/>
          <path class="cls-1" d="M68.32,65.87c0-.1,0-.21,0-.31-.06-.58-.1-1.16-.12-1.74,0-.36-.02-.73,0-1.1.02-.37.02-.75.08-1.11.16-1.48.53-2.92,1.02-4.3.49-1.38,1.12-2.7,1.8-3.98.68-1.28,1.45-2.5,2.24-3.69.79-1.19,1.61-2.34,2.39-3.48.78-1.14,1.52-2.29,2.2-3.46.68-1.17,1.3-2.36,1.81-3.58.52-1.22.94-2.46,1.22-3.7l.17-.93c.04-.16.04-.31.06-.47l.05-.47.03-.23c0-.08,0-.15,0-.23v-.46s.02-.23.02-.23c0-.08,0-.15,0-.23l-.02-.48v-.24s-.03-.24-.03-.24l-.04-.47c0-.16-.04-.31-.06-.47l-.06-.47c-.06-.31-.11-.62-.18-.93-.08-.31-.14-.62-.24-.92-.35-1.22-.83-2.4-1.46-3.49-.62-1.1-1.36-2.13-2.21-3.07-.86-.93-1.82-1.76-2.86-2.48-2.08-1.43-4.5-2.38-7-2.7-1-.14-2.01-.19-3.02-.14.53.02,1.06.07,1.58.14,2.51.33,4.92,1.28,7,2.7,1.04.71,2,1.55,2.86,2.48.85.94,1.59,1.97,2.21,3.07.62,1.1,1.11,2.28,1.46,3.49.1.3.16.61.24.92.07.31.12.62.18.93l.06.47c.02.16.05.31.06.47l.04.47.02.24v.24s.03.48.03.48c0,.08,0,.16,0,.23v.23s-.02.46-.02.46c0,.08,0,.15,0,.23l-.03.23-.05.47c-.02.16-.03.31-.06.47l-.17.93c-.28,1.24-.7,2.49-1.22,3.7-.52,1.22-1.14,2.41-1.81,3.58-.68,1.17-1.42,2.32-2.2,3.46-.78,1.14-1.6,2.29-2.39,3.48-.79,1.19-1.56,2.42-2.24,3.69-.68,1.28-1.31,2.6-1.8,3.98-.49,1.38-.86,2.82-1.02,4.3-.06.37-.06.74-.08,1.11-.03.37-.01.74,0,1.1.02.73.07,1.45.17,2.17.19,1.44.5,2.85.97,4.21.46,1.36,1.07,2.67,1.79,3.89.73,1.22,1.56,2.37,2.51,3.41-1.58-2.32-2.72-4.91-3.34-7.58-.31-1.34-.49-2.7-.54-4.05Z"/>
          <path class="cls-7" d="M83.25,32.12v-.57s-.01-.29-.01-.29l-.02-.29-.04-.57c-.03-.38-.08-.76-.13-1.15-.07-.38-.12-.76-.2-1.14-.09-.37-.16-.75-.27-1.12-.4-1.49-.97-2.93-1.71-4.28-.74-1.35-1.64-2.61-2.67-3.76-1.04-1.14-2.21-2.16-3.47-3.04-1.27-.87-2.65-1.58-4.1-2.14-1.44-.55-2.95-.93-4.48-1.12-1.06-.13-2.12-.18-3.18-.14.58.02,1.16.07,1.74.14,1.53.19,3.04.57,4.48,1.12,1.44.55,2.82,1.26,4.1,2.14,1.27.88,2.44,1.9,3.47,3.04,1.03,1.15,1.93,2.41,2.67,3.76.74,1.35,1.31,2.8,1.71,4.28.11.37.18.75.27,1.12.08.38.14.76.2,1.14.04.38.1.76.13,1.15l.04.57.02.29v.29s.01.57.01.57c0,.09,0,.19,0,.29l-.02.29-.03.59c0,.1-.01.2-.02.29l-.04.29-.08.58c-.03.19-.05.39-.09.57l-.24,1.13c-.37,1.49-.91,2.89-1.54,4.24-.63,1.34-1.35,2.62-2.13,3.85-.78,1.23-1.62,2.4-2.48,3.54-.86,1.14-1.74,2.23-2.56,3.33-.82,1.1-1.61,2.22-2.33,3.37-.72,1.15-1.37,2.34-1.91,3.57-.54,1.23-.96,2.5-1.21,3.8-.23,1.18-.29,2.45-.27,3.7.02.14.03.29.05.43.19,1.44.5,2.85.97,4.21.46,1.36,1.07,2.67,1.79,3.89.73,1.22,1.56,2.37,2.51,3.41-1.58-2.32-2.72-4.91-3.34-7.58-.31-1.34-.49-2.7-.54-4.05-.04-1.35.02-2.73.26-4.01.25-1.3.67-2.57,1.21-3.8.54-1.23,1.19-2.41,1.91-3.57.72-1.15,1.5-2.27,2.33-3.37.82-1.1,1.7-2.19,2.56-3.33.86-1.14,1.7-2.31,2.48-3.54.78-1.23,1.5-2.51,2.13-3.85.63-1.34,1.17-2.75,1.54-4.24l.24-1.13c.05-.19.06-.38.09-.57l.08-.58.04-.29c0-.1.01-.2.02-.29l.03-.59.02-.29c0-.1,0-.2,0-.29Z"/>
          <path class="cls-7" d="M57.04,48.58l.47.22c.32.12.63.27.96.38.33.11.65.23.98.32,1.32.41,2.71.65,4.11.76-.75-1.11-2.57-3.16-4.01-3.44-1.27-.25-2.51.42-2.98,1.54,0,0,0,0,0,0,.15.08.31.15.46.22ZM63.3,50.2s0,0,0,0c0,0,0,0,0,0,0,0,0,0,0,0,0,0,0,0,0,0Z"/>
          <path class="cls-8" d="M56.36,49.24c-.07,1.26.82,2.4,2.12,2.66,1.44.29,3.94-.91,5.07-1.64-2.4.16-4.88-.17-7.19-1.02Z"/>
          <path class="cls-1" d="M56.36,49.24c-.01.23,0,.45.05.66,2.35.62,4.8.72,7.14.36-2.4.16-4.88-.17-7.19-1.02Z"/>
          <polygon class="cls-6" points="56.23 54.04 56.23 54.04 56.23 54.04 56.23 54.04 56.23 54.04"/>
          <path class="cls-12" d="M70.42,60.63l-13.02,2.17c-1.3.22-2.48-.79-2.48-2.1h0c0-1.04.75-1.93,1.78-2.1l13.02-2.17c1.3-.22,2.48.79,2.48,2.1h0c0,1.04-.75,1.93-1.78,2.1Z"/>
          <path class="cls-12" d="M70.42,66.39l-13.02,2.17c-1.3.22-2.48-.79-2.48-2.1h0c0-1.04.75-1.93,1.78-2.1l13.02-2.17c1.3-.22,2.48.79,2.48,2.1h0c0,1.04-.75,1.93-1.78,2.1Z"/>
          <path class="cls-12" d="M70.42,72.15l-13.02,2.17c-1.3.22-2.48-.79-2.48-2.1h0c0-1.04.75-1.93,1.78-2.1l13.02-2.17c1.3-.22,2.48.79,2.48,2.1h0c0,1.04-.75,1.93-1.78,2.1Z"/>
        </g>
      </g>
    </g>
  </g>
</svg>