<?xml version="1.0" encoding="utf-8"?>
<!-- Generator: Adobe Illustrator 27.0.1, SVG Export Plug-In . SVG Version: 6.00 Build 0)  -->
<svg version="1.1" id="Layer_1" xmlns="http://www.w3.org/2000/svg" xmlns:xlink="http://www.w3.org/1999/xlink" x="0px" y="0px"
	 viewBox="0 0 220 130" style="enable-background:new 0 0 220 130;" xml:space="preserve">
<style type="text/css">
	.st0{fill:#E11D48;}
	.st1{fill:#2D2D2D;}
</style>
<g>
	<g>
		<path d="M75.1,110.6l-68.5,5.7c-1.5,0.1-2.2-1.1-2.5-2.5c-1.9-12.4-1.9-29.1-1.9-41.7c0-15.6,0.2-37.1,3.2-52.3
			c0.2-1.5,1.1-2.7,2.7-2.7l63.9,1.1c1.2,0,2.4,1,2.4,2.4c0,3.7-1.7,12.7-2.2,16.9c-0.1,1.4-1.5,2.7-3,2.7L36.9,42
			c-1.5,0-2.9,1.2-3.2,2.7c-0.5,2.5-2,9.4-2,11.8c0,1.2,1,2,2.1,2c11.9,0,24.1-1.6,36-1.6c1.4,0,2.5,1.2,2.5,2.6l-0.5,14.3
			c-0.1,1.5-1.2,2.9-2.7,3l-35.6,4.1C31.9,81,31,83.2,31,84.7c0,1.9,0.4,4.8,2.9,4.7l40.3-1.4c1.4,0,2.6,1.2,2.7,2.6
			c0.2,6,0.7,11.2,0.7,17.1C77.6,109.2,76.5,110.4,75.1,110.6z"/>
		<path d="M175.2,27c-10.3,9.1-24.3,22.2-38.5,36.3c10.2,15,20.7,29.5,28.9,39.9c0.4,0.5,0.6,1,0.6,1.5c0,0.9-0.6,1.7-1.7,2.1
			l-24.3,9.7c-0.4,0.1-0.7,0.1-1.2,0.1c-1.2,0-2.5-0.6-3.4-1.5c-6.3-7.7-14-17.6-22.1-28.6c-11.4,11.9-21.9,23-29.3,31.5
			c-0.7,0.7-1.9,1.2-3.1,1.2c-0.6,0-1.2-0.1-1.7-0.5l-20-9.7c-0.9-0.5-1.4-1.2-1.4-2c0-0.5,0.2-1.1,0.7-1.6l38.6-41.2
			C85.8,48,75.1,32.3,68.3,21.7c-0.2-0.5-0.4-1-0.4-1.4c0-0.7,0.5-1.2,1.6-1.4l33.8-2.4l0.2-0.1c1.6,0,3.7,1,4.5,2.4
			c3.5,6.1,7.8,13,12.7,20.5l29.8-31.8c0.6-0.7,1.5-1.1,2.5-1.1c0.6,0,1.4,0.2,2,0.7l20,15.8c0.7,0.6,1.1,1.4,1.1,2.2
			C176.1,25.8,175.8,26.5,175.2,27z"/>
	</g>
	<g>
		<polygon class="st0" points="151,58.6 166.8,62.4 156.4,78.2 170.2,81.5 153.1,124 199.6,73 187.7,68.8 204.8,54.7 192.4,50.4 
			217.7,10 175.3,10 		"/>
	</g>
</g>
</svg>
