<?xml version="1.0" encoding="utf-8"?>
<!-- Generator: Adobe Illustrator 27.7.0, SVG Export Plug-In . SVG Version: 6.00 Build 0)  -->
<svg version="1.1" xmlns="http://www.w3.org/2000/svg" xmlns:xlink="http://www.w3.org/1999/xlink" x="0px" y="0px"
	 viewBox="0 0 175 45" style="enable-background:new 0 0 175 45;" xml:space="preserve">
<style type="text/css">
	.st0{fill:#1E1E1E;}
	.st1{fill:#121212;}
	.st2{opacity:0.1;fill:#1E1E1E;}
	.st3{fill:#DBDBDB;}
	.st4{fill:#C16161;}
	.st5{fill:#7EB200;}
	.st6{fill:#A8D500;}
	.st7{opacity:0.35;}
	.st8{fill:#FFFFFF;}
	.st9{opacity:0.1;fill:#DBDBDB;}
	.st10{fill:#5E5E5E;}
	.st11{fill:#D3A62A;}
	.st12{opacity:0.8;}
	.st13{clip-path:url(#SVGID_00000062149706136771766530000008927540077061405074_);}
	.st14{opacity:0.65;}
	.st15{fill-rule:evenodd;clip-rule:evenodd;fill:#FFFFFF;}
	.st16{fill:none;stroke:#FF1BEB;stroke-miterlimit:10;}
	.st17{fill:none;stroke:#00B9BD;stroke-miterlimit:10;}
	.st18{fill:#0D4586;}
</style>
<g id="Layer_1">
</g>
<g id="Layer_3">
	<g>
		<g>
			<g>
				<path class="st11" d="M26.6,2.3H2.5c0,0,0.9,2.8,5,2.5S17.3,4.5,20,5.6c-1.1,0.1-7.8,0.5-7.8,0.5s3.6,3.4,9,1.5
					c-0.3,0.8-0.6,1.4-3,2.7c1,0.6,2.4,1.2,5.6-1.5c0,0.5,0.1,1.1-2.1,3.7c1.1,0,2.9-0.2,4.7-2.7l1.8,2.9V6.5l-0.5-1
					c0,0-0.4-0.6,0.5-0.9V4.1h-1.3l0.1,0.5l-0.6-0.4c-0.1-0.1-0.2-0.2-0.1-0.3C26.3,3.5,26.4,2.7,26.6,2.3z"/>
				<g>
					<polygon class="st11" points="28.2,23 27.3,22.2 27.8,13.3 28.2,13.7 					"/>
					<path class="st11" d="M25.8,11.2l-3.1,4.9c-0.2,0.3-0.2,0.8,0.1,1.1l1.1,1.2l2.4-6.7L25.8,11.2z"/>
					<path class="st11" d="M27.3,13l-0.4,8.6L25.4,20c-0.4-0.5-0.6-1.2-0.4-1.8l2-5.7l0.1,0.1C27.2,12.7,27.3,12.8,27.3,13z"/>
				</g>
			</g>
			<g>
				<path class="st11" d="M31.4,22.9c0-0.1,0.1-0.2,0.2-0.2h1v-20h-1c-0.1,0-0.2-0.1-0.2-0.2c0-0.1,0.1-0.2,0.2-0.2h14
					c5,0,8.1,1.6,8.1,6.3c0,2.5-1,4.1-3,5.1V14c1.6,0.2,2.2,1,2.5,2.1l1.7,6.5h1c0.1,0,0.2,0.1,0.2,0.2S56,23,55.9,23H45.5l-2.6-9
					h-0.4v8.6h1c0.1,0,0.2,0.1,0.2,0.2S43.7,23,43.6,23H31.6C31.5,23,31.4,23,31.4,22.9z M43.7,13.7c0.7,0,1.1-0.4,1.1-1V3.5
					c0-0.5-0.4-0.9-1-0.9h-1.2v11H43.7z"/>
				<path class="st11" d="M53.6,22.9c0-0.1,0.1-0.2,0.2-0.2h1.9l6.6-20.4h7.3l6.3,20.4H77c0.1,0,0.2,0.1,0.2,0.2
					c0,0.1-0.1,0.2-0.2,0.2H63.5c-0.1,0-0.2-0.1-0.2-0.2s0.1-0.2,0.2-0.2h2.5l-2-6.6h-5.7l-2.1,6.6h2.5c0.1,0,0.2,0.1,0.2,0.2
					S58.9,23,58.8,23h-5C53.7,23,53.6,23,53.6,22.9z M63.9,15.7l-2.6-8.6h-0.1l-2.7,8.6H63.9z"/>
				<path class="st11" d="M74.8,2.6h-1.2c-0.1,0-0.2-0.1-0.2-0.2c0-0.1,0.1-0.2,0.2-0.2h14.1c0.1,0,0.2,0.1,0.2,0.2
					c0,0.1-0.1,0.2-0.2,0.2h-3.1l5,15.6h0.1l4.7-15.6h-2.1c-0.1,0-0.2-0.1-0.2-0.2c0-0.1,0.1-0.2,0.2-0.2h4.5c0.1,0,0.2,0.1,0.2,0.2
					c0,0.1-0.1,0.2-0.2,0.2h-1.9L88.7,23h-7.4L74.8,2.6z"/>
				<path class="st11" d="M96.4,22.9c0-0.1,0.1-0.2,0.2-0.2h1.3v-20h-1.3c-0.1,0-0.2-0.1-0.2-0.2c0-0.1,0.1-0.2,0.2-0.2h19.8v9.2
					c0,0.1-0.1,0.1-0.1,0.1c-0.1,0-0.1-0.1-0.1-0.1c-0.4-5.2-2.5-8.8-7.7-8.8h-0.7v9.9h1.3c3.3,0,3.4-1.1,3.4-4.9
					c0-0.1,0.1-0.2,0.2-0.2c0.1,0,0.2,0.1,0.2,0.2v10.4c0,0.1-0.1,0.2-0.2,0.2c-0.1,0-0.2-0.1-0.2-0.2c0-4.1,0-5.3-3.4-5.3h-1.3v9.9
					h0.7c6.4,0,8.3-4.7,8.7-10.5c0-0.1,0.1-0.1,0.1-0.1c0.1,0,0.1,0.1,0.1,0.1L116.6,23h-20C96.5,23,96.4,23,96.4,22.9z"/>
				<path class="st11" d="M118.4,22.9c0-0.1,0.1-0.2,0.2-0.2h1.6v-20h-1.6c-0.1,0-0.2-0.1-0.2-0.2c0-0.1,0.1-0.2,0.2-0.2h5.4
					l12.9,9.1V2.6h-2.5c-0.1,0-0.2-0.1-0.2-0.2c0-0.1,0.1-0.2,0.2-0.2h4.3c0.1,0,0.2,0.1,0.2,0.2c0,0.1-0.1,0.2-0.2,0.2h-1.3V23
					h-1.1l-15.6-10.9v10.6h2.5c0.1,0,0.2,0.1,0.2,0.2s-0.1,0.2-0.2,0.2h-4.7C118.5,23,118.4,23,118.4,22.9z"/>
				<path class="st11" d="M139.7,12.8c0-6.7,4.8-10.9,11.5-10.9c4.4,0,8.6,1.1,8.6,5.5c0,2-1.4,3.8-4,3.8c-2.3,0-4-1.4-4-3.9
					c0-2.3,1.5-3.8,3.7-3.8c1.1,0,1.6,0.4,1.8,0.4c0.1,0,0.1,0,0.1-0.1c0-0.1,0-0.1-0.1-0.2c-1.6-0.9-3.8-1.3-6.1-1.3
					c-0.6,0-1,0.2-1,0.8v18.6c0,1.1,0.6,1.4,1.9,1.4c3.6,0,6.6-1.6,6.6-3.8c0-0.3,0-0.5,0.3-0.5c0.2,0,0.3,0.1,0.3,0.4
					c0,2.5-3.2,4.3-7.1,4.3C144.4,23.5,139.7,19.8,139.7,12.8z"/>
				<path class="st11" d="M160.2,22.9c0-0.1,0.1-0.2,0.2-0.2h1v-20h-1c-0.1,0-0.2-0.1-0.2-0.2c0-0.1,0.1-0.2,0.2-0.2h11.9
					c0.1,0,0.2,0.1,0.2,0.2c0,0.1-0.1,0.2-0.2,0.2h-1v20h1c0.1,0,0.2,0.1,0.2,0.2s-0.1,0.2-0.2,0.2h-11.9
					C160.3,23,160.2,23,160.2,22.9z"/>
			</g>
		</g>
		<g>
			<g>
				<path class="st8" d="M59.1,32.9h1.4v-2.3c0-1.4,1.1-2.1,2.1-2.1c0.4,0,0.8,0.1,1.4,0.4l-0.4,1c0,0-0.4-0.3-0.8-0.3
					c-0.7,0-1,0.4-1,1.1v2.2h1.7V34h-1.7v5.6h-1.2V34h-1.4V32.9z"/>
				<path class="st8" d="M72.1,36.3c0,2-1.5,3.5-3.4,3.5s-3.4-1.5-3.4-3.5c0-2,1.5-3.5,3.4-3.5S72.1,34.3,72.1,36.3z M70.9,36.3
					c0-1.3-0.9-2.4-2.2-2.4s-2.2,1.1-2.2,2.4c0,1.3,0.9,2.4,2.2,2.4S70.9,37.6,70.9,36.3z"/>
				<path class="st8" d="M78.6,32.9L78.1,34c0,0-0.3-0.1-0.8-0.1c-1.1,0-1.5,1.1-1.5,1.1v4.6h-1.2v-6.7h1.1v1c0,0,0.6-1.2,1.9-1.2
					C78.2,32.7,78.6,32.9,78.6,32.9z"/>
				<path class="st8" d="M90.1,35.3v4.3h-1.2v-4.1c0-1.1-0.6-1.6-1.4-1.6c-1,0-1.4,1.1-1.4,1.1v4.7h-1.2v-4.1c0-1.1-0.6-1.6-1.4-1.6
					c-1,0-1.4,1.1-1.4,1.1v4.7h-1.2v-6.7h1.1v1c0,0,0.5-1.2,1.9-1.2c1.7,0,2.1,1.2,2.1,1.2s0.5-1.2,2-1.2
					C89.2,32.7,90.1,33.6,90.1,35.3z"/>
				<path class="st8" d="M99.2,36.3c0,0.1,0,0.2,0,0.4h-5.4c0.1,1,1,2,2.3,2c1.3,0,2-1,2-1l0.8,0.8c0,0-1,1.3-2.8,1.3
					c-2,0-3.5-1.5-3.5-3.5c0-2,1.3-3.5,3.3-3.5C97.8,32.7,99.2,34.1,99.2,36.3z M98,35.7c0-0.8-0.7-1.8-2.1-1.8
					c-1.4,0-2,1.1-2.1,1.8H98z"/>
				<path class="st8" d="M105.7,32.9l-0.4,1.1c0,0-0.3-0.1-0.8-0.1c-1.1,0-1.5,1.1-1.5,1.1v4.6h-1.2v-6.7h1.1v1c0,0,0.6-1.2,1.9-1.2
					C105.3,32.7,105.7,32.9,105.7,32.9z"/>
				<path class="st8" d="M108.1,28.7h1.2v10.9h-1.2V28.7z"/>
				<path class="st8" d="M112.6,41.6c0,0,0.4,0.3,0.8,0.3c0.5,0,0.8-0.4,1-1l0.5-1.3l-3.1-6.7h1.4l2.3,5.3l2-5.3h1.3
					c0,0-3.4,8.5-3.5,8.8c-0.4,1-1.1,1.3-1.9,1.3c-0.8,0-1.4-0.5-1.4-0.5L112.6,41.6z"/>
			</g>
			<g>
				<g>
					<polygon class="st8" points="172.5,33.1 172.5,29.8 167.9,29.8 164.2,29.8 164.2,41.5 167.9,41.5 172.5,41.5 172.5,38.2 
						167.9,38.2 167.9,37.1 172.3,37.1 172.3,34.2 167.9,34.2 167.9,33.1 					"/>
					<polygon class="st8" points="158.6,29.8 158.6,35.1 154.8,29.8 151.1,29.8 151.1,41.5 154.8,41.5 154.8,36.2 158.6,41.5 
						158.6,41.5 162.4,41.5 162.4,29.8 					"/>
					<polygon class="st8" points="140.7,29.8 138.4,36 136.2,29.8 132.2,29.8 136.4,41.5 136.5,41.5 140.4,41.5 140.4,41.5 
						144.7,29.8 					"/>
					<rect x="145.5" y="29.8" class="st8" width="3.8" height="11.7"/>
				</g>
				<path class="st8" d="M127.5,29.8l-2.6,1.9V34h2.4v7.5h4.2V29.8H127.5z M125.6,32.2l3-0.9l-3,1.8V32.2z M128,35.2l0.7,1.5L128,39
					V35.2z M128,33.8l2.4-2.4l-1.4,4.4L128,33.8z M129.1,37.6l1.5,3.2h-2.5L129.1,37.6z M129.4,36.7l1.4-4.3v7.3L129.4,36.7z
					 M127.7,30.5h1.1L127,31L127.7,30.5z M126.5,33.3l2.4-1.5l-1.5,1.5H126.5z"/>
			</g>
		</g>
	</g>
	<g class="st12">
		<defs>
			<rect id="SVGID_00000057128682298240487880000004321387136629666219_" y="119" class="st12" width="1920" height="1024"/>
		</defs>
		<clipPath id="SVGID_00000058584755928263138240000015011808770894040465_">
			<use xlink:href="#SVGID_00000057128682298240487880000004321387136629666219_"  style="overflow:visible;"/>
		</clipPath>
		<g style="clip-path:url(#SVGID_00000058584755928263138240000015011808770894040465_);">
			<g class="st14">
				<path class="st15" d="M43.5,0.7c0-1,1.2-0.8,2-1C45.5,0.6,44.2,0.4,43.5,0.7z"/>
				<path class="st15" d="M102.1,1.7c-0.5-0.5,0.7-1.3,1-1C103.6,1.2,102.4,2,102.1,1.7z"/>
				<path class="st15" d="M128.4,2.7c-0.5-0.5,0.7-1.3,1-1C129.9,2.2,128.6,3,128.4,2.7z"/>
				<path class="st15" d="M126.3,4.7c-0.5-0.5,0.7-1.3,1-1C127.9,4.2,126.6,5,126.3,4.7z"/>
				<path class="st15" d="M48.5,6.7c-0.5-0.5,0.7-1.3,1-1C50,6.2,48.8,7,48.5,6.7z"/>
				<path class="st15" d="M89.9,7.7c-0.5-0.5,0.7-1.3,1-1C91.5,7.3,90.2,8,89.9,7.7z"/>
				<path class="st15" d="M93,7.7c-0.5-0.5,0.7-1.3,1-1C94.5,7.3,93.3,8,93,7.7z"/>
				<path class="st15" d="M126.3,7.7c0.3-1.3,2-1,2,0C127.5,8.4,126.5,9,126.3,7.7z"/>
				<path class="st15" d="M165.7,8.8c-0.5-0.5,0.7-1.3,1-1C167.3,8.3,166,9,165.7,8.8z"/>
				<path class="st15" d="M65.7,9.8c-0.5-0.5,0.7-1.3,1-1C67.2,9.3,66,10,65.7,9.8z"/>
				<path class="st15" d="M86.9,9.8c-0.5-0.5,0.7-1.3,1-1C88.4,9.3,87.2,10,86.9,9.8z"/>
				<path class="st15" d="M166.8,11.8c-0.5-0.5,0.7-1.3,1-1C168.3,11.3,167,12.1,166.8,11.8z"/>
				<path class="st15" d="M2,15.8c-0.5-0.5,0.7-1.3,1-1C3.6,15.3,2.3,16.1,2,15.8z"/>
				<path class="st15" d="M74.8,15.8c-0.5-0.5,0.7-1.3,1-1C76.3,15.3,75.1,16.1,74.8,15.8z"/>
				<path class="st15" d="M102.1,15.8c-0.5-0.5,0.7-1.3,1-1C103.6,15.3,102.4,16.1,102.1,15.8z"/>
				<path class="st15" d="M115.2,16.8c-0.5-0.5,0.7-1.3,1-1C116.7,16.3,115.5,17.1,115.2,16.8z"/>
				<path class="st15" d="M76.8,17.8c-0.5-0.5,0.7-1.3,1-1C78.3,17.4,77.1,18.1,76.8,17.8z"/>
				<path class="st15" d="M29.3,18.9c-0.5-0.5,0.7-1.3,1-1C30.8,18.4,29.6,19.1,29.3,18.9z"/>
				<path class="st15" d="M126.3,18.9c0.3-1.3,2-1,2,0C127.5,19.5,126.5,20.1,126.3,18.9z"/>
				<path class="st15" d="M168.8,19.9c-0.5-0.5,0.7-1.3,1-1C170.3,19.4,169.1,20.1,168.8,19.9z"/>
				<path class="st15" d="M33.3,20.9c-0.5-0.5,0.7-1.3,1-1C34.9,20.4,33.6,21.2,33.3,20.9z"/>
				<path class="st15" d="M115.2,22.9c-0.5-0.5,0.7-1.3,1-1C116.7,22.4,115.5,23.2,115.2,22.9z"/>
				<path class="st15" d="M53.6,23.9c-0.5-0.5,0.7-1.3,1-1C55.1,23.4,53.8,24.2,53.6,23.9z"/>
				<path class="st15" d="M105.1,24.9c-0.5-0.5,0.7-1.3,1-1C106.6,24.4,105.4,25.2,105.1,24.9z"/>
				<path class="st15" d="M109.1,24.9c-0.5-0.5,0.7-1.3,1-1C110.7,24.4,109.4,25.2,109.1,24.9z"/>
				<path class="st15" d="M34.4,25.9c-0.5-0.5,0.7-1.3,1-1C35.9,25.4,34.6,26.2,34.4,25.9z"/>
				<path class="st15" d="M57.6,25.9c-0.5-0.5,0.7-1.3,1-1C59.1,25.4,57.9,26.2,57.6,25.9z"/>
				<path class="st15" d="M8.1,26.9c-0.5-0.5,0.7-1.3,1-1C9.6,26.5,8.4,27.2,8.1,26.9z"/>
				<path class="st15" d="M104.1,28C106.7,24.5,106.5,33.2,104.1,28L104.1,28z"/>
				<path class="st15" d="M162.7,29c-0.5-0.5,0.7-1.3,1-1C164.2,28.5,163,29.2,162.7,29z"/>
				<path class="st15" d="M156.7,30c-0.5-0.5,0.7-1.3,1-1C158.2,29.5,156.9,30.3,156.7,30z"/>
				<path class="st15" d="M120.3,31c-0.5-0.5,0.7-1.3,1-1C121.8,30.5,120.5,31.3,120.3,31z"/>
				<path class="st15" d="M29.3,33c-0.5-0.5,0.7-1.3,1-1C30.8,32.5,29.6,33.3,29.3,33z"/>
				<path class="st15" d="M47.5,33c-0.5-0.5,0.7-1.3,1-1C49,32.5,47.8,33.3,47.5,33z"/>
				<path class="st15" d="M156.7,33c-0.5-0.5,0.7-1.3,1-1C158.2,32.5,156.9,33.3,156.7,33z"/>
				<path class="st15" d="M52.6,37.1c-3-0.7,1-2.2,0-4C55.1,33.2,52.8,36.4,52.6,37.1z"/>
				<path class="st15" d="M126.3,35c-1.1,2.6-4.5,2.9-8.1,3C119.1,34.5,123.2,33.6,126.3,35z"/>
				<path class="st15" d="M170.8,35c-0.5-0.5,0.7-1.3,1-1C172.3,34.5,171.1,35.3,170.8,35z"/>
				<path class="st15" d="M81.9,36c-0.5-0.5,0.7-1.3,1-1C83.4,35.6,82.1,36.3,81.9,36z"/>
				<path class="st15" d="M36.4,37.1c-0.5-0.5,0.7-1.3,1-1C37.9,36.6,36.7,37.3,36.4,37.1z"/>
				<path class="st15" d="M9.1,39.1c-0.5-0.5,0.7-1.3,1-1C10.6,38.6,9.4,39.3,9.1,39.1z"/>
				<path class="st15" d="M131.4,39.1c-0.5-0.5,0.7-1.3,1-1C132.9,38.6,131.7,39.3,131.4,39.1z"/>
				<path class="st15" d="M29.3,41.1c-0.5-0.5,0.7-1.3,1-1C30.8,40.6,29.6,41.4,29.3,41.1z"/>
				<path class="st15" d="M4,42.1c-0.5-0.5,0.7-1.3,1-1C5.6,41.6,4.3,42.4,4,42.1z"/>
				<path class="st15" d="M72.8,42.1c-0.5-0.5,0.7-1.3,1-1C74.3,41.6,73,42.4,72.8,42.1z"/>
				<path class="st15" d="M76.8,42.1c-0.5-0.5,0.7-1.3,1-1C78.3,41.6,77.1,42.4,76.8,42.1z"/>
				<path class="st15" d="M13.1,43.1c-0.5-0.5,0.7-1.3,1-1C14.7,42.6,13.4,43.4,13.1,43.1z"/>
				<path class="st15" d="M27.3,43.1c-0.5-0.5,0.7-1.3,1-1C28.8,42.6,27.6,43.4,27.3,43.1z"/>
				<path class="st15" d="M55.6,43.1c-0.5-0.5,0.7-1.3,1-1C57.1,42.6,55.9,43.4,55.6,43.1z"/>
				<path class="st15" d="M137.5,43.1c-0.5-0.5,0.7-1.3,1-1C139,42.6,137.7,43.4,137.5,43.1z"/>
				<path class="st15" d="M160.7,43.1c0-1,1.2-0.8,2-1C162.7,43.1,161.5,42.9,160.7,43.1z"/>
				<path class="st15" d="M102.1,45.1c0.2-1.3,2-1,2,0C103.7,46.6,103.2,45,102.1,45.1z"/>
				<path class="st15" d="M115.2,11.8C112.5,8.7,118.3,14.5,115.2,11.8L115.2,11.8z"/>
				<path class="st15" d="M53.6,14.8c0.1-0.2,0.3-2.9,1-2C55.4,13.8,52.1,17.7,53.6,14.8z"/>
				<path class="st15" d="M117.2,23.9c2.3-3.9-0.4,2.7-1,2C115.4,24.9,117.1,24.1,117.2,23.9z"/>
				<path class="st15" d="M49.5,35C52.6,32.3,46.8,38.1,49.5,35L49.5,35z"/>
				<path class="st15" d="M39.4,39.1C42.5,36.3,36.7,42.1,39.4,39.1L39.4,39.1z"/>
				<path class="st15" d="M163.7,45.1C161,42.1,166.8,47.9,163.7,45.1L163.7,45.1z"/>
			</g>
		</g>
	</g>
</g>
<g id="Layer_2">
</g>
</svg>
