<?xml version="1.0" encoding="utf-8"?>
<!-- Generator: Adobe Illustrator 27.5.0, SVG Export Plug-In . SVG Version: 6.00 Build 0)  -->
<svg version="1.1" id="Layer_1" xmlns="http://www.w3.org/2000/svg" xmlns:xlink="http://www.w3.org/1999/xlink" x="0px" y="0px"
	 viewBox="0 0 2000 440" style="enable-background:new 0 0 2000 440;" xml:space="preserve">
<style type="text/css">
	.st0{opacity:0.25;}
	.st1{fill:none;stroke:#000000;stroke-width:10;stroke-miterlimit:10;}
	.st2{fill:#FFFFFF;}
</style>
<g>
	<g>
		<path class="st2" d="M454.9,346.3c-0.7-0.8-1.8-1.7-3.2-2.6c-1.4-0.9-3-1.8-4.9-2.6c-1.9-0.8-3.9-1.5-6.2-2
			c-2.2-0.5-4.5-0.8-6.9-0.8c-5.2,0-9.1,1-11.5,2.9c-2.5,1.9-3.7,4.6-3.7,7.9c0,1.9,0.4,3.5,1.2,4.7c0.8,1.2,2,2.3,3.6,3.2
			c1.6,0.9,3.6,1.7,6.1,2.4c2.4,0.7,5.3,1.5,8.5,2.3c4,1,7.6,2,10.7,3.2c3.2,1.2,5.9,2.6,8.1,4.3c2.2,1.7,3.9,3.8,5.1,6.2
			c1.2,2.5,1.8,5.5,1.8,9c0,4-0.8,7.4-2.3,10.3c-1.5,2.9-3.6,5.2-6.2,7c-2.6,1.8-5.6,3.1-9.1,4c-3.5,0.8-7.2,1.3-11.1,1.3
			c-6,0-11.7-0.9-17.3-2.7c-5.6-1.8-10.6-4.4-15-7.9l5.6-10.6c1,1,2.3,2,4.1,3.2c1.8,1.2,3.9,2.3,6.3,3.3c2.4,1,5,1.8,7.8,2.5
			c2.8,0.7,5.7,1,8.7,1c4.9,0,8.6-0.8,11.2-2.5c2.6-1.7,4-4.2,4-7.5c0-2-0.5-3.6-1.5-5c-1-1.3-2.4-2.5-4.2-3.5
			c-1.8-1-4.1-1.9-6.7-2.7c-2.6-0.8-5.7-1.7-9-2.5c-3.9-1-7.3-2.1-10.2-3.3c-2.9-1.1-5.3-2.5-7.2-4.1c-1.9-1.6-3.4-3.5-4.4-5.7
			c-1-2.2-1.5-4.8-1.5-7.9c0-3.8,0.7-7.2,2.2-10.2c1.5-3,3.5-5.5,6-7.5c2.5-2,5.5-3.5,9-4.6c3.5-1,7.2-1.5,11.2-1.5
			c5.3,0,10.2,0.8,14.7,2.5c4.5,1.7,8.4,3.8,11.8,6.3L454.9,346.3z"/>
		<path class="st2" d="M627.6,406.7c-5.6,0-10.7-1.1-15.3-3.4c-4.6-2.2-8.5-5.2-11.9-8.9c-3.3-3.7-5.9-8-7.7-12.7
			c-1.8-4.8-2.7-9.7-2.7-14.7c0-5.2,1-10.2,2.9-15c1.9-4.8,4.5-9,7.9-12.7c3.3-3.7,7.3-6.6,11.9-8.8c4.6-2.2,9.6-3.3,15-3.3
			c5.6,0,10.7,1.2,15.3,3.5c4.6,2.3,8.5,5.3,11.8,9.1c3.3,3.7,5.8,8,7.6,12.7c1.8,4.7,2.7,9.6,2.7,14.5c0,5.2-0.9,10.2-2.8,15
			c-1.9,4.8-4.5,9-7.9,12.6c-3.4,3.6-7.4,6.5-12,8.7C637.9,405.6,632.9,406.7,627.6,406.7z M602.6,367c0,3.7,0.6,7.2,1.8,10.7
			c1.2,3.5,2.8,6.5,5,9.2c2.2,2.6,4.8,4.8,7.9,6.3c3.1,1.6,6.5,2.4,10.4,2.4c4,0,7.5-0.8,10.5-2.5c3-1.7,5.6-3.8,7.8-6.6
			c2.1-2.7,3.7-5.8,4.9-9.1c1.1-3.4,1.7-6.8,1.7-10.4c0-3.7-0.6-7.3-1.8-10.7c-1.2-3.4-2.8-6.4-5-9c-2.2-2.6-4.8-4.7-7.8-6.3
			c-3.1-1.6-6.4-2.4-10.2-2.4c-4,0-7.5,0.8-10.6,2.5c-3.1,1.7-5.7,3.8-7.8,6.4c-2.1,2.6-3.8,5.7-4.9,9.1
			C603.2,360,602.6,363.5,602.6,367z"/>
		<path class="st2" d="M797,406.2v-78.3h12.3v67.4h42v10.9H797z"/>
		<path class="st2" d="M1008.2,395.6c4.1,0,7.5-0.8,10.3-2.4c2.7-1.6,4.9-3.7,6.6-6.3c1.7-2.6,2.8-5.6,3.5-8.9c0.7-3.3,1-6.8,1-10.3
			v-39.7h12.5v39.7c0,5.4-0.6,10.4-1.9,15.2c-1.3,4.7-3.2,8.9-6,12.5c-2.7,3.6-6.2,6.4-10.5,8.4c-4.3,2.1-9.5,3.1-15.5,3.1
			c-6.2,0-11.5-1.1-15.8-3.3c-4.3-2.2-7.8-5.1-10.4-8.7c-2.6-3.6-4.6-7.8-5.7-12.5c-1.2-4.7-1.8-9.6-1.8-14.7v-39.7h12.3v39.7
			c0,3.6,0.3,7.1,1,10.4c0.7,3.3,1.9,6.3,3.5,8.9c1.7,2.6,3.9,4.7,6.6,6.3C1000.8,394.8,1004.2,395.6,1008.2,395.6z"/>
		<path class="st2" d="M1235,338.8h-26v67.4h-12.5v-67.4h-26.1v-10.9h64.6V338.8z"/>
		<path class="st2" d="M1364.5,406.2v-78.3h12.3v78.3H1364.5z"/>
		<path class="st2" d="M1546.1,406.7c-5.6,0-10.7-1.1-15.3-3.4c-4.6-2.2-8.5-5.2-11.9-8.9c-3.3-3.7-5.9-8-7.7-12.7
			c-1.8-4.8-2.7-9.7-2.7-14.7c0-5.2,1-10.2,2.9-15c1.9-4.8,4.5-9,7.9-12.7c3.3-3.7,7.3-6.6,11.9-8.8c4.6-2.2,9.6-3.3,15-3.3
			c5.6,0,10.7,1.2,15.3,3.5c4.6,2.3,8.5,5.3,11.8,9.1c3.3,3.7,5.8,8,7.6,12.7c1.8,4.7,2.7,9.6,2.7,14.5c0,5.2-0.9,10.2-2.8,15
			c-1.9,4.8-4.5,9-7.9,12.6c-3.4,3.6-7.4,6.5-12,8.7C1556.5,405.6,1551.5,406.7,1546.1,406.7z M1521.2,367c0,3.7,0.6,7.2,1.8,10.7
			c1.2,3.5,2.8,6.5,5,9.2c2.2,2.6,4.8,4.8,7.9,6.3c3.1,1.6,6.5,2.4,10.4,2.4c4,0,7.5-0.8,10.5-2.5c3-1.7,5.6-3.8,7.8-6.6
			c2.1-2.7,3.7-5.8,4.9-9.1c1.1-3.4,1.7-6.8,1.7-10.4c0-3.7-0.6-7.3-1.8-10.7c-1.2-3.4-2.8-6.4-5-9c-2.2-2.6-4.8-4.7-7.8-6.3
			c-3.1-1.6-6.4-2.4-10.2-2.4c-4,0-7.5,0.8-10.6,2.5c-3.1,1.7-5.7,3.8-7.8,6.4c-2.1,2.6-3.8,5.7-4.9,9.1
			C1521.8,360,1521.2,363.5,1521.2,367z"/>
		<path class="st2" d="M1727.9,351.1v55.1h-12.3v-78.3h9.7l44.8,56.4V328h12.5v78.2h-10.3L1727.9,351.1z"/>
		<path class="st2" d="M1941.2,346.3c-0.7-0.8-1.8-1.7-3.2-2.6c-1.4-0.9-3-1.8-4.9-2.6c-1.9-0.8-3.9-1.5-6.2-2
			c-2.2-0.5-4.5-0.8-6.9-0.8c-5.2,0-9.1,1-11.5,2.9c-2.5,1.9-3.7,4.6-3.7,7.9c0,1.9,0.4,3.5,1.2,4.7c0.8,1.2,2,2.3,3.6,3.2
			c1.6,0.9,3.6,1.7,6.1,2.4c2.4,0.7,5.3,1.5,8.5,2.3c4,1,7.6,2,10.7,3.2c3.2,1.2,5.9,2.6,8.1,4.3c2.2,1.7,3.9,3.8,5.1,6.2
			c1.2,2.5,1.8,5.5,1.8,9c0,4-0.8,7.4-2.3,10.3c-1.5,2.9-3.6,5.2-6.2,7c-2.6,1.8-5.6,3.1-9.1,4c-3.5,0.8-7.2,1.3-11.1,1.3
			c-6,0-11.7-0.9-17.3-2.7c-5.6-1.8-10.6-4.4-15-7.9l5.6-10.6c1,1,2.3,2,4.1,3.2c1.8,1.2,3.9,2.3,6.3,3.3c2.4,1,5,1.8,7.8,2.5
			c2.8,0.7,5.7,1,8.7,1c4.9,0,8.6-0.8,11.2-2.5c2.6-1.7,4-4.2,4-7.5c0-2-0.5-3.6-1.5-5c-1-1.3-2.4-2.5-4.2-3.5
			c-1.8-1-4.1-1.9-6.7-2.7c-2.6-0.8-5.7-1.7-9-2.5c-3.9-1-7.3-2.1-10.2-3.3c-2.9-1.1-5.3-2.5-7.2-4.1c-1.9-1.6-3.4-3.5-4.4-5.7
			c-1-2.2-1.5-4.8-1.5-7.9c0-3.8,0.7-7.2,2.2-10.2c1.5-3,3.5-5.5,6-7.5c2.5-2,5.5-3.5,9-4.6c3.5-1,7.2-1.5,11.2-1.5
			c5.3,0,10.2,0.8,14.7,2.5c4.5,1.7,8.4,3.8,11.8,6.3L1941.2,346.3z"/>
	</g>
	<g>
		<g>
			<g>
				<path class="st2" d="M382,273.3h36.5V49.9H382v-12h108.9c25,0,45,5.5,60,16.5c15,11,22.5,27.2,22.5,48.7
					c0,19.1-5.7,33.4-17.1,42.9c-11.4,9.5-27.8,15-49.3,16.7c14,1.1,25.1,3.9,33.2,8.3c8.2,4.5,14.3,10,18.4,16.7
					c4.1,6.7,6.8,13.9,8.1,21.5c1.3,7.6,2,15.2,2.1,22.8c0.1,7.5,0.3,14.4,0.6,20.7c0.3,6.3,1.4,11.3,3.3,15
					c1.9,3.7,5.5,5.6,10.6,5.6H595v12h-23.3c-11,0-19.3-2.1-24.9-6.4c-5.6-4.2-9.5-9.8-11.5-16.7c-2.1-6.9-3.3-14.6-3.7-22.9
					c-0.4-8.4-0.8-16.7-1.2-25c-0.4-8.3-1.8-15.9-4-22.9c-2.2-6.9-6.2-12.5-11.9-16.7c-5.7-4.2-14.1-6.4-25.2-6.4h-39.6v104.9h36.5
					v12H382V273.3z M490.9,49.9h-41.2v106.6h41.2c15.7,0,27.9-4.4,36.6-13.3c8.7-8.9,13-22.2,13-40.2c0-18-4.3-31.4-13-40.1
					C518.9,54.2,506.6,49.9,490.9,49.9z"/>
				<path class="st2" d="M624.9,273.3h28.7l85.1-240.2h12.4l83.3,240.2h27.9v12h-95.7v-12h31.5L778,210.6h-88.9l-21.8,62.7h30.2v12
					h-72.6V273.3z M735.1,78.1l-41.7,120.4H774L735.1,78.1z"/>
				<path class="st2" d="M978,248.5l69.1-198.7H1009v-12h80.4v12h-28.5l-85.3,240.2h-14.4L877.8,49.9h-27.4v-12h95.7v12H914
					L978,248.5z"/>
				<path class="st2" d="M1228.3,193.4c0-11.1-2.6-18.9-7.8-23.3c-5.2-4.5-12.5-6.7-21.9-6.7H1179v109.9h52.6
					c15.1,0,26.6-2.3,34.7-6.8c8.1-4.6,13.7-11.4,16.7-20.6c3.1-9.2,4.6-20.8,4.6-34.7h12v74.2h-182v-12h29.9V49.9h-29.9v-12h178.9
					v67.6h-12.2c0-11.8-1.4-21.8-4.3-30.1c-2.9-8.3-7.9-14.6-15-19c-7.2-4.3-17.2-6.5-30-6.5H1179v101.5h19.6c9.3,0,16.6-2,21.9-6.1
					c5.2-4.1,7.8-11.6,7.8-22.6h12.2v70.8H1228.3z"/>
				<path class="st2" d="M1333.1,273.3h34.8V49.9h-34.8v-12h76.6l116.5,195.7V49.9h-36.5v-12h83.8v12h-34.8v238.8h-17L1380.4,52.5
					v220.8h38.1v12h-85.5V273.3z"/>
				<path class="st2" d="M1798.5,217.7v67.6H1788l-13.2-18.5c-7.9,6.8-17.3,12.2-28,16c-10.8,3.8-22.3,5.8-34.6,5.8
					c-22.3,0-41.9-5.5-58.7-16.5c-16.8-11-29.9-26.1-39.3-45.2c-9.4-19.1-14-40.9-14-65.3c0-24.5,4.7-46.3,14-65.4
					c9.3-19.1,22.4-34.1,39.3-45.1c16.8-11,36.4-16.5,58.7-16.5c10.7,0,21.1,1.8,31.2,5.5c10.1,3.7,19.1,8.8,26.9,15.3l14.5-17.5
					h10.6v67.6H1783c-1.1-12.4-4.9-22.9-11.3-31.4c-6.4-8.5-14.6-15-24.4-19.4c-9.8-4.4-20.5-6.6-31.9-6.6
					c-14.3,0-26.4,3.1-36.4,9.2c-10,6.1-17.9,14.5-23.9,25.1c-6,10.6-10.4,22.7-13.1,36.4c-2.8,13.6-4.1,27.9-4.1,42.9
					c0,15,1.4,29.3,4.1,42.9c2.7,13.6,7.1,25.8,13.1,36.4c6,10.6,14,19,23.9,25.1c10,6.1,22.1,9.2,36.4,9.2c20.5,0,37-5.4,49.7-16.1
					c12.6-10.7,19.8-24.5,21.4-41.3H1798.5z"/>
				<path class="st2" d="M1842.8,273.3h36.5V49.9h-36.5v-12H1950v12h-39.6v223.4h39.6v12h-107.2V273.3z"/>
			</g>
		</g>
		<g>
			<path class="st2" d="M338.6,37.8H50c0,0,10.7,33.8,60.1,29.6s117-3.2,148.9,9.7c-13.1,1.7-93.4,5.4-93.4,5.4
				s43.2,40.5,107.3,17.3c-3.4,9-7,17.2-35.8,32.5c12.2,6.9,28.5,14.4,66.5-17.4c0.2,5.5,1.4,12.6-25.5,43.7
				c13.2-0.4,34.6-1.8,56.6-31.8l22,34.4V87.5l-5.5-12c0,0-4.7-7,5.5-11.1v-5.3h-15.4l0.9,5.7l-7.4-4.2c-1.3-0.8-2-2.3-1.7-3.8
				C333.9,52.2,336.1,42.4,338.6,37.8z"/>
			<g>
				<polygon class="st2" points="356.6,285.3 347,274.8 352.3,169.1 356.7,174.3 				"/>
				<path class="st2" d="M328.9,143.8l-37.1,59c-2.5,4-2.1,9.3,1.1,12.8l12.7,13.9l28.6-79.9L328.9,143.8z"/>
				<path class="st2" d="M346,165.3L340.8,268l-17.7-19.5c-5.3-5.8-6.9-14-4.3-21.4l24.3-67.9l0.9,1
					C345.4,161.6,346.1,163.4,346,165.3z"/>
			</g>
		</g>
	</g>
</g>
</svg>
