<?xml version="1.0" encoding="UTF-8"?>
<svg id="Layer_1" data-name="Layer 1" xmlns="http://www.w3.org/2000/svg" viewBox="0 0 1000 190">
  <defs>
    <style>
      .cls-1, .cls-2 {
        stroke-width: 0px;
      }

      .cls-2 {
        fill: #bfbfbf;
      }
    </style>
  </defs>
  <g>
    <path class="cls-2" d="M249.6,30.59s-15.15,19.26-59.98,25.81c-44.83,6.55-45.73,10.67-45.73,10.67.95,1.66,1.74,5.27,2.07,6.96.11.55-.15,1.1-.63,1.38l-2.71,1.54.34-2.1h-11.3l.34,2.1-2.71-1.54c-.48-.28-.74-.83-.63-1.38.33-1.7,1.12-5.3,2.07-6.96,0,0-.9-4.12-45.73-10.67-44.83-6.55-59.98-25.81-59.98-25.81,0,0-2.37,29.74,70.21,42.56-22.27-1.39-48.2-5.74-48.2-5.74,0,0,9.36,17.04,54.5,14.08-13.17,3.46-33.8,4.66-33.8,4.66,0,0,12.16,12,38.91,3.69-4.33,2.4-15.59,8.58-15.59,8.58,0,0,8.89,8.59,26.81-3.08-3.73,5.65-10.58,11.36-10.58,11.36,0,0,8.98,5.52,21.96-7l8.07,12.58,8.07-12.58c12.97,12.52,21.96,7,21.96,7,0,0-6.85-5.71-10.58-11.36,17.93,11.67,26.81,3.08,26.81,3.08,0,0-11.27-6.17-15.59-8.58,26.75,8.31,38.91-3.69,38.91-3.69,0,0-20.63-1.2-33.8-4.66,45.13,2.96,54.5-14.08,54.5-14.08,0,0-25.92,4.35-48.2,5.74,72.58-12.82,70.21-42.56,70.21-42.56ZM139.32,80.86l-2.02,4.4-2.02-4.4s-1.74-2.57,2.02-4.06c3.76,1.49,2.02,4.06,2.02,4.06Z"/>
    <g>
      <path class="cls-1" d="M143.89,67.07c.95,1.66,1.74,5.27,2.07,6.96.11.55-.15,1.1-.63,1.38l-2.71,1.54.34-2.1h-11.3l.34,2.1-2.71-1.54c-.48-.28-.74-.83-.63-1.38.33-1.7,1.12-5.3,2.07-6.96H25.01s3.93,12.4,22,10.86c18.06-1.54,42.85-1.18,54.52,3.56-4.79.62-34.2,1.99-34.2,1.99,0,0,15.82,14.83,39.31,6.35-1.23,3.28-2.56,6.31-13.12,11.89,4.45,2.52,10.44,5.28,24.34-6.39.08,2.02.51,4.62-9.36,16,4.84-.16,12.66-.66,20.73-11.64l8.07,12.58,8.07-12.58c8.07,10.98,15.89,11.48,20.73,11.64-9.87-11.37-9.44-13.97-9.36-16,13.9,11.67,19.88,8.91,24.34,6.39-10.56-5.57-11.88-8.6-13.12-11.89,23.5,8.48,39.31-6.35,39.31-6.35,0,0-29.41-1.37-34.2-1.99,11.66-4.74,36.45-5.1,54.52-3.56,18.06,1.54,22-10.86,22-10.86h-105.71ZM139.32,80.86l-2.02,4.4-2.02-4.4s-1.74-2.57,2.02-4.06c3.76,1.49,2.02,4.06,2.02,4.06Z"/>
      <polygon class="cls-1" points="137.3 117.02 135.73 115.14 133.79 153.84 137.3 157.71 137.3 157.69 137.3 157.71 140.81 153.84 138.88 115.14 137.3 117.02"/>
      <path class="cls-1" d="M147.44,105.86l-1.96,2.13,10.46,29.27,4.65-5.1c1.18-1.29,1.35-3.21.42-4.69l-13.57-21.6Z"/>
      <path class="cls-1" d="M142.23,111.51l-.34.37c-.47.51-.72,1.19-.68,1.89l1.88,37.61,6.47-7.14c1.93-2.13,2.52-5.14,1.56-7.84l-8.89-24.88Z"/>
      <path class="cls-1" d="M127.17,105.86l-13.57,21.6c-.93,1.48-.76,3.4.42,4.69l4.65,5.1,10.46-29.27-1.96-2.13Z"/>
      <path class="cls-1" d="M132.38,111.51l-8.89,24.88c-.97,2.7-.37,5.71,1.56,7.84l6.47,7.14,1.88-37.61c.03-.7-.21-1.38-.68-1.89l-.34-.37Z"/>
    </g>
  </g>
  <g>
    <path class="cls-1" d="M371.83,35.41l-41.39,113.14-21.83-38.42c17.27-5.64,26.16-19.15,26.16-35.05,0-22.23-15.56-39.67-46-39.67h-32.5c-.9,4.13-3.26,10.15-9.3,16.59-1.95,2.07-4.09,4.12-6.58,5.95-.67.49-2.73,1.91-2.73,1.91h21.79s-.97,10.73-8.49,17.87c-3.37,3.2-9.21,7.08-18.62,7.51v71.24h37.96v-43.43h.17l22.74,43.43h74.16l5.98-18.3h40.35l5.98,18.3h40.01l-44.12-121.06h-43.77ZM285.36,87.73h-15.05v-20.52h15.05c7.18,0,10.94,4.1,10.94,10.26,0,7.18-3.76,10.26-10.94,10.26ZM382.6,109.62l10.94-33.69,10.94,33.69h-21.89Z"/>
    <polygon class="cls-1" points="506.3 118.68 481.33 35.41 440.98 35.41 481.67 156.47 530.75 156.47 571.45 35.41 531.09 35.41 506.3 118.68"/>
    <polygon class="cls-1" points="580 156.47 660.71 156.47 660.71 126.2 617.96 126.2 617.96 109.1 655.58 109.1 655.58 80.55 617.96 80.55 617.96 65.67 660.71 65.67 660.71 35.41 580 35.41 580 156.47"/>
    <polygon class="cls-1" points="753.22 97.31 713.03 35.41 675.07 35.41 675.07 156.47 713.03 156.47 713.03 95.6 753.22 156.47 791.18 156.47 791.18 35.41 753.22 35.41 753.22 97.31"/>
    <path class="cls-1" d="M864.02,69.26c8.55,0,15.73,4.62,19.32,12.65h40.01c-4.96-28.56-26.67-47.71-58.65-47.71-37.11,0-59.85,25.48-59.85,61.56s22.74,61.56,59.85,61.56c31.98,0,53.69-19.15,58.65-47.71h-40.01c-3.59,8.04-10.77,12.65-19.32,12.65-12.83,0-20.69-10.43-20.69-26.5s7.87-26.5,20.69-26.5Z"/>
    <rect class="cls-1" x="937.04" y="35.41" width="37.96" height="121.06"/>
  </g>
  <g>
    <path class="cls-1" d="M84.3,54.09c.11-2.7.25-5.13.41-7.2h105.21c.16,2.07.3,4.5.41,7.19,3.33-.51,6.49-1.08,9.49-1.72-.43-9.25-1.28-15.03-1.28-15.03h-122.47s-.85,5.78-1.28,15.03c3,.64,6.17,1.22,9.5,1.72Z"/>
    <path class="cls-1" d="M187.99,94.88c-.08.46-.14.91-.22,1.37-3,17.29-8.39,32.02-16,43.79-4.4,6.79-9.6,12.67-15.47,17.46-5.61,4.58-11.99,8.3-18.99,11.07-6.97-2.76-13.31-6.45-18.9-11-5.85-4.76-11.05-10.6-15.44-17.34-7.61-11.7-13.01-26.35-16.05-43.53-.11-.61-.2-1.21-.3-1.81-3.88-.18-7.18-.81-9.93-1.64,4.86,33.11,19.7,71.3,60.61,85.52,40.91-14.22,55.75-52.4,60.61-85.52-2.75.83-6.05,1.46-9.93,1.64Z"/>
  </g>
</svg>