<?xml version="1.0" encoding="utf-8"?>
<!-- Generator: Adobe Illustrator 27.7.0, SVG Export Plug-In . SVG Version: 6.00 Build 0)  -->
<svg version="1.1" xmlns="http://www.w3.org/2000/svg" xmlns:xlink="http://www.w3.org/1999/xlink" x="0px" y="0px"
	 viewBox="0 0 175 45" style="enable-background:new 0 0 175 45;" xml:space="preserve">
<style type="text/css">
	.st0{fill:#1E1E1E;}
	.st1{fill:#121212;}
	.st2{opacity:0.1;fill:#1E1E1E;}
	.st3{fill:#DBDBDB;}
	.st4{fill:#C16161;}
	.st5{fill:#7EB200;}
	.st6{fill:#A8D500;}
	.st7{opacity:0.1;fill:#DBDBDB;}
	.st8{fill:#5E5E5E;}
	.st9{fill:none;stroke:#FF1BEB;stroke-miterlimit:10;}
	.st10{fill:none;stroke:#00B9BD;stroke-miterlimit:10;}
	.st11{fill:#D3A62A;}
	.st12{fill:#0D4586;}
</style>
<g id="Layer_1">
</g>
<g id="Layer_3">
	<g>
		<g>
			<g>
				<path class="st0" d="M26.6,2.3H2.5c0,0,0.9,2.8,5,2.5S17.3,4.5,20,5.6c-1.1,0.1-7.8,0.5-7.8,0.5s3.6,3.4,9,1.5
					c-0.3,0.8-0.6,1.4-3,2.7c1,0.6,2.4,1.2,5.6-1.5c0,0.5,0.1,1.1-2.1,3.7c1.1,0,2.9-0.2,4.7-2.7l1.8,2.9V6.5l-0.5-1
					c0,0-0.4-0.6,0.5-0.9V4.1h-1.3l0.1,0.5l-0.6-0.4c-0.1-0.1-0.2-0.2-0.1-0.3C26.3,3.5,26.4,2.7,26.6,2.3z"/>
				<g>
					<polygon class="st0" points="28.2,23 27.3,22.2 27.8,13.3 28.2,13.7 					"/>
					<path class="st0" d="M25.8,11.2l-3.1,4.9c-0.2,0.3-0.2,0.8,0.1,1.1l1.1,1.2l2.4-6.7L25.8,11.2z"/>
					<path class="st0" d="M27.3,13l-0.4,8.6L25.4,20c-0.4-0.5-0.6-1.2-0.4-1.8l2-5.7l0.1,0.1C27.2,12.7,27.3,12.8,27.3,13z"/>
				</g>
			</g>
			<g>
				<path class="st0" d="M31.4,22.9c0-0.1,0.1-0.2,0.2-0.2h1v-20h-1c-0.1,0-0.2-0.1-0.2-0.2c0-0.1,0.1-0.2,0.2-0.2h14
					c5,0,8.1,1.6,8.1,6.3c0,2.5-1,4.1-3,5.1V14c1.6,0.2,2.2,1,2.5,2.1l1.7,6.5h1c0.1,0,0.2,0.1,0.2,0.2S56,23,55.9,23H45.5l-2.6-9
					h-0.4v8.6h1c0.1,0,0.2,0.1,0.2,0.2S43.7,23,43.6,23H31.6C31.5,23,31.4,23,31.4,22.9z M43.7,13.7c0.7,0,1.1-0.4,1.1-1V3.5
					c0-0.5-0.4-0.9-1-0.9h-1.2v11H43.7z"/>
				<path class="st0" d="M53.6,22.9c0-0.1,0.1-0.2,0.2-0.2h1.9l6.6-20.4h7.3l6.3,20.4H77c0.1,0,0.2,0.1,0.2,0.2
					c0,0.1-0.1,0.2-0.2,0.2H63.5c-0.1,0-0.2-0.1-0.2-0.2s0.1-0.2,0.2-0.2h2.5l-2-6.6h-5.7l-2.1,6.6h2.5c0.1,0,0.2,0.1,0.2,0.2
					S58.9,23,58.8,23h-5C53.7,23,53.6,23,53.6,22.9z M63.9,15.7l-2.6-8.6h-0.1l-2.7,8.6H63.9z"/>
				<path class="st0" d="M74.8,2.6h-1.2c-0.1,0-0.2-0.1-0.2-0.2c0-0.1,0.1-0.2,0.2-0.2h14.1c0.1,0,0.2,0.1,0.2,0.2
					c0,0.1-0.1,0.2-0.2,0.2h-3.1l5,15.6h0.1l4.7-15.6h-2.1c-0.1,0-0.2-0.1-0.2-0.2c0-0.1,0.1-0.2,0.2-0.2h4.5c0.1,0,0.2,0.1,0.2,0.2
					c0,0.1-0.1,0.2-0.2,0.2h-1.9L88.7,23h-7.4L74.8,2.6z"/>
				<path class="st0" d="M96.4,22.9c0-0.1,0.1-0.2,0.2-0.2h1.3v-20h-1.3c-0.1,0-0.2-0.1-0.2-0.2c0-0.1,0.1-0.2,0.2-0.2h19.8v9.2
					c0,0.1-0.1,0.1-0.1,0.1c-0.1,0-0.1-0.1-0.1-0.1c-0.4-5.2-2.5-8.8-7.7-8.8h-0.7v9.9h1.3c3.3,0,3.4-1.1,3.4-4.9
					c0-0.1,0.1-0.2,0.2-0.2c0.1,0,0.2,0.1,0.2,0.2v10.4c0,0.1-0.1,0.2-0.2,0.2c-0.1,0-0.2-0.1-0.2-0.2c0-4.1,0-5.3-3.4-5.3h-1.3v9.9
					h0.7c6.4,0,8.3-4.7,8.7-10.5c0-0.1,0.1-0.1,0.1-0.1c0.1,0,0.1,0.1,0.1,0.1L116.6,23h-20C96.5,23,96.4,23,96.4,22.9z"/>
				<path class="st0" d="M118.4,22.9c0-0.1,0.1-0.2,0.2-0.2h1.6v-20h-1.6c-0.1,0-0.2-0.1-0.2-0.2c0-0.1,0.1-0.2,0.2-0.2h5.4
					l12.9,9.1V2.6h-2.5c-0.1,0-0.2-0.1-0.2-0.2c0-0.1,0.1-0.2,0.2-0.2h4.3c0.1,0,0.2,0.1,0.2,0.2c0,0.1-0.1,0.2-0.2,0.2h-1.3V23
					h-1.1l-15.6-10.9v10.6h2.5c0.1,0,0.2,0.1,0.2,0.2s-0.1,0.2-0.2,0.2h-4.7C118.5,23,118.4,23,118.4,22.9z"/>
				<path class="st0" d="M139.7,12.8c0-6.7,4.8-10.9,11.5-10.9c4.4,0,8.6,1.1,8.6,5.5c0,2-1.4,3.8-4,3.8c-2.3,0-4-1.4-4-3.9
					c0-2.3,1.5-3.8,3.7-3.8c1.1,0,1.6,0.4,1.8,0.4c0.1,0,0.1,0,0.1-0.1c0-0.1,0-0.1-0.1-0.2c-1.6-0.9-3.8-1.3-6.1-1.3
					c-0.6,0-1,0.2-1,0.8v18.6c0,1.1,0.6,1.4,1.9,1.4c3.6,0,6.6-1.6,6.6-3.8c0-0.3,0-0.5,0.3-0.5c0.2,0,0.3,0.1,0.3,0.4
					c0,2.5-3.2,4.3-7.1,4.3C144.4,23.5,139.7,19.8,139.7,12.8z"/>
				<path class="st0" d="M160.2,22.9c0-0.1,0.1-0.2,0.2-0.2h1v-20h-1c-0.1,0-0.2-0.1-0.2-0.2c0-0.1,0.1-0.2,0.2-0.2h11.9
					c0.1,0,0.2,0.1,0.2,0.2c0,0.1-0.1,0.2-0.2,0.2h-1v20h1c0.1,0,0.2,0.1,0.2,0.2s-0.1,0.2-0.2,0.2h-11.9
					C160.3,23,160.2,23,160.2,22.9z"/>
			</g>
		</g>
		<g>
			<g>
				<path class="st4" d="M59.1,32.9h1.4v-2.3c0-1.4,1.1-2.1,2.1-2.1c0.4,0,0.8,0.1,1.4,0.4l-0.4,1c0,0-0.4-0.3-0.8-0.3
					c-0.7,0-1,0.4-1,1.1v2.2h1.7V34h-1.7v5.6h-1.2V34h-1.4V32.9z"/>
				<path class="st4" d="M72.1,36.3c0,2-1.5,3.5-3.4,3.5s-3.4-1.5-3.4-3.5c0-2,1.5-3.5,3.4-3.5S72.1,34.3,72.1,36.3z M70.9,36.3
					c0-1.3-0.9-2.4-2.2-2.4s-2.2,1.1-2.2,2.4c0,1.3,0.9,2.4,2.2,2.4S70.9,37.6,70.9,36.3z"/>
				<path class="st4" d="M78.6,32.9L78.1,34c0,0-0.3-0.1-0.8-0.1c-1.1,0-1.5,1.1-1.5,1.1v4.6h-1.2v-6.7h1.1v1c0,0,0.6-1.2,1.9-1.2
					C78.2,32.7,78.6,32.9,78.6,32.9z"/>
				<path class="st4" d="M90.1,35.3v4.3h-1.2v-4.1c0-1.1-0.6-1.6-1.4-1.6c-1,0-1.4,1.1-1.4,1.1v4.7h-1.2v-4.1c0-1.1-0.6-1.6-1.4-1.6
					c-1,0-1.4,1.1-1.4,1.1v4.7h-1.2v-6.7h1.1v1c0,0,0.5-1.2,1.9-1.2c1.7,0,2.1,1.2,2.1,1.2s0.5-1.2,2-1.2
					C89.2,32.7,90.1,33.6,90.1,35.3z"/>
				<path class="st4" d="M99.2,36.3c0,0.1,0,0.2,0,0.4h-5.4c0.1,1,1,2,2.3,2c1.3,0,2-1,2-1l0.8,0.8c0,0-1,1.3-2.8,1.3
					c-2,0-3.5-1.5-3.5-3.5c0-2,1.3-3.5,3.3-3.5C97.8,32.7,99.2,34.1,99.2,36.3z M98,35.7c0-0.8-0.7-1.8-2.1-1.8
					c-1.4,0-2,1.1-2.1,1.8H98z"/>
				<path class="st4" d="M105.7,32.9l-0.4,1.1c0,0-0.3-0.1-0.8-0.1c-1.1,0-1.5,1.1-1.5,1.1v4.6h-1.2v-6.7h1.1v1c0,0,0.6-1.2,1.9-1.2
					C105.3,32.7,105.7,32.9,105.7,32.9z"/>
				<path class="st4" d="M108.1,28.7h1.2v10.9h-1.2V28.7z"/>
				<path class="st4" d="M112.6,41.6c0,0,0.4,0.3,0.8,0.3c0.5,0,0.8-0.4,1-1l0.5-1.3l-3.1-6.7h1.4l2.3,5.3l2-5.3h1.3
					c0,0-3.4,8.5-3.5,8.8c-0.4,1-1.1,1.3-1.9,1.3c-0.8,0-1.4-0.5-1.4-0.5L112.6,41.6z"/>
			</g>
			<g>
				<g>
					<polygon class="st4" points="172.5,33.1 172.5,29.8 167.9,29.8 164.2,29.8 164.2,41.5 167.9,41.5 172.5,41.5 172.5,38.2 
						167.9,38.2 167.9,37.1 172.3,37.1 172.3,34.2 167.9,34.2 167.9,33.1 					"/>
					<polygon class="st4" points="158.6,29.8 158.6,35.1 154.8,29.8 151.1,29.8 151.1,41.5 154.8,41.5 154.8,36.2 158.6,41.5 
						158.6,41.5 162.4,41.5 162.4,29.8 					"/>
					<polygon class="st4" points="140.7,29.8 138.4,36 136.2,29.8 132.2,29.8 136.4,41.5 136.5,41.5 140.4,41.5 140.4,41.5 
						144.7,29.8 					"/>
					<rect x="145.5" y="29.8" class="st4" width="3.8" height="11.7"/>
				</g>
				<path class="st4" d="M127.5,29.8l-2.6,1.9V34h2.4v7.5h4.2V29.8H127.5z M125.6,32.2l3-0.9l-3,1.8V32.2z M128,35.2l0.7,1.5L128,39
					V35.2z M128,33.8l2.4-2.4l-1.4,4.4L128,33.8z M129.1,37.6l1.5,3.2h-2.5L129.1,37.6z M129.4,36.7l1.4-4.3v7.3L129.4,36.7z
					 M127.7,30.5h1.1L127,31L127.7,30.5z M126.5,33.3l2.4-1.5l-1.5,1.5H126.5z"/>
			</g>
		</g>
	</g>
</g>
<g id="Layer_2">
</g>
</svg>
