<?xml version="1.0" encoding="UTF-8"?>
<svg id="Layer_1" data-name="Layer 1" xmlns="http://www.w3.org/2000/svg" viewBox="0 0 801 317.8">
  <defs>
    <style>
      .cls-1 {
        fill: #000002;
      }

      .cls-1, .cls-2 {
        stroke-width: 0px;
      }
    </style>
  </defs>
  <g>
    <path class="cls-1" d="M488.13,42.19v14.07s-19.1,28.89-30.24,54.36c-17.51,9.55-42.97,20.69-46.15,35.01,4.77,7.96,6.37,7.96,12.73,19.1-7.96,0-12.73,2.96-12.73,2.96,0,0-4.77-10.92-11.14-14.1-6.37-3.18-7.96-14.32-7.96-14.32l-28.65-3.18s-39.91,16.55-44.69,16.55h-19.1l3.18-6.37s-23.87,7.96-35.01,7.96v-4.76s-9.55,3.17-22.28,3.17c7.96-6.37,68.56-43.6,81.29-51.56,1.59-7.96,1.59-9.55,1.59-9.55,0,0,19.1-20.69,39.79-27.05,20.69-6.37,42.97-14.32,47.74-19.1s14.32-27.87,25.46-34.24c11.14-6.37,15.91-11.14,23.87-11.14s19.1,7.96,27.05,9.55c7.96,1.59,30.24,9.55,33.42,17.51-12.73,0-30.24,2.41-38.19,15.14Z"/>
    <path class="cls-1" d="M424.47,164.74s22.28,4.77,25.46,12.73c-4.77-1.59-28.65-7.96-39.79-4.77,1.59-1.59,1.59-4.99,1.59-4.99l4.77-4.56,7.96,1.59Z"/>
  </g>
  <path class="cls-2" d="M137,307.6c1.32,0,132-59.8,132-59.8,0,0,29.15,4.31,31.36,3.87s48.22-35.67,48.22-35.67l-.66-9.25s36.63-35.23,59.09-35.23,59.94,3.43,61.27,8.28,24.04,45.2,33.73,43c9.69-2.2,30.27-5,30.27-5l25.73,33-3.73,8,22.73-7,57.67,39,46.33,16.8H137Z"/>
  <polygon class="cls-2" points="681 307.6 801 317.8 0 317.8 137 307.6 403 276.8 681 307.6"/>
</svg>