<?xml version="1.0" encoding="utf-8"?>
<!-- Generator: Adobe Illustrator 28.1.0, SVG Export Plug-In . SVG Version: 6.00 Build 0)  -->
<svg version="1.1" id="Layer_1" xmlns="http://www.w3.org/2000/svg" xmlns:xlink="http://www.w3.org/1999/xlink" x="0px" y="0px"
	 viewBox="0 0 120 120" style="enable-background:new 0 0 120 120;" xml:space="preserve">
<path d="M107.27,37.66c-0.17-2.04-0.48-4.24-1.12-6.21c-0.25-7.26-3.31-14.44-8.48-19.43c1.09,0.94,2.19,1.88,3.28,2.82
	c-2.16-2.8-4.63-5.34-7.28-7.65c-2.88-2.5-6.05-4.78-9.66-5.9c-3.61-1.12-7.75-0.96-10.92,1.15c-1.08,0.72-2.06,1.71-2.62,2.88
	c-0.99-0.1-2.15,0.07-3.08,0.11c-2.42,0.11-4.83,0.43-7.2,0.93c-1.32,0.28-2.62,0.63-3.9,1.02c-1.72,0.54-3.46,1.21-4.76,2.48
	c-1.18,1.16-1.92,2.77-2.03,4.44c0.4-0.54,0.88-1.01,1.4-1.41c0.04,0.06,0.09,0.12,0.16,0.18c0.57,0.52,1.79,0.73,2.51,0.92
	c0.89,0.24,1.79,0.4,2.69,0.53c1.03,0.15,2.07,0.25,3.11,0.35c2.98,0.28,5.96,0.57,8.93,0.85c0.6,0.06,1.2,0.11,1.8,0.11
	c1.44,1.37,2.31,3.37,2.55,5.34c0.38,3.07-0.47,6.15-1.29,9.14c-0.07,0.27-0.15,0.55-0.22,0.83c-5.31,4.47-10.63,8.67-15.41,13.89
	c-2.44,2.66-4.76,5.47-6.94,8.39c-0.69,0.55-1.36,1.17-2.06,1.75c-5.78,4.84-11.29,10.03-16.47,15.53c-2.9,3.07-5.69,6.24-8.39,9.5
	c-1.11,1.34-2.22,2.73-2.86,4.36c-0.22,0.55-0.25,1.39,0.32,1.53c0.28,0.07,0.55-0.1,0.79-0.25c1-0.65,2.01-1.3,3.01-1.95
	c-2.39,1.81-4.45,3.99-5.51,6.8c0.35,0.03,0.69,0.02,1.03-0.04c-2.53,1.95-4.99,4-7.37,6.14c-0.49,0.44-1,0.92-1.21,1.55
	c-0.21,0.63,0,1.47,0.61,1.7c0.47,0.18,1-0.04,1.46-0.25c1.35-0.63,2.7-1.27,4.04-1.9c-1.09,0.59-2.04,1.46-2.71,2.52
	c-0.31,0.49-0.54,1.2-0.13,1.6c0.41,0.4,1.07,0.14,1.57-0.13c1.42-0.79,2.85-1.58,4.27-2.36c-1.55,0.89-2.78,2.35-3.42,4.05
	c0.52,0.78,1.69,0.46,2.53,0.06c8.03-3.86,16.06-7.72,24.09-11.58c2-0.96,4.01-1.93,5.76-3.31c0.41-0.32,0.8-0.67,1.17-1.05
	c2.27,1.04,4.84,1.33,7.47,1.25c0.01,0.26,0.02,0.51,0.03,0.73c0.04,1.24,0.23,2.47,0.56,3.66c0.37,1.35,0.93,2.64,1.65,3.83
	c0.31,0.51,0.7,1.03,1.17,1.39c0.02,0.07,0.04,0.15,0.05,0.22c1.39,5.22,2.77,10.43,4.16,15.65c-1.67-1.33-3.94-1.53-5.86-0.62
	c-0.55-0.57-1.47-0.63-2.18-0.29c-0.71,0.34-1.22,1.01-1.56,1.73c-0.36,0.74-0.55,1.7-0.07,2.36c0.17-0.82,0.65-1.57,1.32-2.06
	c0.67-0.49,1.43-0.71,2.24-0.61c-0.21,0.43-0.12,0.97,0.16,1.35c0.57,0.77,1.66,0.82,2.6,0.81c1.68-0.03,3.34-0.03,4.94-0.55
	c1.06,0.49,2.15,0.9,3.27,1.23c0.46,0.13,0.92,0.25,1.4,0.24c0.47-0.02,1.6-0.13,1.92-0.49c0.55,0.47,0.95,1.12,1.13,1.84
	c0.55-0.79,0.58-1.93-0.05-2.66c1.89-0.4,3.85-0.44,5.75-0.13c0.37,0.06,0.74,0.13,1.12,0.11c0.37-0.03,0.76-0.17,0.99-0.47
	c0.24-0.3,0.48-0.58,0.23-0.86c-0.11-0.02-0.13-0.19-0.06-0.28c0.07-0.09,0.19-0.11,0.3-0.12c1.45-0.15,2.8,0.69,3.97,1.58
	c-0.28-0.98-0.91-1.85-1.76-2.39c0,0,0,0,0,0c0.33-0.08,0.63-0.19,0.77-0.35c0.55,0.47,0.95,1.12,1.13,1.84
	c0.55-0.79,0.58-1.93-0.05-2.66c1.89-0.4,3.85-0.44,5.75-0.13c0.37,0.06,0.74,0.13,1.12,0.11c0.37-0.03,0.76-0.17,0.99-0.47
	c0.24-0.3,0.48-0.58,0.23-0.86c-0.11-0.02-0.13-0.19-0.06-0.28c0.07-0.09,0.19-0.11,0.3-0.12c1.45-0.15,2.8,0.69,3.97,1.58
	c-0.28-0.98-0.91-1.85-1.76-2.39c-0.84-0.54-1.88-0.76-2.87-0.59c0.06-0.01-0.05,0.08-0.07,0.11c-0.73-0.77-1.84-1.05-2.89-1.05
	c-1.62,0-3.18,0.6-4.77,0.94c-1.59,0.34-3.38,0.39-4.7-0.58c-1-0.73-1.56-1.92-2.05-3.08c-1.45-3.47-2.55-7.1-3.28-10.81
	c0.29-0.42,0.47-0.92,0.65-1.41c1.02-2.84,2.04-5.68,2.77-8.61c0.07-0.27,0.13-0.56,0.18-0.84c1.39-0.53,2.76-1.14,4.08-1.86
	c3.39-1.83,6.4-4.29,9.07-7.11c0.03-0.02,0.06-0.05,0.08-0.07c5.31-4.31,10.34-9.19,13.63-15.26c1.84-3.4,3.07-7.19,3.42-11.07
	c0.29-3.32,0.01-7.06-1.45-10.09C108.19,38.55,107.77,37.95,107.27,37.66z M73.63,113.59c-1.59,0.34-3.38,0.39-4.7-0.58
	c-0.32-0.24-0.6-0.53-0.85-0.84c0.12-0.12,0.25-0.23,0.39-0.33c0.67-0.49,1.43-0.71,2.24-0.61c-0.21,0.43-0.12,0.97,0.16,1.35
	c0.57,0.77,1.66,0.82,2.6,0.81c0.36-0.01,0.71-0.01,1.06-0.02C74.23,113.45,73.93,113.52,73.63,113.59z M70.83,93.16
	c0.4,0.97,0.92,1.95,1.74,2.58c0.1,0.08,0.21,0.15,0.32,0.21c1.31,4.92,2.62,9.83,3.92,14.75c-1.67-1.33-3.94-1.53-5.86-0.62
	c-0.55-0.57-1.47-0.63-2.18-0.29c-0.57,0.28-1.02,0.77-1.35,1.33c-0.2-0.39-0.38-0.8-0.55-1.2c-1.6-3.83-2.78-7.85-3.49-11.95
	c0.07-0.08,0.13-0.17,0.19-0.26c0.53-0.82,0.73-1.81,0.92-2.77c0.36-1.79,0.72-3.57,1.08-5.36c0.11-0.56,0.22-1.16,0.23-1.74
	c1.21-0.2,2.42-0.4,3.62-0.62C69.58,89.27,70.05,91.28,70.83,93.16z"/>
</svg>
