<?xml version="1.0" encoding="UTF-8"?>
<svg id="Layer_1" data-name="Layer 1" xmlns="http://www.w3.org/2000/svg" viewBox="0 0 250 90">
  <defs>
    <style>
      .cls-1 {
        fill: #000;
        fill-rule: evenodd;
        stroke-width: 0px;
      }
    </style>
  </defs>
  <path class="cls-1" d="M80.5,31.31c.02.07.03.14.03.2v10.73c0,.28-.15.54-.39.68l-9.01,5.19v10.28c0,.28-.15.54-.39.68l-18.8,10.82s-.09.04-.14.06c-.02,0-.03.02-.05.02-.13.03-.27.03-.4,0-.02,0-.04-.02-.06-.03-.04-.02-.09-.03-.13-.05l-18.8-10.82c-.24-.14-.39-.4-.39-.68V26.2c0-.07,0-.14.03-.21,0-.02.02-.04.03-.07.01-.04.03-.08.05-.12.01-.03.04-.05.05-.07.02-.03.04-.06.07-.09.02-.02.05-.04.08-.06.03-.02.05-.05.09-.07h0l9.4-5.41c.24-.14.54-.14.78,0l9.4,5.41h0s.06.04.09.07c.03.02.05.04.08.06.03.03.05.06.07.09.02.02.04.04.05.07.02.04.04.08.05.12,0,.02.02.04.03.07.02.07.03.14.03.2v20.11l7.83-4.51v-10.28c0-.07,0-.14.03-.2,0-.02.02-.04.03-.07.02-.04.03-.08.05-.12.01-.03.04-.05.05-.07.02-.03.04-.06.07-.09.02-.02.05-.04.08-.06.03-.02.05-.05.09-.07h0l9.4-5.41c.24-.14.54-.14.78,0l9.4,5.41s.06.04.09.07c.02.02.05.04.08.06.03.03.05.06.07.09.02.02.04.04.05.07.02.04.04.08.05.12,0,.02.02.04.03.07ZM78.96,41.8v-8.92l-3.29,1.89-4.54,2.62v8.92l7.84-4.51h0ZM69.56,57.94v-8.93l-4.47,2.55-12.76,7.29v9.01s17.24-9.92,17.24-9.92ZM33.52,27.55v30.39l17.23,9.92v-9.01l-9-5.1h0s0,0,0,0c-.03-.02-.06-.04-.08-.06-.02-.02-.05-.04-.07-.06h0s-.04-.06-.06-.09c-.02-.03-.04-.05-.06-.08h0s-.03-.07-.04-.1c-.01-.03-.03-.06-.04-.09h0s-.01-.08-.02-.12c0-.03-.01-.06-.01-.09h0v-21.01l-4.54-2.62-3.29-1.89h0ZM42.14,21.69l-7.83,4.51,7.83,4.51,7.83-4.51-7.83-4.51h0ZM46.21,49.82l4.54-2.62v-19.66l-3.29,1.89-4.54,2.62v19.66s3.29-1.89,3.29-1.89ZM70.34,27.01l-7.83,4.51,7.83,4.51,7.83-4.51s-7.83-4.51-7.83-4.51ZM69.56,37.38l-4.54-2.62-3.29-1.89v8.92l4.54,2.62,3.29,1.89s0-8.92,0-8.92ZM51.54,57.49l11.49-6.56,5.74-3.28-7.83-4.51-9.01,5.19-8.21,4.73s7.82,4.43,7.82,4.43Z"/>
  <path class="cls-1" d="M106.1,31.07v23.76h8.6v4.1h-13.17v-27.86s4.58,0,4.58,0ZM130.86,42.89v-2.51h4.34v18.55h-4.34v-2.51c-.58.93-1.41,1.66-2.49,2.19-1.07.53-2.16.8-3.24.8-1.41,0-2.69-.26-3.86-.78-1.14-.5-2.16-1.22-3.01-2.13-.84-.9-1.5-1.96-1.95-3.1-.47-1.19-.71-2.46-.7-3.74,0-1.3.23-2.54.7-3.72.45-1.15,1.11-2.21,1.95-3.12.85-.91,1.87-1.63,3.01-2.13,1.17-.52,2.45-.78,3.86-.78,1.09,0,2.17.26,3.24.8s1.9,1.26,2.49,2.19h0ZM130.46,51.93c.27-.73.4-1.49.4-2.27,0-.8-.13-1.55-.4-2.27-.25-.69-.63-1.32-1.11-1.87-.49-.54-1.08-.97-1.73-1.27-.68-.32-1.43-.48-2.25-.48s-1.57.16-2.23.48c-.65.31-1.23.74-1.71,1.27-.49.54-.86,1.18-1.09,1.87-.26.73-.38,1.5-.38,2.27,0,.8.13,1.55.38,2.27.25.72.62,1.34,1.09,1.87.48.53,1.06.97,1.71,1.27.66.32,1.41.48,2.23.48s1.57-.16,2.25-.48c.66-.3,1.25-.74,1.73-1.27.49-.55.86-1.18,1.11-1.87ZM138.62,58.93v-18.55h11.78v4.27h-7.44v14.28h-4.34,0ZM166.12,42.89v-2.51h4.34v18.55h-4.34v-2.51c-.58.93-1.41,1.66-2.49,2.19-1.07.53-2.15.8-3.24.8-1.41,0-2.69-.26-3.86-.78-1.14-.5-2.16-1.22-3.01-2.13-.84-.9-1.5-1.96-1.95-3.1-.47-1.19-.71-2.46-.7-3.74,0-1.3.23-2.54.7-3.72.45-1.15,1.11-2.21,1.95-3.12.85-.91,1.87-1.63,3.01-2.13,1.17-.52,2.45-.78,3.86-.78,1.09,0,2.17.26,3.24.8,1.08.53,1.9,1.26,2.49,2.19ZM165.72,51.93c.27-.73.4-1.49.4-2.27,0-.8-.13-1.55-.4-2.27-.25-.69-.63-1.32-1.11-1.87-.49-.54-1.08-.97-1.73-1.27-.68-.32-1.43-.48-2.25-.48s-1.57.16-2.23.48c-.65.31-1.23.74-1.71,1.27-.49.54-.86,1.18-1.09,1.87-.25.73-.38,1.5-.38,2.27,0,.8.12,1.55.38,2.27.25.72.62,1.34,1.09,1.87.48.53,1.06.97,1.71,1.27.66.32,1.41.48,2.23.48s1.57-.16,2.25-.48c.66-.3,1.25-.74,1.73-1.27.49-.55.86-1.18,1.11-1.87ZM187.85,40.38h4.39l-7.12,18.55h-5.45l-7.12-18.55h4.39l5.45,14.2,5.45-14.2ZM201.7,39.91c5.91,0,9.93,5.24,9.18,11.36h-14.39c0,1.6,1.62,4.69,5.45,4.69,3.3,0,5.51-2.9,5.51-2.9l2.93,2.27c-2.62,2.8-4.77,4.08-8.13,4.08-6,0-10.07-3.8-10.07-9.75,0-5.38,4.21-9.75,9.52-9.75h0ZM196.5,48.04h10.4c-.03-.36-.6-4.69-5.23-4.69s-5.13,4.34-5.17,4.69ZM213.71,58.93v-27.86h4.34v27.86h-4.34Z"/>
</svg>