<?xml version="1.0" encoding="UTF-8"?>
<svg id="Layer_1" data-name="Layer 1" xmlns="http://www.w3.org/2000/svg" viewBox="0 0 250 90">
  <defs>
    <style>
      .cls-1 {
        fill: #000;
      }

      .cls-1, .cls-2 {
        stroke-width: 0px;
      }

      .cls-2 {
        fill: #fff;
      }
    </style>
  </defs>
  <g>
    <path class="cls-1" d="M94.39,33.85c0-.5,0-1.01-.02-1.51-.03-1.1-.09-2.2-.29-3.28-.2-1.1-.52-2.12-1.03-3.12-.5-.98-1.15-1.88-1.93-2.66-.78-.78-1.68-1.43-2.66-1.93-1-.51-2.02-.83-3.12-1.03-1.08-.2-2.19-.26-3.29-.29-.5-.01-1.01-.02-1.51-.02-.6,0-1.19,0-1.79,0h-18.72c-.6,0-1.19,0-1.79,0-.5,0-1.01,0-1.51.02-.27,0-.55.02-.82.03-.82.04-1.65.11-2.46.26-.82.15-1.61.37-2.37.68-.25.1-.5.22-.75.35-.74.37-1.43.84-2.05,1.37-.21.18-.41.37-.61.56-.78.78-1.43,1.68-1.93,2.66-.51,1-.83,2.02-1.03,3.12-.19,1.08-.26,2.19-.29,3.28-.01.5-.02,1.01-.02,1.51,0,.6,0,1.19,0,1.79v18.72c0,.6,0,1.19,0,1.79,0,.5,0,1.01.02,1.51.03,1.1.09,2.2.29,3.28.2,1.1.52,2.12,1.03,3.12.5.98,1.15,1.88,1.93,2.66.78.78,1.68,1.43,2.66,1.93,1,.51,2.02.83,3.12,1.03,1.08.19,2.19.26,3.28.29.5.01,1.01.02,1.51.02.6,0,1.19,0,1.79,0h18.72c.6,0,1.19,0,1.79,0,.5,0,1.01,0,1.51-.02,1.1-.03,2.2-.09,3.29-.29,1.1-.2,2.12-.52,3.12-1.03.98-.5,1.88-1.15,2.66-1.93.78-.78,1.43-1.68,1.93-2.66.51-1,.83-2.02,1.03-3.12.19-1.08.26-2.19.29-3.28.01-.5.02-1.01.02-1.51,0-.6,0-1.19,0-1.79v-18.72c0-.6,0-1.19,0-1.79Z"/>
    <path class="cls-2" d="M84.02,50.86s0,0,0,0c.06-.19.11-.38.16-.57,2.08-8.27-2.99-18.04-11.56-23.19,3.76,5.09,5.42,11.26,3.94,16.65-.13.48-.29.94-.46,1.39-.19-.12-.43-.27-.75-.44,0,0-8.53-5.26-17.77-14.57-.24-.24,4.93,7.39,10.79,13.59-2.76-1.55-10.47-7.16-15.34-11.62.6,1,1.31,1.96,2.1,2.89,4.07,5.16,9.38,11.54,15.75,16.43-4.47,2.74-10.79,2.95-17.08,0-1.56-.73-3.02-1.61-4.37-2.61,2.66,4.26,6.76,7.93,11.75,10.08,5.95,2.56,11.87,2.38,16.28.04h0s.05-.02.07-.03c.18-.1.36-.2.54-.3,2.12-1.1,6.3-2.21,8.55,2.15.55,1.07,1.72-4.6-2.58-9.88Z"/>
  </g>
  <g>
    <path class="cls-1" d="M113.42,52.52c.39,3.48,3.71,5.76,8.31,5.76s7.53-2.28,7.53-5.43c0-2.72-1.91-4.38-6.31-5.48l-4.26-1.08c-6.13-1.52-8.89-4.28-8.89-8.84,0-5.62,4.9-9.51,11.88-9.51s11.58,3.91,11.74,9.56h-4.49c-.35-3.45-3.15-5.57-7.37-5.57s-7.07,2.14-7.07,5.27c0,2.44,1.8,3.89,6.22,5.02l3.55.92c6.86,1.68,9.67,4.35,9.67,9.16,0,6.13-4.86,9.97-12.6,9.97-7.18,0-12.09-3.82-12.46-9.74h4.54Z"/>
    <path class="cls-1" d="M162.45,61.71h-4.51l-5.27-18.38h-.09l-5.25,18.38h-4.51l-6.68-24.06h4.37l4.65,19.32h.09l5.25-19.32h4.24l5.3,19.32h.09l4.65-19.32h4.33l-6.65,24.06Z"/>
    <path class="cls-1" d="M172.02,31.17c0-1.45,1.2-2.62,2.65-2.62s2.67,1.17,2.67,2.62-1.2,2.65-2.67,2.65-2.65-1.2-2.65-2.65ZM172.48,37.65h4.4v24.06h-4.4v-24.06Z"/>
    <path class="cls-1" d="M205.6,41.19v-3.55h-4.65v-5.76h-4.38v5.76h-8.41v-2.12c.02-2.14.85-3.04,2.83-3.04.64,0,1.29.07,1.82.16v-3.45c-.78-.12-1.5-.18-2.33-.18-4.7,0-6.68,1.96-6.68,6.45v2.19h-3.36v3.55h3.36v20.52h4.37v-20.52h8.38v14.21c0,4.65,1.77,6.45,6.38,6.45.99,0,2.12-.07,2.63-.18v-3.59c-.3.05-1.17.12-1.66.12-2.05,0-2.97-.97-2.97-3.13v-13.86h4.65Z"/>
  </g>
</svg>