<?xml version="1.0" encoding="UTF-8"?>
<svg id="Layer_1" data-name="Layer 1" xmlns="http://www.w3.org/2000/svg" viewBox="0 0 250 90">
  <defs>
    <style>
      .cls-1 {
        fill: #000;
        stroke-width: 0px;
      }
    </style>
  </defs>
  <path class="cls-1" d="M88.38,72.21v-13.86l.29-.29h2.89l.29.29v13.86l-.29.29h-2.89l-.29-.29Z"/>
  <path class="cls-1" d="M88.38,31.64v-13.85l.29-.29h2.89l.29.29v13.85l-.29.29h-2.89l-.29-.29Z"/>
  <path class="cls-1" d="M75.84,62.22h-.41l-2.04-2.04v-.41l4.77-4.76h2.16s.29.29.29.29v2.16l-4.77,4.76Z"/>
  <path class="cls-1" d="M75.83,27.78h-.41l-2.04,2.04v.41l4.77,4.76h2.16s.29-.29.29-.29v-2.16l-4.77-4.76Z"/>
  <path class="cls-1" d="M57.64,43.27h19.63l.29.29v2.89l-.29.29h-19.63l-.29-.29v-2.89l.29-.29Z"/>
  <path class="cls-1" d="M173.89,43.27h18.47l.29.29v2.89l-.29.29h-19.63l-.29-.29,1.15-2.89.29-.29Z"/>
  <path class="cls-1" d="M113.39,46.23l-.29.29h-8.95l-.29.29c0,.58.58,2.31,2.89,2.31.87,0,1.73-.29,2.02-.87l.29-.29h3.47l.29.29c-.29,1.73-1.73,4.33-6.07,4.33-4.91,0-7.22-3.47-7.22-7.51s2.31-7.51,6.93-7.51,6.93,3.47,6.93,7.51v1.16h0ZM109.05,43.34c0-.29-.29-2.31-2.6-2.31s-2.6,2.02-2.6,2.31l.29.29h4.62l.29-.29Z"/>
  <path class="cls-1" d="M121.47,47.96c0,.58.29.87.87.87h2.6l.29.29v2.89l-.29.29h-2.6c-2.6,0-4.91-1.16-4.91-4.33v-6.35l-.29-.29h-2.02l-.29-.29v-2.89l.29-.29h2.02l.29-.29v-2.6l.29-.29h3.47l.29.29v2.6l.29.29h3.18l.29.29v2.89l-.29.29h-3.18l-.29.29v6.35h0Z"/>
  <path class="cls-1" d="M132.16,52.3h-3.47l-.29-.29v-19.64l.29-.29h3.47l.29.29v19.64l-.29.29Z"/>
  <path class="cls-1" d="M139.96,35.55h-3.47l-.29-.29v-2.89l.29-.29h3.47l.29.29v2.89l-.29.29ZM139.96,52.3h-3.47l-.29-.29v-13.86l.29-.29h3.47l.29.29v13.86l-.29.29Z"/>
  <path class="cls-1" d="M153.53,32.37v2.89l-.29.29h-2.6c-.58,0-.87.29-.87.87v1.16l.29.29h2.89l.29.29v2.89l-.29.29h-2.89l-.29.29v10.4l-.29.29h-3.47l-.29-.29v-10.4l-.29-.29h-2.02l-.29-.29v-2.89l.29-.29h2.02l.29-.29v-1.16c0-3.18,2.31-4.33,4.91-4.33h2.6l.29.29h0Z"/>
  <path class="cls-1" d="M164.22,52.59c-1.16,2.89-2.31,4.62-6.35,4.62h-1.44l-.29-.29v-2.89l.29-.29h1.44c1.44,0,1.73-.29,2.02-1.16v-.29l-4.62-11.26v-2.89l.29-.29h2.6l.29.29,3.47,9.82h.29l3.47-9.82.29-.29h2.6l.29.29v2.89l-4.62,11.55h0Z"/>
  <path class="cls-1" d="M93.14,52.3l-.29-.29v-8.37c0-1.44-.57-2.56-2.31-2.6-.9-.02-1.92,0-3.02.04l-.16.17v10.76s-.29.29-.29.29h-3.47l-.29-.29v-14.02l.29-.29,7.8-.07c3.91,0,5.49,2.68,5.49,5.71v8.66l-.29.29h-3.47Z"/>
</svg>