<?xml version="1.0" encoding="UTF-8"?>
<svg id="Layer_1" data-name="Layer 1" xmlns="http://www.w3.org/2000/svg" xmlns:xlink="http://www.w3.org/1999/xlink" viewBox="0 0 250 90">
  <defs>
    <style>
      .cls-1, .cls-2, .cls-3, .cls-4, .cls-5, .cls-6 {
        stroke-width: 0px;
      }

      .cls-1, .cls-5 {
        fill: #000;
      }

      .cls-2 {
        fill: #b4b4b4;
        isolation: isolate;
        opacity: .66;
      }

      .cls-3 {
        fill: url(#linear-gradient);
      }

      .cls-3, .cls-5 {
        fill-rule: evenodd;
      }

      .cls-4 {
        fill: url(#linear-gradient-2);
      }

      .cls-6 {
        fill: #fff;
      }

      .cls-7 {
        mask: url(#mask);
      }
    </style>
    <mask id="mask" x="40.04" y="20" width="129.45" height="79.51" maskUnits="userSpaceOnUse">
      <g id="mask0_337_7902" data-name="mask0 337 7902">
        <path class="cls-6" d="M169.48,20H40.04v79.51h129.45V20Z"/>
      </g>
    </mask>
    <linearGradient id="linear-gradient" x1="74.04" y1="38.1" x2="101.6" y2="38.1" gradientTransform="translate(0 92) scale(1 -1)" gradientUnits="userSpaceOnUse">
      <stop offset="0" stop-color="#000"/>
      <stop offset=".19" stop-color="#171717"/>
      <stop offset=".54" stop-color="#3d3d3d"/>
      <stop offset=".82" stop-color="#545454"/>
      <stop offset="1" stop-color="#5c5c5c"/>
    </linearGradient>
    <linearGradient id="linear-gradient-2" x1="73.84" y1="38.13" x2="102.27" y2="38.13" gradientTransform="translate(0 92) scale(1 -1)" gradientUnits="userSpaceOnUse">
      <stop offset="0" stop-color="#5c5c5c"/>
      <stop offset=".18" stop-color="#545454"/>
      <stop offset=".46" stop-color="#3d3d3d"/>
      <stop offset=".81" stop-color="#171717"/>
      <stop offset=".99" stop-color="#000"/>
    </linearGradient>
  </defs>
  <g class="cls-7">
    <g>
      <path class="cls-5" d="M67.8,46.58c0-.54-.29-1.03-.76-1.29l-12.38-7.19c-.2-.12-.44-.18-.67-.21h-.12c-.23,0-.47.09-.67.21l-12.41,7.16c-.47.27-.76.77-.76,1.32l.03,19.25c0,.26.15.53.38.65.23.15.53.15.73,0l7.37-4.22c.47-.26.76-.76.76-1.29v-9.01c0-.54.29-1.03.76-1.29l3.13-1.82c.23-.15.5-.21.76-.21s.53.06.73.21l3.13,1.82c.47.26.76.76.76,1.29v9.01c0,.54.29,1.03.76,1.29l7.32,4.22c.23.15.53.15.76,0,.23-.12.38-.38.38-.65v-19.25h0ZM127.47,20.09c-.23-.12-.53-.12-.73,0-.23.15-.38.38-.38.64v19.07c0,.18-.09.35-.26.47-.16.09-.36.09-.53,0l-3.1-1.79c-.46-.26-1.03-.26-1.49,0l-12.41,7.19c-.47.26-.76.76-.76,1.29v14.35c0,.54.29,1.03.76,1.29l12.41,7.19c.46.26,1.03.26,1.49,0l12.41-7.19c.47-.26.76-.76.76-1.29V25.55c0-.56-.29-1.06-.76-1.32l-7.4-4.14ZM126.3,56.59c0,.15-.06.26-.18.32l-4.24,2.46c-.12.06-.26.06-.38,0l-4.24-2.46c-.12-.06-.18-.21-.18-.32v-4.93c0-.15.06-.26.18-.32l4.24-2.46c.12-.06.26-.06.38,0l4.24,2.46c.12.06.18.21.18.32v4.93ZM168.75,51.54c.47-.26.73-.76.73-1.29v-3.49c0-.53-.29-1.03-.73-1.29l-12.32-7.16c-.46-.26-1.03-.26-1.49,0l-12.41,7.19c-.47.26-.76.76-.76,1.29v14.35c0,.53.29,1.03.76,1.29l12.32,7.04c.47.26,1.02.26,1.46,0l7.46-4.17c.23-.12.38-.38.38-.65s-.15-.53-.38-.65l-12.46-7.19c-.23-.15-.38-.38-.38-.65v-4.49c0-.26.15-.53.38-.64l3.89-2.23c.23-.15.53-.15.76,0l3.89,2.23c.23.15.38.38.38.64v3.52c0,.26.15.53.38.65.23.15.53.15.76,0l7.37-4.31h0Z"/>
      <path class="cls-5" d="M155.5,50.87c.09-.06.2-.06.29,0l2.37,1.38c.09.06.15.16.15.26v2.76c0,.11-.05.21-.15.26l-2.37,1.38c-.09.06-.2.06-.29,0l-2.37-1.38c-.09-.06-.15-.16-.15-.26v-2.76c0-.12.06-.21.15-.26l2.37-1.38h0Z"/>
      <path class="cls-3" d="M87.06,38.37c.46-.26,1.03-.26,1.49,0l12.29,7.13c.47.26.73.76.73,1.29v14.23c0,.53-.29,1.03-.73,1.29l-12.29,7.13c-.46.26-1.03.26-1.49,0l-12.29-7.13c-.47-.26-.73-.76-.73-1.29v-14.26c0-.53.29-1.03.73-1.29,0,0,12.29-7.1,12.29-7.1Z"/>
      <path class="cls-2" d="M100.78,45.47l-12.23-7.13c-.12-.06-.25-.11-.38-.15l-13.84,23.77c.12.15.26.26.41.35l12.32,7.13c.38.21.79.26,1.17.12l12.93-23.74c-.09-.15-.23-.26-.38-.35h0Z"/>
      <path class="cls-4" d="M88.52,69.44l12.26-7.13c.47-.26.67-.76.67-1.29v-.06l-13.28-22.74c-.38-.12-.79-.06-1.14.15l-12.17,7.04,13.23,24.18c.15-.03.3-.08.44-.15Z"/>
    </g>
  </g>
  <g>
    <path class="cls-1" d="M189.51,70c-.44,0-.85-.12-1.23-.32l-3.89-2.32c-.59-.32-.29-.44-.12-.5.79-.26.94-.32,1.76-.79.09-.06.21-.03.29.03l2.98,1.79c.12.06.26.06.35,0l11.7-6.78c.12-.06.18-.18.18-.32v-13.53c0-.15-.06-.26-.18-.32l-11.68-6.75c-.12-.06-.26-.06-.35,0l-11.67,6.75c-.12.06-.18.21-.18.32v13.53c0,.12.06.26.18.32l3.19,1.85c1.73.88,2.81-.15,2.81-1.17v-13.35c0-.18.15-.35.35-.35h1.49c.18,0,.35.15.35.35v13.35c0,2.32-1.26,3.67-3.45,3.67-.67,0-1.2,0-2.69-.73l-3.07-1.76c-.76-.44-1.23-1.26-1.23-2.14v-13.53c0-.88.47-1.7,1.23-2.14l11.7-6.78c.73-.41,1.73-.41,2.46,0l11.7,6.78c.76.44,1.23,1.26,1.23,2.14v13.53c0,.88-.47,1.7-1.23,2.14l-11.7,6.78c-.44.15-.88.26-1.29.26h0Z"/>
    <path class="cls-1" d="M193.11,60.67c-5.12,0-6.17-2.35-6.17-4.34,0-.18.15-.35.35-.35h1.52c.18,0,.32.12.32.29.23,1.56.91,2.32,4.01,2.32,2.46,0,3.51-.56,3.51-1.88,0-.76-.29-1.32-4.13-1.7-3.19-.32-5.18-1.03-5.18-3.58,0-2.38,1.99-3.79,5.33-3.79,3.75,0,5.59,1.29,5.82,4.11,0,.09-.03.18-.09.26-.06.06-.15.12-.23.12h-1.55c-.15,0-.29-.11-.32-.26-.35-1.61-1.26-2.14-3.66-2.14-2.69,0-3.01.94-3.01,1.64,0,.85.38,1.12,4.01,1.58,3.6.47,5.3,1.14,5.3,3.7s-2.11,4.02-5.82,4.02ZM209.96,46.47c0,1.23-1.02,2.26-2.25,2.26-1.25,0-2.25-1.01-2.25-2.26,0-1.29,1.05-2.26,2.25-2.26,1.25,0,2.25,1.01,2.25,2.26ZM205.84,46.47c0,1.06.85,1.91,1.87,1.91s1.9-.88,1.9-1.91-.85-1.88-1.9-1.88c-1.03,0-1.87.83-1.87,1.87,0,0,0,0,0,.01ZM206.86,45.21h.88c.29,0,.88,0,.88.67,0,.47-.29.56-.47.62.35.03.38.26.41.59.03.21.06.56.12.67h-.53c0-.12-.09-.76-.09-.79-.03-.15-.09-.21-.26-.21h-.44v1.03h-.5v-2.58ZM207.36,46.32h.38c.32,0,.38-.23.38-.35,0-.35-.23-.35-.38-.35h-.41v.7s.03,0,.03,0Z"/>
  </g>
</svg>