<?xml version="1.0" encoding="UTF-8"?>
<svg id="Layer_1" data-name="Layer 1" xmlns="http://www.w3.org/2000/svg" viewBox="0 0 250 90">
  <defs>
    <style>
      .cls-1 {
        fill: #000;
        stroke-width: 0px;
      }
    </style>
  </defs>
  <path class="cls-1" d="M63.91,31.79c-.21-.92-.51-1.82-.89-2.69-.39-.86-.86-1.69-1.41-2.46v-.04c-4.65-6.65-13.83-8.62-20.46-4.39l-11.65,7.42c-.78.49-1.52,1.07-2.18,1.71-.67.64-1.26,1.35-1.78,2.12-.52.77-.96,1.59-1.31,2.44-.35.86-.61,1.75-.77,2.66-.14.76-.21,1.54-.22,2.31-.01.78.04,1.55.16,2.32.12.77.3,1.52.54,2.26.24.74.55,1.45.91,2.14-.25.38-.48.77-.69,1.17-.21.4-.4.81-.57,1.23-.17.42-.31.85-.44,1.28-.12.43-.23.87-.31,1.32-.17.93-.24,1.88-.22,2.82.02.95.14,1.89.35,2.81.21.92.51,1.82.9,2.69.39.86.86,1.69,1.41,2.46,4.65,6.65,13.83,8.61,20.46,4.39l11.65-7.39c.78-.49,1.51-1.07,2.18-1.71.67-.64,1.26-1.35,1.78-2.12.52-.77.96-1.59,1.31-2.44.35-.86.61-1.75.78-2.66.28-1.53.3-3.1.06-4.63-.12-.77-.3-1.52-.54-2.26-.24-.74-.55-1.45-.91-2.14.25-.38.48-.77.69-1.17.21-.4.4-.81.57-1.23s.31-.85.44-1.28c.12-.43.23-.87.31-1.32.17-.93.24-1.88.22-2.82-.02-.95-.14-1.89-.35-2.81ZM58.28,36.15c-.02.09-.04.18-.06.27-.02.09-.04.18-.06.27-.02.09-.05.18-.07.27-.03.09-.05.18-.08.27l-.22.67-.59-.45c-.34-.25-.7-.49-1.06-.71-.36-.22-.74-.43-1.12-.62-.38-.19-.77-.37-1.17-.52-.4-.16-.8-.3-1.21-.42l-.45-.13.04-.45c.01-.15.01-.31,0-.46-.01-.15-.04-.3-.08-.45-.04-.15-.09-.29-.16-.43-.07-.14-.14-.27-.23-.4-.16-.23-.36-.43-.58-.6-.22-.17-.47-.3-.74-.4-.26-.1-.54-.15-.82-.16-.28-.01-.56.02-.83.09-.06.02-.13.04-.19.06-.06.02-.12.05-.18.07-.06.03-.12.05-.18.09-.06.03-.11.06-.17.1l-11.66,7.41c-.28.18-.53.42-.72.7-.09.14-.17.29-.24.44-.06.16-.11.32-.14.48-.03.17-.04.34-.04.51,0,.17.03.34.06.51.04.17.09.33.16.49.07.16.16.31.26.45.16.23.36.44.58.61s.47.31.73.41c.26.1.54.16.82.17.28.02.56-.01.84-.08.06-.02.12-.04.19-.06.06-.02.12-.05.18-.07.06-.03.12-.05.18-.08.06-.03.11-.06.17-.1l4.47-2.83c.18-.12.37-.23.56-.33.19-.1.38-.2.58-.28.2-.09.4-.17.6-.24.2-.07.41-.13.62-.19.91-.24,1.85-.33,2.79-.29.94.05,1.87.24,2.75.56.88.33,1.71.79,2.46,1.36.74.58,1.4,1.26,1.93,2.04.33.46.62.96.85,1.48.23.52.41,1.06.54,1.61.13.55.2,1.12.21,1.69.01.57-.03,1.14-.13,1.7-.1.55-.25,1.09-.46,1.6-.21.52-.47,1.01-.78,1.47-.31.46-.67.89-1.07,1.28s-.84.73-1.31,1.03l-11.66,7.42c-.18.12-.37.23-.56.33-.19.1-.39.2-.58.28-.2.09-.4.17-.6.24-.2.07-.41.14-.62.19-1.83.48-3.77.38-5.55-.28-.88-.33-1.71-.79-2.46-1.36-.74-.58-1.4-1.26-1.93-2.04-.33-.46-.61-.96-.85-1.48-.23-.52-.41-1.06-.54-1.61-.12-.55-.19-1.12-.21-1.69-.01-.57.03-1.14.13-1.7.02-.09.03-.18.05-.27.02-.09.04-.18.06-.27.02-.09.05-.18.07-.27s.05-.18.08-.27l.22-.67.6.45c.34.25.7.49,1.06.71.36.22.74.43,1.12.62.38.19.77.36,1.16.52.39.16.8.3,1.2.42l.45.13-.04.45c-.01.15,0,.3,0,.45.02.15.04.3.09.45.04.15.09.29.16.43.07.14.14.27.23.39.16.23.36.44.58.61.22.17.47.31.74.41.27.1.55.16.83.17.28.01.57-.01.84-.09.06-.02.13-.04.19-.06.06-.02.12-.05.18-.07.06-.03.12-.05.18-.09.06-.03.11-.06.17-.1l11.64-7.42c.29-.18.53-.42.72-.7.09-.14.17-.29.24-.44s.11-.32.14-.48c.09-.51.02-1.04-.19-1.51-.07-.16-.16-.31-.26-.44-.16-.23-.36-.44-.58-.61-.45-.35-1-.55-1.57-.58-.28-.01-.57.01-.84.09-.06.02-.13.04-.19.06-.06.02-.12.05-.18.07-.06.03-.12.05-.18.08-.06.03-.11.06-.17.1l-4.47,2.84c-.36.23-.75.43-1.14.61-.2.09-.4.17-.6.24s-.41.13-.62.19c-.91.23-1.85.33-2.79.28-.94-.05-1.86-.24-2.75-.57-.88-.33-1.71-.79-2.45-1.36-.74-.58-1.39-1.26-1.93-2.03-.66-.93-1.13-1.98-1.38-3.09-.12-.55-.19-1.12-.21-1.69-.01-.57.03-1.14.13-1.7.2-1.1.62-2.15,1.25-3.08.31-.46.67-.89,1.07-1.28.4-.39.84-.73,1.31-1.03l11.67-7.42c.18-.12.37-.22.56-.33.19-.1.38-.2.58-.28.2-.09.4-.17.6-.24.2-.07.41-.14.62-.19.91-.24,1.85-.33,2.79-.28.94.05,1.87.24,2.75.57s1.71.79,2.46,1.37c.74.58,1.4,1.26,1.93,2.04.66.93,1.14,1.98,1.39,3.09.13.55.2,1.12.21,1.69.01.57-.03,1.14-.13,1.7Z"/>
  <path class="cls-1" d="M89.39,58.78c-.54.01-1.08-.01-1.61-.08-.53-.07-1.06-.17-1.58-.32-.52-.15-1.03-.33-1.52-.55-.49-.22-.97-.48-1.42-.77-.42-.28-.82-.59-1.19-.94s-.71-.72-1.01-1.12c-.3-.4-.57-.83-.8-1.28s-.42-.92-.57-1.4l3.72-1.37c.13.3.28.58.45.86s.36.54.56.79c.21.25.43.48.67.7.24.22.49.42.76.6.27.18.56.34.85.48s.6.25.91.35.63.16.96.2c.32.04.65.06.98.06.31.02.63,0,.94-.03s.62-.1.92-.19.59-.21.87-.35c.28-.14.55-.3.8-.49.22-.18.42-.39.59-.62.34-.46.57-1,.67-1.56.05-.28.07-.57.05-.86,0-.13,0-.27-.02-.4-.01-.13-.04-.26-.07-.39s-.07-.26-.11-.38c-.05-.13-.1-.25-.16-.37-.1-.21-.23-.42-.36-.61-.07-.1-.14-.19-.22-.28-.08-.09-.15-.18-.24-.27-.1-.09-.21-.19-.33-.27s-.23-.17-.34-.25c-.12-.08-.24-.15-.36-.22-.12-.07-.25-.13-.38-.19-.63-.32-1.16-.56-1.58-.72-.42-.17-1.04-.39-1.85-.67-1.02-.36-1.79-.63-2.29-.84-.17-.07-.34-.15-.51-.23-.17-.08-.34-.16-.5-.24-.17-.08-.33-.17-.5-.26-.16-.09-.33-.18-.49-.28-.17-.09-.34-.19-.51-.3-.17-.11-.33-.22-.48-.34-.16-.12-.31-.24-.45-.37-.15-.13-.29-.27-.42-.41-.12-.14-.23-.28-.33-.43-.1-.15-.2-.3-.3-.45-.09-.16-.18-.31-.26-.48s-.16-.33-.22-.49c-.8-1.94-.63-4.14.46-5.93.36-.59.8-1.12,1.32-1.57,1.53-1.34,3.59-2.01,6.21-2.01,2.19,0,3.98.48,5.39,1.44.34.23.66.48.95.76.3.28.56.59.81.91.24.33.45.67.63,1.04s.33.74.44,1.13l-3.66,1.22c-.09-.2-.2-.4-.32-.59s-.26-.37-.41-.53c-.3-.33-.66-.62-1.05-.84-.23-.13-.48-.24-.73-.34s-.51-.18-.77-.24-.53-.11-.79-.13c-.27-.03-.54-.03-.8-.02-.26-.02-.53,0-.79.02-.26.03-.52.08-.77.15-.25.07-.5.16-.74.27s-.47.24-.69.39c-.18.14-.34.3-.48.47s-.26.37-.35.57-.16.42-.2.64c-.04.22-.06.45-.05.67,0,.35.08.69.22,1,.07.16.16.31.26.44.1.14.22.27.35.38.13.12.26.24.4.35s.28.22.43.32c.29.2.61.37.93.51.61.25,1.54.59,2.78,1.03.76.28,1.34.49,1.69.63.35.14.89.37,1.62.7.14.06.28.13.42.2s.28.14.41.21c.14.08.27.15.41.23.13.08.27.16.4.25.12.08.23.17.35.26.23.17.45.36.67.54.11.09.22.19.32.28.34.3.65.64.91,1.01.09.12.17.25.25.38.07.14.14.27.21.41.13.28.25.57.34.86.05.15.09.29.13.44.05.17.09.35.13.53.04.18.07.36.09.54.02.18.04.36.05.54.01.18.02.36.02.54,0,2.49-.85,4.44-2.55,5.84s-3.88,2.11-6.55,2.11h0ZM113.79,58.33l-9.14-26.65h4.26l6.05,18.57c.08.25.16.5.24.75.08.25.15.51.22.76.14.51.27,1.02.38,1.53.06-.26.11-.51.18-.77.06-.26.13-.51.2-.76s.14-.51.22-.76c.08-.25.16-.5.24-.75l5.98-18.57h4.23l-9.1,26.64h-3.96ZM134.92,58.33v-26.65h16.53v3.73h-12.57v7.31h8.11v3.73h-8.11v8.13h13.41v3.73l-17.37.03ZM162.38,58.33v-26.65h3.96v22.83h13.02v3.8h-16.98ZM194.28,35.5v22.83h-3.96v-22.83h-7.54v-3.8h19.03v3.8h-7.53ZM210.01,58.33v-26.65h16.53v3.73h-12.57v7.31h8.11v3.73h-8.11v8.13h13.41v3.73l-17.36.03Z"/>
</svg>