<?xml version="1.0" encoding="UTF-8" standalone="no"?>
<!DOCTYPE svg PUBLIC "-//W3C//DTD SVG 1.1//EN" "http://www.w3.org/Graphics/SVG/1.1/DTD/svg11.dtd">
<svg width="100%" height="100%" viewBox="0 0 250 90" version="1.1" xmlns="http://www.w3.org/2000/svg" xmlns:xlink="http://www.w3.org/1999/xlink" xml:space="preserve" xmlns:serif="http://www.serif.com/" style="fill-rule:evenodd;clip-rule:evenodd;stroke-linejoin:round;stroke-miterlimit:2;">
    <g transform="matrix(0.0494724,0,0,0.0494724,122.624,44.7908)">
        <g id="Unreal_Engine_Logo.svg" transform="matrix(3.08,0,0,3.08,48.0197,4.22828)">
            <g transform="matrix(1,0,0,1,-321.41,-262.51)">
                <clipPath id="_clip1">
                    <rect x="0" y="0" width="642.82" height="525.02"/>
                </clipPath>
                <g clip-path="url(#_clip1)">
                    <g transform="matrix(1,0,0,1,-16.51,-8.48)">
                        <path d="M218.53,532.89L168.3,532.89L168.3,486.79L217.74,486.79L217.74,497L181.74,497L181.74,504.85L215.82,504.85L215.82,514.48L181.76,514.48L181.76,522.42L218.53,522.42L218.53,532.91L218.53,532.89Z"/>
                    </g>
                    <g transform="matrix(1,0,0,1,-16.51,-8.48)">
                        <path d="M507.53,532.89L458.09,532.89L458.09,487.52L506.76,487.52L506.76,497.52L471.34,497.52L471.34,505.24L504.88,505.24L504.88,514.71L471.34,514.71L471.34,522.53L507.53,522.53L507.53,532.89Z"/>
                    </g>
                    <g transform="matrix(1,0,0,1,-16.51,-8.48)">
                        <path d="M286.67,532.89L266.32,532.89L239.56,498.41L239.3,498.41L239.3,532.89L226,532.89L226,486.79L246.65,486.79L273.08,521.31L273.34,521.31L273.34,486.79L286.67,486.79L286.67,532.89Z"/>
                    </g>
                    <g transform="matrix(1,0,0,1,-16.51,-8.48)">
                        <path d="M447.7,532.89L427.38,532.89L400.62,498.41L400.36,498.41L400.36,532.89L387,532.89L387,486.79L407.65,486.79L434.08,521.31L434.34,521.31L434.34,486.79L447.7,486.79L447.7,532.89Z"/>
                    </g>
                    <g transform="matrix(1,0,0,1,-16.51,-8.48)">
                        <path d="M325.91,533.5C321.65,533.5 317.983,533.393 314.91,533.18C312.241,533.044 309.592,532.649 307,532C305.1,531.526 303.31,530.687 301.73,529.53C300.347,528.452 299.26,527.041 298.57,525.43C297.739,523.478 297.21,521.411 297,519.3C296.719,516.469 296.589,513.625 296.61,510.78L296.61,509.43C296.59,506.565 296.727,503.7 297.02,500.85C297.217,498.73 297.736,496.653 298.56,494.69C299.261,493.085 300.35,491.679 301.73,490.6C303.311,489.45 305.107,488.627 307.01,488.18C309.596,487.536 312.238,487.144 314.9,487.01C318,486.81 321.667,486.71 325.9,486.71L327.9,486.71C331.447,486.71 334.553,486.787 337.22,486.94C339.527,487.055 341.823,487.335 344.09,487.78C345.748,488.091 347.349,488.65 348.84,489.44C350.039,490.077 351.068,490.993 351.84,492.11C352.605,493.289 353.119,494.614 353.35,496C353.649,497.747 353.79,499.518 353.77,501.29L353.77,503.06L340.77,503.06L340.77,502.5C340.795,501.595 340.628,500.696 340.28,499.86C339.873,499.076 339.194,498.468 338.37,498.15C337.088,497.654 335.74,497.351 334.37,497.25C332.65,497.083 330.383,496.997 327.57,496.99L326.43,496.99C323.877,496.99 321.697,497.033 319.89,497.12C318.372,497.173 316.863,497.363 315.38,497.69C314.352,497.91 313.381,498.343 312.53,498.96C311.802,499.538 311.254,500.312 310.95,501.19C310.573,502.322 310.351,503.499 310.29,504.69C310.19,506.08 310.14,507.75 310.14,509.69L310.14,510.51C310.14,512.42 310.19,514.05 310.29,515.41C310.353,516.578 310.575,517.732 310.95,518.84C311.254,519.713 311.803,520.48 312.53,521.05C313.381,521.667 314.352,522.1 315.38,522.32C316.863,522.646 318.373,522.837 319.89,522.89C321.697,522.983 323.877,523.027 326.43,523.02L327.57,523.02C329.65,523.02 331.44,523.02 332.94,522.91C334.44,522.8 335.71,522.71 336.74,522.55C337.587,522.431 338.415,522.199 339.2,521.86C339.761,521.61 340.252,521.225 340.63,520.74C340.975,520.277 341.204,519.739 341.3,519.17C341.411,518.469 341.464,517.76 341.46,517.05L341.46,515.77L323.77,515.77L323.77,506.87L354.3,506.87L354.3,517.11C354.322,519.062 354.178,521.012 353.87,522.94C353.623,524.468 353.094,525.936 352.31,527.27C351.555,528.488 350.528,529.515 349.31,530.27C347.814,531.163 346.182,531.808 344.48,532.18C342.177,532.7 339.836,533.035 337.48,533.18C334.76,533.38 331.6,533.48 327.98,533.48L325.91,533.5Z"/>
                    </g>
                    <g transform="matrix(1,0,0,1,-16.51,-8.48)">
                        <rect x="363.69" y="487.24" width="13.51" height="45.76"/>
                    </g>
                    <g transform="matrix(1,0,0,1,-16.51,-8.48)">
                        <path d="M64.72,462.64C58.187,462.64 52.46,462.463 47.54,462.11C43.252,461.859 38.991,461.261 34.8,460.32C31.681,459.647 28.687,458.486 25.93,456.88C23.669,455.519 21.75,453.658 20.32,451.44C18.845,449.061 17.843,446.419 17.37,443.66C16.753,440.181 16.466,436.653 16.51,433.12L16.51,381.12L40.21,381.12L40.21,425.44C40.21,428.18 40.307,430.533 40.5,432.5C40.636,434.216 41.03,435.902 41.67,437.5C42.21,438.825 43.09,439.984 44.22,440.86C45.544,441.811 47.043,442.491 48.63,442.86C50.841,443.42 53.102,443.755 55.38,443.86C58.06,444.01 61.24,444.09 64.95,444.09L66.95,444.09C70.65,444.09 73.837,444.003 76.51,443.83C78.787,443.716 81.05,443.398 83.27,442.88C84.862,442.523 86.363,441.843 87.68,440.88C88.796,439.991 89.669,438.836 90.22,437.52C90.868,435.924 91.266,434.237 91.4,432.52C91.587,430.52 91.68,428.187 91.68,425.52L91.68,381.11L115.39,381.11L115.39,433.11C115.424,436.63 115.157,440.146 114.59,443.62C114.151,446.385 113.176,449.039 111.72,451.43C110.312,453.645 108.413,455.507 106.17,456.87C103.421,458.478 100.433,459.639 97.32,460.31C93.112,461.253 88.835,461.852 84.53,462.1C79.563,462.447 73.78,462.623 67.18,462.63L64.72,462.64Z"/>
                    </g>
                    <g transform="matrix(1,0,0,1,-16.51,-8.48)">
                        <path d="M237.26,461.65L201.82,461.65L155.16,401.35L154.7,401.35L154.7,461.65L131.46,461.65L131.46,381L167.46,381L213.55,441.36L214,441.36L214,381L237.24,381L237.24,461.61L237.26,461.65Z"/>
                    </g>
                    <g transform="matrix(1,0,0,1,-16.51,-8.48)">
                        <path d="M307.13,421.72C311.22,421.72 314.47,421.6 316.9,421.35C318.833,421.237 320.717,420.701 322.42,419.78C323.637,419.046 324.52,417.865 324.88,416.49C325.31,414.659 325.505,412.78 325.46,410.9L325.46,409.51C325.503,407.653 325.308,405.798 324.88,403.99C324.527,402.616 323.627,401.445 322.39,400.75C320.666,399.864 318.775,399.35 316.84,399.24C314.41,398.99 311.18,398.87 307.13,398.87L277.59,398.87L277.59,421.72L307.13,421.72ZM349.33,461.65L325.91,461.65L325.91,455.11C325.927,453.08 325.834,451.05 325.63,449.03C325.492,447.532 325.082,446.071 324.42,444.72C323.827,443.567 322.941,442.591 321.85,441.89C320.502,441.078 319.018,440.519 317.47,440.24C315.261,439.803 313.02,439.542 310.77,439.46C308.103,439.32 304.943,439.25 301.29,439.25L277.59,439.25L277.59,461.65L254.11,461.65L254.11,381L316.64,381C322.066,380.911 327.489,381.319 332.84,382.22C336.448,382.772 339.875,384.17 342.84,386.3C345.289,388.226 347.065,390.881 347.91,393.88C348.925,397.681 349.396,401.607 349.31,405.54L349.31,408.37C349.343,411.158 349.095,413.942 348.57,416.68C348.149,418.854 347.332,420.932 346.16,422.81C345.056,424.522 343.592,425.972 341.87,427.06C339.875,428.273 337.687,429.136 335.4,429.61L335.4,430.07C337.772,430.418 340.101,431.011 342.35,431.84C344.052,432.463 345.536,433.568 346.62,435.02C347.748,436.673 348.474,438.567 348.74,440.55C349.163,443.44 349.354,446.359 349.31,449.28L349.31,461.61L349.33,461.65Z"/>
                    </g>
                    <g transform="matrix(1,0,0,1,-16.51,-8.48)">
                        <path d="M452.32,461.65L364.72,461.65L364.72,381L450.94,381L450.94,398.83L388.19,398.83L388.19,412.54L447.62,412.54L447.62,429.38L388.19,429.38L388.19,443.27L452.32,443.27L452.32,461.65Z"/>
                    </g>
                    <g transform="matrix(1,0,0,1,-16.51,-8.48)">
                        <path d="M531.52,430.41L515.09,398.06L514.51,398.06L498.2,430.41L531.52,430.41ZM573,461.71L547.44,461.71L540.05,447.24L489.78,447.24L482.51,461.71L457.14,461.71L500.43,381.11L529.52,381.11L573,461.71Z"/>
                    </g>
                    <g transform="matrix(1,0,0,1,-16.51,-8.48)">
                        <path d="M659.33,461.71L581.69,461.71L581.69,381.11L605.39,381.11L605.39,443L659.33,443L659.33,461.75L659.33,461.71Z"/>
                    </g>
                    <g transform="matrix(1,0,0,1,-16.51,-8.48)">
                        <path d="M434.82,195C432.01,208.56 419.5,243.34 379.63,262.18L363.63,244.18L336.63,271.34C305.489,270.921 276.278,255.937 257.77,230.89C260.643,231.783 263.609,232.341 266.61,232.55C271.03,232.63 275.82,231.01 275.82,223.55L275.82,150.3C275.825,150.159 275.827,150.018 275.827,149.877C275.827,143.262 270.383,137.817 263.767,137.817C262.711,137.817 261.66,137.956 260.64,138.23C248.14,141.09 238.14,172.3 238.14,172.3C237.859,143.146 250.438,115.301 272.5,96.24C291.12,80.46 309.31,75 323.13,72.86C309.48,80.64 301.8,93.34 301.8,104C301.8,121.09 312.12,119.07 315.18,116.55L315.18,215.47C315.697,216.713 316.369,217.885 317.18,218.96C319.952,222.793 324.42,225.048 329.15,225C339.49,225 352.9,213.2 352.9,213.2L352.9,133.1C352.9,124.95 346.76,115.1 340.61,111.74C340.61,111.74 351.99,109.74 360.79,116.45C362.44,114.429 364.196,112.496 366.05,110.66C386.51,90.56 405.82,84.86 421.9,82C437.98,79.14 392.63,105 392.63,135.8C392.63,158.73 393.22,214.64 393.22,214.64C404.11,225.1 420.24,210 434.82,195Z"/>
                    </g>
                    <g transform="matrix(1,0,0,1,-16.51,-8.48)">
                        <path d="M337.92,8.48C248.466,8.485 174.86,82.096 174.86,171.55C174.86,261.008 248.472,334.62 337.93,334.62C427.388,334.62 501,261.008 501,171.55C501,171.547 501,171.54 501,171.54C501,82.088 427.392,8.48 337.94,8.48C337.933,8.48 337.927,8.48 337.92,8.48ZM337.92,328.09C337.917,328.09 337.913,328.09 337.91,328.09C252.029,328.09 181.36,257.421 181.36,171.54C181.36,85.659 252.029,14.99 337.91,14.99C423.791,14.99 494.46,85.659 494.46,171.54C494.46,257.417 423.797,328.085 337.92,328.09Z"/>
                    </g>
                </g>
            </g>
            <g>
            </g>
        </g>
    </g>
</svg>
