<?xml version="1.0" encoding="UTF-8"?>
<svg id="Layer_1" data-name="Layer 1" xmlns="http://www.w3.org/2000/svg" viewBox="0 0 250 90">
  <defs>
    <style>
      .cls-1 {
        fill: #000;
        stroke-width: 0px;
      }
    </style>
  </defs>
  <path class="cls-1" d="M192.25,25.02v6.38h-13.71v33.56h-6.86V31.4h-13.99v-6.38h34.56ZM193.79,61.15c.48,0,.91.17,1.26.52.36.35.54.76.55,1.25,0,.33-.09.63-.26.9-.17.27-.39.49-.66.65-.27.16-.57.24-.89.24-.5,0-.93-.17-1.29-.52s-.53-.77-.53-1.27c0-.49.17-.9.53-1.25s.78-.52,1.29-.52ZM57.93,64.95l-25.28-31.42v31.4h-6.85V25h8.57l31.93,39.65V31.4s0-6.38,0-6.38h34.56v6.38h-27.7v10.26h22.28v6.38h-22.28v10.54h27.7v6.38h-42.93ZM122.82,47.97l4.49,5.59-9.21,11.44h-9l13.71-17.03ZM118.11,25.03l11.6,14.4,11.56-14.36h8.97s-16.04,19.94-16.04,19.94l16.07,19.95h-9l-32.13-39.94h8.97ZM205.49,47.88h3.04v11.7c0,1.08-.24,2-.69,2.77-.46.77-1.1,1.36-1.91,1.78-.81.41-1.77.62-2.85.62-.99,0-1.88-.18-2.67-.53-.79-.35-1.42-.87-1.88-1.56-.46-.69-.69-1.54-.69-2.57h3.04c0,.45.11.84.3,1.16.19.32.46.57.81.75.35.17.75.26,1.2.26.49,0,.91-.1,1.24-.31.34-.2.6-.5.78-.91.18-.4.27-.89.27-1.48v-11.7ZM221.03,52.46c-.07-.71-.4-1.26-.97-1.66-.57-.4-1.31-.59-2.22-.59-.64,0-1.18.1-1.64.28-.46.19-.81.45-1.05.77-.24.32-.36.7-.37,1.11,0,.35.08.65.25.9.16.26.38.47.66.65.28.18.59.32.93.44.34.12.69.22,1.03.3l1.58.39c.64.15,1.25.34,1.84.59.59.25,1.12.56,1.59.94.47.38.84.84,1.11,1.37.27.54.41,1.16.41,1.89,0,.97-.25,1.83-.76,2.57-.51.74-1.24,1.31-2.19,1.73-.95.41-2.1.62-3.46.62s-2.45-.2-3.41-.6c-.97-.4-1.72-.98-2.26-1.75-.54-.77-.84-1.71-.88-2.81h3.01c.04.58.23,1.06.54,1.45.32.38.74.67,1.25.86.52.19,1.09.28,1.73.28s1.25-.1,1.76-.3c.5-.2.9-.47,1.18-.83.29-.35.43-.77.44-1.24,0-.43-.13-.8-.39-1.08-.26-.28-.61-.52-1.06-.71-.45-.19-.98-.37-1.59-.52l-1.92-.49c-1.39-.35-2.49-.89-3.29-1.61-.81-.72-1.21-1.67-1.21-2.87,0-.98.27-1.84.81-2.58.54-.74,1.28-1.31,2.21-1.72.94-.41,2-.61,3.18-.61s2.25.2,3.15.61c.91.41,1.62.97,2.13,1.7.52.72.79,1.55.8,2.49h-2.94Z"/>
</svg>