<?xml version="1.0" encoding="UTF-8"?>
<svg id="Layer_1" data-name="Layer 1" xmlns="http://www.w3.org/2000/svg" viewBox="0 0 250 90">
  <defs>
    <style>
      .cls-1 {
        fill: #000;
        fill-rule: evenodd;
        stroke-width: 0px;
      }
    </style>
  </defs>
  <path class="cls-1" d="M67.14,51.52c-.36-.56-.36-1.28-.01-1.84l13.09-21.35c.73-1.19,2.49-1.08,3.07.18l11.96,25.93c.44.96-.07,2.09-1.08,2.4l-18.6,5.58c-.75.22-1.55-.08-1.97-.74l-6.44-10.17ZM81.73,34.57c.13-.63.99-.72,1.24-.13l8.25,19.08c.16.36-.04.77-.41.89l-12.85,3.84c-.47.14-.92-.27-.83-.76l4.6-22.92ZM129.53,54.28h3.65v-13.39h-3.65v13.39ZM129.37,37.42c0-1.19.66-1.78,1.99-1.78s1.99.6,1.99,1.78c0,.57-.17,1.01-.5,1.32-.33.32-.83.47-1.49.47-1.33,0-1.99-.6-1.99-1.8ZM179.5,48.07l-1.41.05c-1.06.03-1.85.22-2.37.58-.52.35-.78.89-.78,1.61,0,1.03.59,1.55,1.77,1.55.85,0,1.52-.24,2.03-.73.51-.49.76-1.13.76-1.94v-1.1ZM180.58,54.28l-.71-1.82h-.1c-.62.77-1.25,1.31-1.9,1.61-.65.3-1.5.45-2.54.45-1.29,0-2.3-.37-3.04-1.1-.74-.73-1.11-1.78-1.11-3.14s.5-2.47,1.49-3.14c.99-.67,2.49-1.05,4.5-1.12l2.32-.07v-.59c0-1.36-.69-2.04-2.08-2.04-1.07,0-2.33.32-3.77.97l-1.21-2.47c1.54-.81,3.25-1.21,5.13-1.21s3.17.39,4.13,1.17c.96.78,1.44,1.97,1.44,3.57v8.92h-2.55ZM160.52,54.28h-3.65v-7.82c0-.97-.16-1.69-.48-2.17-.32-.48-.83-.72-1.53-.72-.93,0-1.61.34-2.04,1.03-.42.69-.63,1.82-.63,3.39v6.3h-3.65v-13.39h2.79l.49,1.71h.2c.36-.61.88-1.1,1.56-1.44.68-.35,1.46-.52,2.34-.52,2,0,3.36.66,4.07,1.96h.32c.36-.62.89-1.11,1.59-1.45.7-.34,1.49-.52,2.37-.52,1.52,0,2.67.39,3.44,1.17.78.78,1.17,2.03,1.17,3.74v8.73h-3.67v-7.82c0-.97-.16-1.69-.48-2.17-.32-.48-.83-.72-1.53-.72-.89,0-1.56.32-2.01.96-.44.64-.66,1.65-.66,3.04v6.72ZM144.61,53.44c.95-.72,1.43-1.76,1.43-3.14,0-.66-.12-1.23-.35-1.71-.23-.48-.59-.9-1.08-1.27-.49-.37-1.25-.76-2.3-1.19-1.17-.47-1.93-.83-2.28-1.07-.35-.24-.52-.52-.52-.85,0-.58.54-.87,1.62-.87.61,0,1.2.09,1.78.28.58.18,1.21.42,1.88.71l1.1-2.64c-1.53-.7-3.09-1.05-4.71-1.05-1.69,0-3,.33-3.92.98-.92.65-1.38,1.57-1.38,2.76,0,.69.11,1.28.33,1.76.22.48.57.9,1.05,1.26.48.37,1.24.77,2.27,1.2.72.3,1.29.57,1.72.8.43.23.73.43.91.61.18.18.26.41.26.7,0,.77-.66,1.15-1.99,1.15-.65,0-1.4-.11-2.25-.32-.85-.22-1.62-.48-2.29-.8v3.02c.6.26,1.24.45,1.93.58.69.13,1.52.2,2.49.2,1.9,0,3.33-.36,4.28-1.08ZM127.59,40.74c-.33-.07-.74-.11-1.23-.11-.83,0-1.6.23-2.31.69-.71.46-1.27,1.06-1.68,1.81h-.18l-.54-2.25h-2.77v13.39h3.65v-6.82c0-1.08.33-1.92.98-2.52.65-.6,1.56-.9,2.73-.9.42,0,.78.04,1.08.12l.28-3.43ZM108.13,45h1.22c1.14,0,2-.23,2.56-.68.57-.45.85-1.11.85-1.97s-.24-1.51-.71-1.93c-.48-.42-1.22-.62-2.23-.62h-1.69v5.2ZM116.51,42.23c0,1.88-.59,3.33-1.77,4.32-1.18,1-2.85,1.5-5.02,1.5h-1.59v6.23h-3.71v-17.51h5.59c2.12,0,3.74.46,4.85,1.37,1.11.91,1.66,2.28,1.66,4.09Z"/>
</svg>