<?xml version="1.0" encoding="UTF-8"?>
<svg id="Layer_1" data-name="Layer 1" xmlns="http://www.w3.org/2000/svg" viewBox="0 0 250 90">
  <defs>
    <style>
      .cls-1 {
        fill: #000;
        stroke-width: 0px;
      }
    </style>
  </defs>
  <g>
    <path id="s" class="cls-1" d="M97.88,47.75c-1.49-.83-2.28-1.49-2.28-2.44,0-1.22,1.06-1.97,2.75-1.97,1.97,0,3.69.83,3.69.83l1.38-4.21s-1.26-.98-4.99-.98c-5.19,0-8.8,2.99-8.8,7.15,0,2.36,1.69,4.17,3.93,5.46,1.81,1.02,2.44,1.77,2.44,2.83,0,1.14-.9,2.04-2.59,2.04-2.52,0-4.87-1.3-4.87-1.3l-1.45,4.21s2.2,1.45,5.86,1.45c5.35,0,9.16-2.63,9.16-7.35.08-2.59-1.89-4.4-4.21-5.74Z"/>
    <path id="h" class="cls-1" d="M119.18,38.91c-2.63,0-4.68,1.26-6.29,3.14l-.08-.04,2.28-11.95h-5.97l-5.78,30.38h5.94l1.97-10.38c.79-3.93,2.79-6.33,4.68-6.33,1.34,0,1.85.9,1.85,2.2,0,.83-.08,1.81-.28,2.63l-2.24,11.91h5.94l2.32-12.26c.28-1.3.43-2.83.43-3.89.08-3.42-1.65-5.42-4.76-5.42Z"/>
    <path id="o" class="cls-1" d="M137.46,38.91c-7.15,0-11.91,6.45-11.91,13.64,0,4.6,2.83,8.33,8.18,8.33,7.04,0,11.75-6.29,11.75-13.64.04-4.28-2.44-8.33-8.02-8.33ZM134.55,56.28c-2.04,0-2.87-1.73-2.87-3.89,0-3.42,1.77-8.96,4.99-8.96,2.12,0,2.79,1.81,2.79,3.58,0,3.69-1.77,9.28-4.91,9.28Z"/>
    <path id="p" class="cls-1" d="M160.73,38.91c-4.01,0-6.29,3.54-6.29,3.54h-.08l.35-3.18h-5.27c-.28,2.16-.75,5.42-1.22,7.9l-4.13,21.7h5.94l1.65-8.8h.12s1.22.79,3.5.79c7,0,11.56-7.15,11.56-14.39,0-3.97-1.77-7.55-6.13-7.55ZM155.07,56.4c-1.53,0-2.44-.86-2.44-.86l.98-5.54c.71-3.69,2.63-6.17,4.68-6.17,1.81,0,2.36,1.69,2.36,3.26,0,3.81-2.28,9.32-5.58,9.32Z"/>
    <path id="dot" class="cls-1" d="M175.35,30.38c-1.89,0-3.42,1.49-3.42,3.46,0,1.77,1.1,2.99,2.79,2.99h.08c1.85,0,3.46-1.26,3.5-3.46.04-1.77-1.14-2.99-2.95-2.99Z"/>
    <polygon id="i" class="cls-1" points="167.02 60.45 172.99 60.45 177.04 39.38 171.03 39.38 167.02 60.45"/>
    <path id="f" class="cls-1" d="M192.13,39.34h-4.13l.2-.98c.35-2.04,1.53-3.85,3.54-3.85,1.06,0,1.89.31,1.89.31l1.18-4.64s-1.02-.51-3.22-.51-4.21.59-5.82,1.97c-2.04,1.73-2.99,4.21-3.46,6.72l-.16.98h-2.75l-.86,4.48h2.75l-3.14,16.63h5.94l3.14-16.63h4.09l.83-4.48Z"/>
    <path id="y" class="cls-1" d="M206.44,39.38s-3.73,9.35-5.38,14.46h-.08c-.12-1.65-1.45-14.46-1.45-14.46h-6.25l3.58,19.34c.08.43.04.71-.12.98-.71,1.34-1.85,2.63-3.22,3.58-1.1.83-2.36,1.34-3.34,1.69l1.65,5.03c1.22-.28,3.69-1.26,5.82-3.22,2.71-2.55,5.23-6.45,7.78-11.79l7.27-15.6s-6.25,0-6.25,0Z"/>
  </g>
  <g>
    <path class="cls-1" d="M66.59,25.7s-.55.16-1.45.43c-.16-.51-.39-1.1-.71-1.73-1.02-1.97-2.55-3.03-4.36-3.03h0c-.12,0-.24,0-.39.04-.04-.08-.12-.12-.16-.2-.79-.86-1.81-1.26-3.03-1.22-2.36.08-4.72,1.77-6.6,4.8-1.34,2.12-2.36,4.8-2.63,6.88-2.71.83-4.6,1.42-4.64,1.45-1.38.43-1.42.47-1.57,1.77-.12.98-3.73,28.65-3.73,28.65l29.72,5.15V25.66c-.24,0-.35.04-.43.04ZM59.71,27.82c-1.57.47-3.3,1.02-4.99,1.53.47-1.85,1.42-3.69,2.52-4.91.43-.43,1.02-.94,1.69-1.26.67,1.42.83,3.34.79,4.64ZM56.49,21.61c.55,0,1.02.12,1.42.35-.63.31-1.26.83-1.85,1.42-1.49,1.61-2.63,4.13-3.11,6.52-1.42.43-2.83.86-4.13,1.26.86-3.77,4.05-9.47,7.66-9.55ZM51.93,43.23c.16,2.52,6.8,3.07,7.19,9,.28,4.68-2.48,7.86-6.45,8.1-4.8.31-7.43-2.52-7.43-2.52l1.02-4.32s2.63,2,4.76,1.85c1.38-.08,1.89-1.22,1.85-2-.2-3.3-5.62-3.11-5.97-8.53-.31-4.56,2.67-9.16,9.28-9.59,2.55-.16,3.85.47,3.85.47l-1.49,5.66s-1.69-.79-3.69-.63c-2.91.2-2.95,2.04-2.91,2.52ZM61.28,27.35c0-1.18-.16-2.87-.71-4.28,1.81.35,2.67,2.36,3.07,3.58-.71.2-1.49.43-2.36.71Z"/>
    <path class="cls-1" d="M67.93,68.62l12.34-3.07s-5.31-35.89-5.35-36.12c-.04-.24-.24-.39-.43-.39s-3.66-.08-3.66-.08c0,0-2.12-2.04-2.91-2.83v42.49Z"/>
  </g>
</svg>