<?xml version="1.0" encoding="UTF-8"?>
<svg id="Layer_1" data-name="Layer 1" xmlns="http://www.w3.org/2000/svg" viewBox="0 0 250 90">
  <defs>
    <style>
      .cls-1 {
        fill: #000;
        stroke-width: 0px;
      }
    </style>
  </defs>
  <g>
    <rect class="cls-1" x="8.05" y="52.33" width="4.89" height="4.89"/>
    <rect class="cls-1" x="12.94" y="57.22" width="6" height="6"/>
    <rect class="cls-1" x="18.83" y="49.56" width="7.67" height="7.67"/>
    <path class="cls-1" d="M26.61,25c-11.03,0-20,8.97-20,20v.02h7.78v-.15c.07-6.68,5.53-12.09,12.22-12.09s12.22,5.48,12.22,12.22-5.48,12.22-12.21,12.22v7.78c11.03,0,19.99-8.98,19.99-20s-8.97-20-20-20Z"/>
  </g>
  <path class="cls-1" d="M77.18,36.43c-2.28-1.56-5.14-2.36-8.47-2.36h-7.23v22.9h7.23c3.33,0,6.19-.85,8.47-2.51,1.24-.9,2.24-2.13,2.9-3.69.67-1.56,1.05-3.36,1.05-5.39s-.33-3.83-1.05-5.35c-.67-1.56-1.62-2.79-2.9-3.6ZM65.72,37.9h2.28c2.52,0,4.62.47,6.19,1.47,1.76,1.04,2.66,3.08,2.66,5.96s-.9,5.06-2.66,6.2c-1.52.99-3.57,1.51-6.14,1.51h-2.28v-15.14h-.05ZM86.22,33.74c-.71,0-1.28.24-1.76.71-.48.47-.76,1.04-.76,1.75s.24,1.28.71,1.8c.48.47,1.09.71,1.81.71s1.28-.24,1.81-.71c.48-.47.71-1.09.71-1.8s-.24-1.28-.71-1.75c-.52-.43-1.14-.71-1.81-.71ZM84.13,40.79h4.09v16.13h-4.09v-16.13ZM103.02,42.16c-1.24-1.09-2.62-1.7-4.09-1.7-2.24,0-4.14.76-5.57,2.32-1.47,1.51-2.19,3.45-2.19,5.77s.71,4.21,2.14,5.77c1.43,1.51,3.33,2.27,5.57,2.27,1.57,0,2.9-.43,4.04-1.28v.38c0,1.32-.38,2.37-1.05,3.08-.71.71-1.71,1.09-2.9,1.09-1.9,0-3.05-.76-4.52-2.65l-2.76,2.65.09.09c.62.85,1.52,1.66,2.71,2.41s2.76,1.18,4.52,1.18c2.43,0,4.38-.76,5.8-2.22,1.43-1.47,2.19-3.45,2.19-5.87v-14.66h-4s0,1.37,0,1.37ZM101.92,51.67c-.71.8-1.62,1.18-2.81,1.18s-2.09-.38-2.76-1.18c-.71-.8-1.05-1.85-1.05-3.17s.33-2.37,1.05-3.17c.71-.8,1.62-1.18,2.76-1.18s2.09.38,2.81,1.18c.71.8,1.05,1.89,1.05,3.17.05,1.32-.33,2.37-1.05,3.17ZM110.49,40.79h4.09v16.13h-4.09v-16.13ZM112.58,33.74c-.71,0-1.29.24-1.76.71-.48.47-.76,1.04-.76,1.75s.24,1.28.71,1.8c.48.47,1.09.71,1.81.71s1.28-.24,1.81-.71c.48-.47.71-1.09.71-1.8s-.24-1.28-.71-1.75c-.52-.43-1.1-.71-1.81-.71ZM123.53,36.43h-4v4.35h-2.33v3.69h2.33v6.67c0,2.08.43,3.6,1.24,4.45.86.85,2.33,1.32,4.38,1.32.67,0,1.33,0,2-.05h.19v-3.69l-1.38.09c-.95,0-1.62-.19-1.95-.52-.33-.33-.48-1.04-.48-2.13v-6.1h3.81v-3.69h-3.81v-4.4ZM146.46,34.02h4.09v22.9h-4.09v-22.9ZM191.72,51.15c-.71.8-1.48,1.51-2.05,1.89-.57.38-1.28.52-2.09.52-1.19,0-2.19-.43-2.95-1.32s-1.19-2.03-1.19-3.41.38-2.51,1.14-3.41,1.76-1.32,2.95-1.32c1.33,0,2.71.8,3.9,2.22l2.71-2.55c-1.76-2.27-4-3.31-6.66-3.31-2.24,0-4.19.81-5.76,2.41-1.57,1.61-2.38,3.6-2.38,6.01s.81,4.45,2.38,6.01c1.57,1.61,3.52,2.41,5.76,2.41,2.95,0,5.33-1.28,6.95-3.6l-2.71-2.55h0ZM208.46,43.06c-.57-.8-1.38-1.47-2.33-1.94s-2.09-.71-3.38-.71c-2.28,0-4.14.85-5.52,2.46-1.38,1.66-2.05,3.69-2.05,6.06s.76,4.45,2.24,6.01c1.48,1.51,3.47,2.32,5.9,2.32,2.76,0,5-1.09,6.71-3.26l.1-.09-2.66-2.55c-.24.28-.62.61-.9.95-.38.38-.76.66-1.19.85-.64.31-1.34.47-2.05.47-1.14,0-2.05-.33-2.76-.99-.67-.61-1.05-1.42-1.14-2.46h10.8l.05-1.47c0-1.04-.14-2.03-.43-2.98-.38-.99-.81-1.84-1.38-2.65h0ZM199.57,46.84c.17-.71.53-1.37,1.05-1.89.57-.52,1.28-.8,2.14-.8,1,0,1.76.28,2.28.85.48.52.76,1.13.81,1.89h-6.28v-.05ZM224.12,42.02c-1.24-1.04-2.95-1.56-5.09-1.56-1.38,0-2.62.28-3.76.85-1.15.58-2.11,1.48-2.76,2.6l.05.05,2.62,2.51c1.09-1.7,2.28-2.32,3.85-2.32.86,0,1.57.24,2.09.66.52.43.81.99.81,1.75v.81c-1-.28-2-.47-3-.47-2.05,0-3.66.47-4.9,1.42s-1.86,2.32-1.86,4.02c0,1.51.52,2.74,1.57,3.64,1.05.9,2.38,1.33,3.95,1.33s3-.62,4.33-1.7v1.32h4v-10.36c-.05-1.99-.67-3.5-1.9-4.54ZM216.89,50.77c.48-.33,1.1-.47,1.95-.47,1.06,0,2.1.2,3.09.57v1.56c-.9.8-2.09,1.23-3.52,1.23-.71,0-1.24-.14-1.62-.47-.38-.28-.57-.66-.57-1.18s.19-.95.67-1.23ZM241.68,42.3c-1.14-1.28-2.71-1.89-4.76-1.89-1.62,0-2.95.47-3.9,1.37v-.99h-4v16.13h4.09v-8.89c0-1.23.29-2.18.86-2.89.57-.71,1.38-1.04,2.43-1.04.9,0,1.62.28,2.14.9.52.61.76,1.47.76,2.55v9.32h4.09v-9.32c0-2.22-.57-3.97-1.71-5.25h0ZM141.33,42.02c-1.24-1.04-2.95-1.56-5.09-1.56-1.38,0-2.62.28-3.76.85-1.16.58-2.12,1.48-2.76,2.6l.05.05,2.62,2.51c1.1-1.7,2.28-2.32,3.86-2.32.86,0,1.57.24,2.09.66.52.43.81.99.81,1.75v.81c-1-.28-2-.47-3-.47-2.05,0-3.66.47-4.9,1.42s-1.86,2.32-1.86,4.02c0,1.51.52,2.74,1.57,3.64s2.38,1.33,3.95,1.33,3-.62,4.33-1.7v1.32h4v-10.36c-.05-1.99-.67-3.5-1.9-4.54ZM134.09,50.77c.48-.33,1.1-.47,1.95-.47,1.06,0,2.1.2,3.09.57v1.56c-.9.8-2.09,1.23-3.52,1.23-.71,0-1.24-.14-1.62-.47-.38-.28-.57-.66-.57-1.18s.19-.95.67-1.23ZM165.31,57.25c-6.52,0-11.85-5.3-11.85-11.78s5.33-11.78,11.85-11.78,11.85,5.3,11.85,11.78-5.28,11.78-11.85,11.78ZM165.3,37.81c-4.23,0-7.66,3.41-7.66,7.62s3.43,7.62,7.66,7.62,7.66-3.41,7.66-7.62-3.43-7.62-7.66-7.62Z"/>
</svg>