<?xml version="1.0" encoding="UTF-8"?>
<svg id="Layer_1" data-name="Layer 1" xmlns="http://www.w3.org/2000/svg" viewBox="0 0 250 90">
  <defs>
    <style>
      .cls-1 {
        fill: #000;
        stroke-width: 0px;
      }
    </style>
  </defs>
  <g id="g2303">
    <path id="path46" class="cls-1" d="M99.73,45.39c0-6.3-1.8-9.54-5.39-9.72-1.43-.07-2.83.16-4.18.69-1.08.39-1.81.77-2.2,1.16v15.04c2.3,1.44,4.34,2.11,6.12,2.01,3.77-.25,5.65-3.31,5.65-9.18ZM104.17,45.65c0,3.2-.75,5.86-2.26,7.97-1.68,2.39-4.02,3.62-7,3.69-2.25.07-4.56-.63-6.95-2.11v13.67l-3.86-1.38v-30.35c.63-.78,1.45-1.44,2.43-2.01,2.29-1.34,5.08-2.02,8.37-2.06l.05.05c3-.04,5.31,1.19,6.94,3.69,1.51,2.29,2.27,5.23,2.27,8.82Z"/>
    <path id="path48" class="cls-1" d="M127.73,54.63c0,4.29-.43,7.27-1.29,8.92-.86,1.65-2.51,2.97-4.94,3.96-1.97.78-4.1,1.2-6.39,1.27l-.64-2.43c2.32-.32,3.96-.63,4.91-.95,1.87-.63,3.15-1.6,3.86-2.9.57-1.06.84-3.08.84-6.07v-1c-2.64,1.2-5.4,1.79-8.29,1.79-1.9,0-3.57-.59-5.02-1.79-1.62-1.3-2.43-2.96-2.43-4.96v-16.05l3.86-1.32v16.15c0,1.73.56,3.05,1.67,3.99,1.11.93,2.56,1.38,4.32,1.35,1.77-.04,3.66-.72,5.67-2.06v-18.84h3.86v20.95Z"/>
    <path id="path50" class="cls-1" d="M142.78,57.11c-.46.04-.88.05-1.27.05-2.18,0-3.88-.52-5.1-1.56-1.21-1.04-1.82-2.48-1.82-4.32v-15.19h-2.64v-2.43h2.64v-6.44l3.85-1.37v7.81h4.33v2.43h-4.33v15.08c0,1.45.39,2.47,1.16,3.07.67.49,1.73.78,3.17.85v2.01Z"/>
    <path id="path52" class="cls-1" d="M166.13,56.79h-3.86v-14.88c0-1.51-.35-2.82-1.06-3.91-.81-1.23-1.94-1.85-3.4-1.85-1.77,0-3.98.93-6.63,2.8v17.84h-3.86V21.21l3.86-1.21v16.2c2.46-1.79,5.16-2.69,8.08-2.69,2.04,0,3.7.69,4.96,2.06,1.27,1.37,1.9,3.08,1.9,5.12v16.1h0Z"/>
    <path id="path54" class="cls-1" d="M186.62,44.78c0-2.42-.46-4.42-1.38-6-1.09-1.93-2.78-2.94-5.07-3.05-4.23.24-6.34,3.27-6.34,9.08,0,2.66.44,4.89,1.32,6.67,1.13,2.27,2.83,3.4,5.09,3.36,4.24-.03,6.37-3.38,6.37-10.05ZM190.85,44.81c0,3.45-.88,6.32-2.64,8.61-1.94,2.56-4.61,3.85-8.02,3.85s-6.02-1.29-7.92-3.85c-1.73-2.29-2.59-5.16-2.59-8.61,0-3.24.93-5.97,2.8-8.18,1.97-2.35,4.56-3.54,7.76-3.54s5.81,1.18,7.82,3.54c1.86,2.22,2.8,4.94,2.8,8.18Z"/>
    <path id="path56" class="cls-1" d="M212.95,56.79h-3.86v-15.73c0-1.73-.52-3.07-1.56-4.04-1.04-.97-2.42-1.43-4.15-1.4-1.83.03-3.57.63-5.23,1.79v19.37h-3.86v-19.85c2.22-1.62,4.26-2.67,6.13-3.16,1.76-.46,3.31-.69,4.65-.69.92,0,1.78.09,2.59.27,1.51.35,2.75,1,3.7,1.95,1.06,1.05,1.59,2.32,1.59,3.8v17.68Z"/>
    <path id="path1948" class="cls-1" d="M46.02,21.36c-1.98,0-3.88.18-5.55.47-4.91.87-5.8,2.68-5.8,6.03v4.42h11.6v1.47h-15.96c-3.37,0-6.33,2.03-7.25,5.88-1.07,4.42-1.11,7.18,0,11.79.82,3.44,2.79,5.88,6.17,5.88h3.99v-5.3c0-3.83,3.31-7.21,7.25-7.21h11.59c3.23,0,5.8-2.66,5.8-5.9v-11.05c0-3.14-2.65-5.51-5.8-6.03-1.99-.33-4.06-.48-6.05-.47ZM39.74,24.91c1.2,0,2.18.99,2.18,2.22s-.98,2.2-2.18,2.2-2.18-.99-2.18-2.2.97-2.22,2.18-2.22Z"/>
    <path id="path1950" class="cls-1" d="M59.32,33.76v5.15c0,4-3.39,7.36-7.25,7.36h-11.59c-3.18,0-5.8,2.72-5.8,5.9v11.05c0,3.14,2.73,4.99,5.8,5.9,3.67,1.08,7.2,1.28,11.59,0,2.92-.85,5.8-2.55,5.8-5.9v-4.42h-11.59v-1.47h17.39c3.37,0,4.63-2.35,5.8-5.88,1.21-3.64,1.16-7.13,0-11.79-.83-3.36-2.43-5.88-5.8-5.88h-4.36ZM52.8,61.74c1.2,0,2.18.99,2.18,2.2s-.97,2.22-2.18,2.22-2.18-.99-2.18-2.22.98-2.2,2.18-2.2Z"/>
    <path id="text3004" class="cls-1" d="M220.46,30.23h.68v-4.24h1.6v-.51h-3.88v.51h1.6v4.24M223.34,30.23h.58v-3.87l1.25,3.87h.64l1.31-3.86v3.86h.63v-4.75h-.83l-1.43,4.07-1.22-4.07h-.93v4.75"/>
  </g>
</svg>