<?xml version="1.0" encoding="UTF-8"?>
<svg id="Layer_1" data-name="Layer 1" xmlns="http://www.w3.org/2000/svg" viewBox="0 0 250 90">
  <defs>
    <style>
      .cls-1 {
        fill: #000;
        stroke-width: 0px;
      }
    </style>
  </defs>
  <path class="cls-1" d="M75.1,44.21c3.37,0,5.64,1.53,7.03,3.42v-26.99c0-.51-.6-.83-1.02-.51l-33.32,24.36h.88c3.47,0,5.22,2.22,5.22,4.62,0,1.89-.97,3.28-2.31,3.88-.23.09-.23.42,0,.51,1.53.65,2.63,2.26,2.63,4.21,0,2.77-1.8,4.95-5.27,4.95h-9.47c-.18,0-.37-.14-.37-.37v-11.46l-24.82,18.16c-.42.37-.23,1.02.32,1.02h66.93c.32,0,.55-.23.55-.55v-9.2c-1.8,1.66-4.16,2.73-7.03,2.73-5.36,0-9.71-3.7-9.71-9.38.05-5.73,4.44-9.38,9.75-9.38h0ZM61.84,62.33c0,.18-.14.32-.32.32h-3.19c-.18,0-.32-.14-.32-.32v-17.52c0-.18.14-.32.32-.32h3.19c.18,0,.32.14.32.32v17.52Z"/>
  <path class="cls-1" d="M43.35,51.7h4.48c1.29,0,2.13-.74,2.13-1.89s-.83-1.89-2.13-1.89h-4.67c-.09,0-.18.09-.18.18v3.28c0,.18.18.32.37.32h0ZM43.35,59.28h4.67c1.43,0,2.31-.79,2.31-2.08,0-1.16-.83-2.08-2.31-2.08h-4.67c-.18,0-.37.14-.37.37v3.42c0,.18.18.37.37.37ZM79.22,49.71c-.88-1.16-2.36-2.08-4.11-2.08-3.33,0-5.73,2.54-5.73,5.96s2.4,5.96,5.73,5.96c1.53,0,2.96-.65,3.74-1.29.05-.05.09-.14.09-.23v-1.76c0-.14-.14-.28-.28-.28h-4.11c-.23,0-.37-.18-.37-.37v-2.59c0-.23.18-.37.37-.37h7.63v-4.11l-2.45,1.34c-.18.05-.42-.05-.51-.18h0ZM85,53.59c0-5.59,4.02-9.38,9.2-9.38,3.37,0,5.55,1.71,6.84,3.79.09.14.05.37-.14.42l-2.08,1.11c-.14.09-.32.05-.37-.09-.88-1.39-2.5-2.4-4.25-2.4-3.47,0-6.05,2.73-6.05,6.56s2.59,6.56,6.05,6.56c1.76,0,3.37-1.02,4.25-2.4.09-.14.23-.18.37-.09l2.08,1.06c.18.09.23.28.14.46-1.34,2.08-3.51,3.84-6.84,3.84-5.18-.05-9.2-3.88-9.2-9.43h0ZM102.84,53.59c0-4.53,2.59-8.04,6.47-9.06,6.61-1.76,12.66,4.44,11.23,11.32-.88,4.25-4.25,7.16-8.74,7.16-5.27-.05-8.97-4.02-8.97-9.43ZM117.58,53.59c0-3.74-2.31-6.56-5.82-6.56s-5.82,2.82-5.82,6.56,2.26,6.56,5.82,6.56,5.82-2.87,5.82-6.56ZM139.58,62.42v-13.82l-5.5,13.91s-.09.09-.14.09h-1.16s-.14-.05-.14-.09l-5.55-13.91v13.82c0,.14-.09.23-.23.23h-2.77c-.14,0-.23-.09-.23-.23v-17.75c0-.14.09-.23.23-.23h3.97c.18,0,.32.09.42.28l4.85,12.48,4.81-12.48c.05-.18.23-.28.42-.28h3.97c.14,0,.23.09.23.23v17.75c0,.14-.09.23-.23.23h-2.77s-.18-.09-.18-.23h0ZM171.01,62.33v-17.52c0-.18.14-.32.32-.32h11.79c.18,0,.32.14.32.32v2.13c0,.18-.14.32-.32.32h-8.6c-.18,0-.32.14-.32.32v4.02c0,.18.14.32.32.32h8.41c.18,0,.32.14.32.32v2.13c0,.18-.14.32-.32.32h-8.41c-.18,0-.32.14-.32.32v4.39c0,.18.14.32.32.32h8.6c.18,0,.32.14.32.32v2.13c0,.18-.14.32-.32.32h-11.79c-.18.14-.32,0-.32-.18h0ZM198.23,62.47l-3.84-6.47c-.05-.09-.18-.14-.28-.14h-2.68c-.18,0-.32.14-.32.32v6.15c0,.18-.14.32-.32.32h-2.5c-.18,0-.32-.14-.32-.32v-17.52c0-.18.14-.32.32-.32h7.67c3.61,0,5.96,2.31,5.96,5.68,0,3-1.85,4.71-3.88,5.22-.23.05-.32.28-.23.51.74,1.2,3.05,4.9,3.93,6.24.14.23,0,.51-.28.51h-2.91c-.14,0-.23-.05-.32-.18h0ZM198.65,50.13c0-1.76-1.29-2.87-3.1-2.87h-4.07c-.18,0-.32.14-.32.32v5.13c0,.18.14.32.32.32h4.07c1.8,0,3.1-1.11,3.1-2.91ZM223.47,62.33v-17.52c0-.18.14-.32.32-.32h11.83c.18,0,.32.14.32.32v2.17c0,.18-.14.32-.32.32h-8.64c-.18,0-.32.14-.32.32v4.07c0,.18.14.32.32.32h8.41c.18,0,.32.14.32.32v2.17c0,.18-.14.32-.32.32h-8.41c-.18,0-.32.14-.32.32v4.44c0,.18.14.32.32.32h8.64c.18,0,.32.14.32.32v2.17c0,.18-.14.32-.32.32h-11.83c-.18-.09-.32-.23-.32-.42h0ZM204.24,53.5c0-5.59,4.02-9.38,9.2-9.38,3.37,0,5.55,1.71,6.84,3.79.09.14.05.37-.14.42l-2.08,1.11c-.14.09-.32.05-.37-.09-.88-1.39-2.5-2.4-4.25-2.4-3.47,0-6.05,2.73-6.05,6.56s2.59,6.56,6.05,6.56c1.76,0,3.37-1.02,4.25-2.4.09-.14.23-.18.37-.09l2.08,1.06c.18.09.23.28.14.46-1.34,2.08-3.51,3.84-6.84,3.84-5.18-.05-9.2-3.84-9.2-9.43ZM163.15,62.42v-13.82l-5.5,13.91s-.09.09-.14.09h-1.16s-.14-.05-.14-.09l-5.55-13.91v13.82c0,.14-.09.23-.23.23h-2.77c-.14,0-.23-.09-.23-.23v-17.75c0-.14.09-.23.23-.23h3.97c.18,0,.32.09.42.28l4.85,12.48,4.81-12.48c.05-.18.23-.28.42-.28h3.97c.14,0,.23.09.23.23v17.75c0,.14-.09.23-.23.23h-2.77c-.09,0-.18-.09-.18-.23h0Z"/>
</svg>