<?xml version="1.0" encoding="UTF-8" standalone="no"?>
<!DOCTYPE svg PUBLIC "-//W3C//DTD SVG 1.1//EN" "http://www.w3.org/Graphics/SVG/1.1/DTD/svg11.dtd">
<svg width="100%" height="100%" viewBox="0 0 250 90" version="1.1" xmlns="http://www.w3.org/2000/svg" xmlns:xlink="http://www.w3.org/1999/xlink" xml:space="preserve" xmlns:serif="http://www.serif.com/" style="fill-rule:evenodd;clip-rule:evenodd;stroke-linejoin:round;stroke-miterlimit:2;">
    <g transform="matrix(0.781919,0,0,0.781919,44.1541,14.323)">
        <g>
            <path d="M16.2,24.1C15.8,24.1 15.7,23.9 15.9,23.6L18,20.9C18.2,20.6 18.7,20.4 19.1,20.4L54.8,20.4C55.2,20.4 55.3,20.7 55.1,21L53.4,23.6C53.2,23.9 52.7,24.2 52.4,24.2L16.2,24.1Z"/>
            <path d="M1.1,33.3C0.7,33.3 0.6,33.1 0.8,32.8L2.9,30.1C3.1,29.8 3.6,29.6 4,29.6L49.6,29.6C50,29.6 50.2,29.9 50.1,30.2L49.3,32.6C49.2,33 48.8,33.2 48.4,33.2L1.1,33.3Z"/>
            <path d="M25.3,42.5C24.9,42.5 24.8,42.2 25,41.9L26.4,39.4C26.6,39.1 27,38.8 27.4,38.8L47.4,38.8C47.8,38.8 48,39.1 48,39.5L47.8,41.9C47.8,42.3 47.4,42.6 47.1,42.6L25.3,42.5Z"/>
            <g transform="matrix(1,0,0,1,55,0)">
                <path d="M74.1,22.3C67.8,23.9 63.5,25.1 57.3,26.7C55.8,27.1 55.7,27.2 54.4,25.7C52.9,24 51.8,22.9 49.7,21.9C43.4,18.8 37.3,19.7 31.6,23.4C24.8,27.8 21.3,34.3 21.4,42.4C21.5,50.4 27,57 34.9,58.1C41.7,59 47.4,56.6 51.9,51.5C52.8,50.4 53.6,49.2 54.6,47.8L35.3,47.8C33.2,47.8 32.7,46.5 33.4,44.8C34.7,41.7 37.1,36.5 38.5,33.9C38.8,33.3 39.5,32.3 41,32.3L77.4,32.3C77.2,35 77.2,37.7 76.8,40.4C75.7,47.6 73,54.2 68.6,60C61.4,69.5 52,75.4 40.1,77C30.3,78.3 21.2,76.4 13.2,70.4C5.8,64.8 1.6,57.4 0.5,48.2C-0.8,37.3 2.4,27.5 9,18.9C16.1,9.6 25.5,3.7 37,1.6C46.4,-0.1 55.4,1 63.5,6.5C68.8,10 72.6,14.8 75.1,20.6C75.7,21.5 75.3,22 74.1,22.3Z"/>
                <path d="M107.2,77.6C98.1,77.4 89.8,74.8 82.8,68.8C76.9,63.7 73.2,57.2 72,49.5C70.2,38.2 73.3,28.2 80.1,19.3C87.4,9.7 96.2,4.7 108.1,2.6C118.3,0.8 127.9,1.8 136.6,7.7C144.5,13.1 149.4,20.4 150.7,30C152.4,43.5 148.5,54.5 139.2,63.9C132.6,70.6 124.5,74.8 115.2,76.7C112.5,77.2 109.8,77.3 107.2,77.6ZM131,37.2C130.9,35.9 130.9,34.9 130.7,33.9C128.9,24 119.8,18.4 110.3,20.6C101,22.7 95,28.6 92.8,38C91,45.8 94.8,53.7 102,56.9C107.5,59.3 113,59 118.3,56.3C126.2,52.2 130.5,45.8 131,37.2Z" style="fill-rule:nonzero;"/>
            </g>
        </g>
    </g>
</svg>
