<?xml version="1.0" encoding="UTF-8"?>
<svg id="Layer_1" data-name="Layer 1" xmlns="http://www.w3.org/2000/svg" xmlns:xlink="http://www.w3.org/1999/xlink" viewBox="0 0 250 90">
  <defs>
    <style>
      .cls-1 {
        fill: url(#linear-gradient);
      }

      .cls-1, .cls-2, .cls-3, .cls-4 {
        stroke-width: 0px;
      }

      .cls-2 {
        fill: #000;
      }

      .cls-3 {
        fill: #9c9c9c;
      }

      .cls-4 {
        fill: url(#linear-gradient-2);
        fill-opacity: .2;
      }
    </style>
    <linearGradient id="linear-gradient" x1="28.55" y1="44" x2="44.71" y2="37.22" gradientTransform="translate(0 92) scale(1 -1)" gradientUnits="userSpaceOnUse">
      <stop offset="0" stop-color="#6c6c6c"/>
      <stop offset="1" stop-color="#9c9c9c"/>
    </linearGradient>
    <linearGradient id="linear-gradient-2" x1="29.33" y1="60.73" x2="36.7" y2="46.86" gradientTransform="translate(0 92) scale(1 -1)" gradientUnits="userSpaceOnUse">
      <stop offset="0" stop-color="#000"/>
      <stop offset="1" stop-color="#000" stop-opacity="0"/>
    </linearGradient>
  </defs>
  <path class="cls-2" d="M69.18,49.25c.24,2.25,2.29,6.11,8.23,6.11,5.18,0,7.67-3.3,7.67-6.51,0-2.9-1.97-5.27-5.86-6.07l-2.81-.6c-1.08-.2-1.81-.8-1.81-1.77,0-1.13,1.12-1.97,2.53-1.97,2.25,0,3.09,1.49,3.25,2.65l4.46-1.01c-.24-2.13-2.13-5.71-7.75-5.71-4.26,0-7.39,2.94-7.39,6.47,0,2.77,1.73,5.07,5.54,5.91l2.61.6c1.53.32,2.13,1.05,2.13,1.93,0,1.05-.84,1.97-2.61,1.97-2.33,0-3.49-1.45-3.61-3.02l-4.58,1.01Z"/>
  <path class="cls-2" d="M102.16,54.76h5.1c-.08-.68-.2-2.05-.2-3.58v-16.21h-5.34v11.5c0,2.29-1.37,3.9-3.73,3.9-2.49,0-3.62-1.77-3.62-3.98v-11.42h-5.34v12.51c0,4.3,2.73,7.8,7.51,7.8,2.09,0,4.38-.8,5.46-2.65,0,.8.08,1.73.16,2.13Z"/>
  <path class="cls-2" d="M118.1,62.4v-9.57c.96,1.33,2.97,2.41,5.7,2.41,5.58,0,9.32-4.42,9.32-10.41s-3.33-10.29-9.12-10.29c-2.97,0-5.18,1.33-6.06,2.86v-2.41h-5.18v27.42h5.34ZM127.86,44.87c0,3.54-2.17,5.59-4.9,5.59s-4.94-2.09-4.94-5.59,2.21-5.55,4.94-5.55,4.9,2.05,4.9,5.55Z"/>
  <path class="cls-2" d="M136.15,49.38c0,3.1,2.57,5.95,6.79,5.95,2.93,0,4.82-1.37,5.82-2.94,0,.76.08,1.85.2,2.37h4.9c-.12-.68-.24-2.09-.24-3.14v-9.73c0-3.98-2.33-7.52-8.59-7.52-5.3,0-8.15,3.42-8.47,6.51l4.74,1.01c.16-1.73,1.45-3.22,3.78-3.22s3.33,1.17,3.33,2.57c0,.68-.36,1.25-1.49,1.41l-4.86.72c-3.29.48-5.9,2.45-5.9,5.99ZM144.06,51.35c-1.73,0-2.57-1.13-2.57-2.29,0-1.53,1.08-2.29,2.45-2.49l4.46-.68v.88c0,3.5-2.09,4.58-4.34,4.58Z"/>
  <path class="cls-2" d="M164.18,54.76v-2.41c1.04,1.69,3.13,2.9,5.86,2.9,5.62,0,9.32-4.46,9.32-10.46s-3.33-10.33-9.12-10.33c-2.93,0-5.1,1.29-5.98,2.69v-11.5h-5.26v29.11h5.18ZM174.02,44.83c0,3.62-2.17,5.63-4.9,5.63s-4.94-2.05-4.94-5.63,2.25-5.59,4.94-5.59,4.9,1.97,4.9,5.59Z"/>
  <path class="cls-2" d="M182.39,49.38c0,3.1,2.57,5.95,6.79,5.95,2.93,0,4.82-1.37,5.82-2.94,0,.76.08,1.85.2,2.37h4.9c-.12-.68-.24-2.09-.24-3.14v-9.73c0-3.98-2.33-7.52-8.6-7.52-5.3,0-8.15,3.42-8.47,6.51l4.74,1.01c.16-1.73,1.45-3.22,3.78-3.22s3.33,1.17,3.33,2.57c0,.68-.36,1.25-1.49,1.41l-4.86.72c-3.29.48-5.9,2.45-5.9,5.99ZM190.3,51.35c-1.73,0-2.57-1.13-2.57-2.29,0-1.53,1.08-2.29,2.45-2.49l4.46-.68v.88c0,3.5-2.09,4.58-4.34,4.58Z"/>
  <path class="cls-2" d="M203.56,49.25c.24,2.25,2.29,6.11,8.23,6.11,5.18,0,7.67-3.3,7.67-6.51,0-2.9-1.97-5.27-5.86-6.07l-2.81-.6c-1.08-.2-1.81-.8-1.81-1.77,0-1.13,1.12-1.97,2.53-1.97,2.25,0,3.09,1.49,3.25,2.65l4.46-1.01c-.24-2.13-2.13-5.71-7.75-5.71-4.26,0-7.39,2.94-7.39,6.47,0,2.77,1.73,5.07,5.54,5.91l2.61.6c1.53.32,2.13,1.05,2.13,1.93,0,1.05-.84,1.97-2.61,1.97-2.33,0-3.49-1.45-3.61-3.02l-4.58,1.01Z"/>
  <path class="cls-2" d="M227.58,42.62c.12-1.81,1.65-3.9,4.42-3.9,3.05,0,4.34,1.93,4.42,3.9h-8.84ZM236.94,47.77c-.64,1.77-2.01,3.02-4.5,3.02-2.65,0-4.86-1.89-4.98-4.5h14.14c0-.08.08-.88.08-1.65,0-6.35-3.65-10.25-9.76-10.25-5.06,0-9.72,4.1-9.72,10.41,0,6.68,4.78,10.58,10.2,10.58,4.86,0,7.99-2.86,9-6.27l-4.46-1.33Z"/>
  <path class="cls-1" d="M33.93,66.75c-1.15,1.45-3.48.65-3.51-1.19l-.41-27.04h18.18c3.29,0,5.13,3.8,3.08,6.38l-17.35,21.85Z"/>
  <path class="cls-4" d="M33.93,66.75c-1.15,1.45-3.48.65-3.51-1.19l-.41-27.04h18.18c3.29,0,5.13,3.8,3.08,6.38l-17.35,21.85Z"/>
  <path class="cls-3" d="M26.53,23.25c1.15-1.45,3.48-.65,3.51,1.19l.18,27.04H12.27c-3.29,0-5.13-3.8-3.08-6.38l17.35-21.85Z"/>
</svg>