<?xml version="1.0" encoding="UTF-8" standalone="no"?>
<!DOCTYPE svg PUBLIC "-//W3C//DTD SVG 1.1//EN" "http://www.w3.org/Graphics/SVG/1.1/DTD/svg11.dtd">
<svg width="100%" height="100%" viewBox="0 0 250 90" version="1.1" xmlns="http://www.w3.org/2000/svg" xmlns:xlink="http://www.w3.org/1999/xlink" xml:space="preserve" xmlns:serif="http://www.serif.com/" style="fill-rule:evenodd;clip-rule:evenodd;stroke-linejoin:round;stroke-miterlimit:2;">
    <g transform="matrix(0.0450704,0,0,0.0450704,25,22.4648)">
        <path d="M2223.75,250C2051.25,250 1926.87,362.5 1926.87,531.25C1926.87,700 2066.72,812.5 2239.38,812.5C2343.59,812.5 2435.47,771.25 2492.34,701.719L2372.81,632.656C2341.25,667.188 2293.28,687.344 2239.38,687.344C2164.53,687.344 2100.94,648.281 2077.34,585.781L2515.16,585.781C2518.59,568.281 2520.63,550.156 2520.63,531.094C2520.63,362.5 2396.41,250 2223.75,250ZM2076.09,476.562C2095.62,414.219 2149.06,375 2223.75,375C2298.59,375 2352.03,414.219 2371.41,476.562L2076.09,476.562ZM2040.78,78.125L1607.81,828.125L1174.69,78.125L1337.03,78.125L1607.66,546.875L1878.28,78.125L2040.78,78.125ZM577.344,0L1154.69,1000L0,1000L577.344,0ZM3148.75,531.25C3148.75,625 3210,687.5 3305,687.5C3369.38,687.5 3417.66,658.281 3442.5,610.625L3562.5,679.844C3512.81,762.656 3419.69,812.5 3305,812.5C3132.34,812.5 3008.13,700 3008.13,531.25C3008.13,362.5 3132.5,250 3305,250C3419.69,250 3512.66,299.844 3562.5,382.656L3442.5,451.875C3417.66,404.219 3369.38,375 3305,375C3210.16,375 3148.75,437.5 3148.75,531.25ZM4437.5,78.125L4437.5,796.875L4296.88,796.875L4296.88,78.125L4437.5,78.125ZM3906.25,250C3733.75,250 3609.38,362.5 3609.38,531.25C3609.38,700 3749.38,812.5 3921.88,812.5C4026.09,812.5 4117.97,771.25 4174.84,701.719L4055.31,632.656C4023.75,667.188 3975.78,687.344 3921.88,687.344C3847.03,687.344 3783.44,648.281 3759.84,585.781L4197.66,585.781C4201.09,568.281 4203.12,550.156 4203.12,531.094C4203.12,362.5 4078.91,250 3906.25,250ZM3758.59,476.562C3778.13,414.219 3831.41,375 3906.25,375C3981.09,375 4034.53,414.219 4053.91,476.562L3758.59,476.562ZM2961.25,265.625L2961.25,417.031C2945.63,412.5 2929.06,409.375 2911.25,409.375C2820.47,409.375 2755,471.875 2755,565.625L2755,796.875L2614.38,796.875L2614.38,265.625L2755,265.625L2755,409.375C2755,330 2847.34,265.625 2961.25,265.625Z" style="fill-rule:nonzero;"/>
    </g>
</svg>
