<?xml version="1.0" encoding="UTF-8"?>
<svg id="Layer_1" data-name="Layer 1" xmlns="http://www.w3.org/2000/svg" viewBox="0 0 250 90">
  <defs>
    <style>
      .cls-1 {
        fill: #000;
        stroke-width: 0px;
      }
    </style>
  </defs>
  <path class="cls-1" d="M158.69,44.85c0-4.46-5.59-8.69-14.16-11.32,1.98-8.73,1.1-15.68-2.77-17.91-.89-.52-1.94-.77-3.08-.77v3.06c.63,0,1.14.12,1.57.36,1.87,1.07,2.68,5.15,2.05,10.4-.15,1.29-.4,2.65-.7,4.04-2.69-.66-5.63-1.17-8.72-1.5-1.85-2.54-3.78-4.85-5.71-6.87,4.48-4.16,8.68-6.44,11.54-6.44v-3.06c-3.78,0-8.72,2.69-13.72,7.36-5-4.64-9.94-7.31-13.72-7.31v3.06c2.84,0,7.06,2.27,11.54,6.4-1.92,2.02-3.85,4.31-5.67,6.85-3.1.33-6.04.84-8.73,1.51-.32-1.37-.55-2.71-.71-3.98-.65-5.25.15-9.32,2.01-10.41.41-.25.95-.36,1.58-.36v-3.06c-1.15,0-2.2.25-3.1.77-3.86,2.22-4.72,9.16-2.73,17.87-8.54,2.64-14.1,6.85-14.1,11.3s5.59,8.69,14.16,11.32c-1.98,8.73-1.1,15.68,2.77,17.91.89.52,1.94.77,3.09.77,3.78,0,8.72-2.69,13.72-7.36,5,4.64,9.94,7.31,13.72,7.31,1.15,0,2.2-.25,3.1-.77,3.86-2.22,4.72-9.16,2.73-17.87,8.51-2.62,14.08-6.85,14.08-11.3h0ZM140.81,35.69c-.51,1.77-1.14,3.6-1.85,5.42-.56-1.1-1.15-2.2-1.8-3.3-.63-1.1-1.3-2.17-1.98-3.21,1.95.29,3.83.65,5.63,1.08h0ZM134.52,50.32c-1.07,1.85-2.17,3.61-3.31,5.25-2.05.18-4.12.27-6.21.27s-4.15-.1-6.18-.26c-1.14-1.63-2.25-3.38-3.32-5.22-1.04-1.8-1.99-3.63-2.86-5.47.85-1.84,1.81-3.68,2.84-5.48,1.07-1.85,2.17-3.61,3.31-5.25,2.05-.18,4.12-.27,6.21-.27s4.15.1,6.18.26c1.14,1.63,2.25,3.38,3.32,5.22,1.04,1.8,1.99,3.63,2.86,5.47-.87,1.84-1.81,3.68-2.84,5.48h0ZM138.95,48.53c.74,1.84,1.37,3.68,1.9,5.47-1.8.44-3.69.81-5.66,1.1.67-1.06,1.35-2.14,1.98-3.25.63-1.1,1.22-2.21,1.79-3.31h0ZM125.03,63.18c-1.28-1.32-2.55-2.79-3.82-4.39,1.24.05,2.5.1,3.78.1s2.57-.03,3.82-.1c-1.24,1.61-2.51,3.08-3.78,4.39ZM114.81,55.1c-1.95-.29-3.83-.65-5.63-1.08.51-1.77,1.14-3.6,1.85-5.42.56,1.1,1.15,2.2,1.8,3.3s1.3,2.17,1.98,3.21ZM124.96,26.52c1.28,1.32,2.55,2.79,3.82,4.39-1.24-.05-2.5-.1-3.78-.1s-2.57.03-3.82.1c1.24-1.61,2.51-3.08,3.78-4.39ZM114.8,34.61c-.67,1.06-1.35,2.14-1.98,3.25-.63,1.1-1.22,2.2-1.79,3.3-.74-1.84-1.37-3.68-1.9-5.47,1.8-.43,3.69-.8,5.66-1.08h0ZM102.37,51.8c-4.86-2.07-8.01-4.79-8.01-6.95s3.14-4.89,8.01-6.95c1.18-.51,2.47-.96,3.8-1.39.78,2.69,1.81,5.49,3.09,8.36-1.26,2.86-2.28,5.64-3.05,8.32-1.36-.43-2.65-.89-3.85-1.4h0ZM109.76,71.42c-1.87-1.07-2.68-5.15-2.05-10.4.15-1.29.4-2.65.7-4.04,2.69.66,5.63,1.17,8.72,1.5,1.85,2.54,3.78,4.85,5.71,6.87-4.48,4.16-8.68,6.44-11.54,6.44-.62-.01-1.14-.14-1.55-.37h0ZM142.33,60.96c.65,5.25-.15,9.32-2.01,10.41-.41.25-.95.36-1.58.36-2.84,0-7.06-2.27-11.54-6.4,1.92-2.02,3.85-4.31,5.67-6.85,3.1-.33,6.04-.84,8.73-1.51.32,1.39.56,2.72.71,4ZM147.62,51.8c-1.18.51-2.47.96-3.8,1.39-.78-2.69-1.81-5.49-3.09-8.36,1.26-2.86,2.28-5.64,3.05-8.32,1.36.43,2.65.89,3.86,1.4,4.86,2.07,8.01,4.79,8.01,6.95-.01,2.16-3.16,4.89-8.02,6.95h0Z"/>
  <circle class="cls-1" cx="124.99" cy="44.85" r="6.28"/>
</svg>