<?xml version="1.0" encoding="UTF-8" standalone="no"?>
<!DOCTYPE svg PUBLIC "-//W3C//DTD SVG 1.1//EN" "http://www.w3.org/Graphics/SVG/1.1/DTD/svg11.dtd">
<svg width="100%" height="100%" viewBox="0 0 250 90" version="1.1" xmlns="http://www.w3.org/2000/svg" xmlns:xlink="http://www.w3.org/1999/xlink" xml:space="preserve" xmlns:serif="http://www.serif.com/" style="fill-rule:evenodd;clip-rule:evenodd;stroke-linejoin:round;stroke-miterlimit:2;">
    <g transform="matrix(0.319955,0,0,0.319955,84.0458,3.85079)">
        <path d="M229.81,168.288C229.81,168.288 229.472,166.213 229.274,166.232L191.621,169.865C188.646,170.144 186.289,172.564 186.088,175.546L185.054,190.372L155.924,192.45L153.942,179.013C153.501,176.024 150.891,173.771 147.87,173.771L108.13,173.771C105.11,173.771 102.5,176.024 102.059,179.013L100.076,192.45L70.946,190.372L69.912,175.546C69.711,172.564 67.354,170.144 64.379,169.864L26.707,166.232C26.512,166.213 26.37,168.29 26.175,168.29L26.125,176.438L58.029,181.583L59.073,196.542C59.285,199.57 61.728,202.019 64.758,202.236L104.877,205.098C105.029,205.108 105.178,205.115 105.328,205.115C108.343,205.115 110.949,202.861 111.39,199.872L113.429,186.046L142.572,186.046L144.611,199.872C145.051,202.86 147.66,205.114 150.679,205.114C150.827,205.114 150.975,205.108 151.119,205.098L191.243,202.236C194.272,202.019 196.716,199.57 196.928,196.542L197.971,181.583L229.862,176.416L229.81,168.288Z" style="fill:white;fill-rule:nonzero;"/>
        <path d="M26.175,106.847L26.175,168.288C26.287,168.289 26.399,168.293 26.511,168.304L64.178,171.935C66.143,172.125 67.698,173.722 67.835,175.691L68.997,192.319L101.854,194.663L104.118,179.317C104.411,177.327 106.118,175.852 108.13,175.852L147.871,175.852C149.873,175.852 151.591,177.336 151.882,179.317L154.146,194.663L187.004,192.319L188.165,175.691C188.303,173.722 189.858,172.125 191.822,171.935L229.475,168.304C229.586,168.294 229.698,168.288 229.81,168.288L229.81,163.385L229.825,163.38L229.825,106.847C235.129,100.169 240.152,92.804 244,86.607C238.119,76.597 230.914,67.65 223.212,59.361C216.069,62.956 209.131,67.029 202.578,71.364C199.299,68.104 195.605,65.438 191.978,62.651C188.414,59.788 184.397,57.689 180.587,55.244C181.721,46.797 182.282,38.481 182.508,29.802C172.678,24.855 162.195,21.575 151.592,19.219C147.359,26.334 143.488,34.039 140.116,41.571C136.118,40.903 132.101,40.655 128.079,40.607L128.079,40.601C128.05,40.601 128.024,40.607 128.001,40.607C127.976,40.607 127.95,40.601 127.925,40.601L127.925,40.607C123.895,40.655 119.881,40.903 115.882,41.571C112.512,34.039 108.643,26.334 104.404,19.219C93.806,21.575 83.322,24.855 73.494,29.802C73.718,38.482 74.279,46.797 75.416,55.244C71.599,57.69 67.588,59.788 64.022,62.651C60.4,65.438 56.7,68.104 53.42,71.364C46.867,67.029 39.931,62.956 32.786,59.361C25.084,67.65 17.883,76.596 12,86.607C16.623,93.864 21.582,101.158 26.175,106.847Z" style="fill-rule:nonzero;"/>
        <path d="M196.018,179.681L194.851,196.397C194.71,198.403 193.099,200.017 191.093,200.16L150.971,203.023C148.866,203.172 146.978,201.656 146.67,199.568L144.369,183.964L111.631,183.964L109.33,199.568C109.024,201.657 107.135,203.174 105.029,203.023L64.907,200.16C62.902,200.016 61.29,198.403 61.149,196.397L59.983,179.681L26.113,176.415C26.128,180.055 26.175,184.043 26.175,184.837C26.175,220.609 71.553,237.802 127.931,238L128.069,238C184.448,237.802 229.81,220.609 229.81,184.837C229.81,184.029 229.859,180.057 229.875,176.415L196.018,179.681Z" style="fill-rule:nonzero;"/>
        <path d="M97.304,131.788C97.304,144.33 87.142,154.49 74.604,154.49C62.072,154.49 51.907,144.33 51.907,131.788C51.907,119.254 62.072,109.1 74.604,109.1C87.142,109.1 97.304,119.254 97.304,131.788Z" style="fill:white;fill-rule:nonzero;"/>
        <path d="M91.842,133.134C91.842,141.453 85.099,148.196 76.774,148.196C68.454,148.196 61.706,141.453 61.706,133.134C61.706,124.815 68.453,118.067 76.774,118.067C85.099,118.067 91.842,124.815 91.842,133.134Z" style="fill-rule:nonzero;"/>
        <path d="M127.998,156.555C123.963,156.555 120.692,153.581 120.692,149.915L120.692,129.017C120.692,125.354 123.963,122.377 127.998,122.377C132.034,122.377 135.312,125.354 135.312,129.017L135.312,149.915C135.312,153.581 132.034,156.555 127.998,156.555ZM158.697,131.788C158.697,144.33 168.859,154.49 181.399,154.49C193.929,154.49 204.093,144.33 204.093,131.788C204.093,119.254 193.929,109.1 181.399,109.1C168.859,109.1 158.697,119.254 158.697,131.788Z" style="fill:white;fill-rule:nonzero;"/>
        <path d="M164.16,133.134C164.16,141.453 170.9,148.196 179.219,148.196C187.547,148.196 194.287,141.453 194.287,133.134C194.287,124.815 187.547,118.067 179.219,118.067C170.9,118.067 164.16,124.815 164.16,133.134Z" style="fill-rule:nonzero;"/>
    </g>
</svg>
