<?xml version="1.0" encoding="UTF-8"?>
<svg id="Layer_1" data-name="Layer 1" xmlns="http://www.w3.org/2000/svg" viewBox="0 0 250 90">
  <defs>
    <style>
      .cls-1 {
        fill: #000;
        stroke-width: 0px;
      }
    </style>
  </defs>
  <path class="cls-1" d="M78.17,40.79c-1.54-1.04-5.59-1.48-8.53-.69-.16-2.93-1.67-5.4-4.43-7.55l-1.02-.69-.68,1.03c-1.34,2.03-1.91,4.75-1.71,7.21.16,1.52.69,3.23,1.71,4.46-3.83,2.22-7.36,1.72-22.99,1.72h-24.13c-.07,3.53.5,10.32,4.81,15.85.48.61,1,1.2,1.57,1.77,3.51,3.52,8.81,6.09,16.75,6.1,12.1.01,22.47-6.53,28.77-22.34,2.08.03,7.55.37,10.23-4.81.07-.09.68-1.37.68-1.37l-1.02-.69h0ZM32.12,37.14h-6.79v6.79h6.79v-6.79ZM40.89,37.14h-6.79v6.79h6.79v-6.79ZM49.66,37.14h-6.79v6.79h6.79v-6.79h0ZM58.43,37.14h-6.79v6.79h6.79v-6.79ZM23.36,37.14h-6.79v6.79h6.79v-6.79h0ZM32.12,28.57h-6.79v6.79h6.79v-6.79h0ZM40.89,28.57h-6.79v6.79h6.79v-6.79h0ZM49.66,28.57h-6.79v6.79h6.79v-6.79h0ZM49.66,20h-6.79v6.79h6.79v-6.79ZM233.21,59.53c0,1.76-1.38,3.15-3.18,3.15s-3.2-1.38-3.2-3.15,1.42-3.11,3.2-3.11,3.18,1.38,3.18,3.11ZM227.62,59.53c0,1.38,1.02,2.48,2.43,2.48s2.37-1.1,2.37-2.46-1.01-2.5-2.39-2.5-2.41,1.12-2.41,2.48h0ZM229.54,61.16h-.72v-3.11c.28-.06.68-.09,1.19-.09.59,0,.85.09,1.08.23.17.13.3.38.3.68,0,.34-.27.61-.64.72v.04c.3.11.47.34.57.76.09.47.15.66.23.78h-.78c-.09-.11-.15-.4-.25-.76-.06-.34-.25-.49-.64-.49h-.34v1.25h0ZM229.56,59.39h.34c.4,0,.72-.13.72-.45,0-.28-.21-.48-.66-.48-.19,0-.32.02-.4.04v.89ZM111.08,28.07c-.45-.44-.98-.66-1.62-.66s-1.19.22-1.62.66c-.43.44-.64.99-.64,1.66v11.11c-2.21-1.82-4.75-2.74-7.65-2.74-3.37,0-6.24,1.22-8.63,3.65-2.38,2.43-3.57,5.37-3.57,8.82s1.19,6.38,3.57,8.82c2.38,2.43,5.25,3.65,8.63,3.65s6.21-1.22,8.63-3.65c2.38-2.41,3.57-5.35,3.57-8.82v-20.85c0-.67-.22-1.22-.67-1.66h0ZM106.59,53.58v.02c-.4.94-.94,1.77-1.63,2.48-.69.71-1.5,1.27-2.42,1.69-.93.42-1.92.62-2.98.62s-2.08-.21-3.01-.62-1.74-.98-2.42-1.68c-.68-.71-1.22-1.54-1.62-2.48-.4-.95-.6-1.96-.6-3.03s.2-2.08.6-3.03c.4-.95.94-1.77,1.62-2.48.68-.71,1.49-1.26,2.42-1.68.93-.42,1.93-.62,3.01-.62s2.05.21,2.98.62,1.74.98,2.42,1.69c.69.71,1.23,1.54,1.63,2.48.4.94.6,1.95.6,3.01s-.2,2.08-.6,3.01ZM211.84,45.78c-.59-1.48-1.49-2.82-2.68-4.02h-.02c-2.41-2.44-5.29-3.66-8.63-3.66s-6.24,1.22-8.63,3.65c-2.38,2.43-3.57,5.37-3.57,8.82s1.19,6.38,3.57,8.82c2.38,2.43,5.26,3.65,8.63,3.65,3.06,0,5.72-1.01,7.97-3.03.44-.46.66-1.02.66-1.67s-.21-1.22-.64-1.66c-.43-.44-.97-.66-1.62-.66-.57.02-1.07.21-1.5.58-.68.59-1.42,1.04-2.22,1.34-.8.3-1.68.44-2.63.44-.84,0-1.65-.13-2.42-.4-.77-.27-1.49-.64-2.13-1.13-.65-.48-1.21-1.06-1.69-1.74-.48-.67-.84-1.42-1.09-2.24h17.25c.64,0,1.17-.22,1.62-.66.45-.44.67-.99.67-1.66,0-1.72-.3-3.33-.89-4.8h0ZM193.18,48.26c.24-.81.59-1.56,1.07-2.24.48-.67,1.05-1.26,1.69-1.74.66-.48,1.37-.85,2.16-1.13.79-.27,1.59-.4,2.42-.4s1.63.13,2.41.4c.78.27,1.49.64,2.13,1.13.65.48,1.22,1.06,1.69,1.74.49.67.85,1.42,1.1,2.24h-14.68,0ZM233.03,39.66c-.41-.4-.92-.71-1.53-.94-.62-.23-1.29-.39-2.03-.48-.73-.09-1.42-.13-2.06-.13-1.45,0-2.81.24-4.1.71-1.28.48-2.47,1.16-3.55,2.04v-.44c0-.64-.22-1.18-.67-1.63-.44-.45-.97-.68-1.6-.68s-1.18.23-1.62.68c-.45.45-.67,1-.67,1.63v20.31c0,.64.22,1.18.67,1.63.44.45.98.68,1.62.68s1.16-.23,1.6-.68c.45-.45.67-1,.67-1.63v-10.16c0-1.08.2-2.1.6-3.06s.94-1.77,1.63-2.48c.69-.71,1.5-1.26,2.42-1.67.93-.41,1.92-.62,2.99-.62s2.07.19,2.98.56c.36.16.68.25.96.25.32,0,.62-.06.89-.18s.52-.29.72-.5c.2-.21.36-.46.49-.75.12-.28.19-.58.19-.91,0-.64-.2-1.16-.61-1.56h0,0ZM137.82,45.79c-.59-1.47-1.48-2.82-2.67-4.03-2.41-2.43-5.29-3.65-8.63-3.65s-6.24,1.22-8.63,3.65c-2.38,2.43-3.57,5.37-3.57,8.82s1.19,6.38,3.57,8.82c2.38,2.43,5.25,3.65,8.63,3.65s6.21-1.22,8.63-3.65c2.38-2.41,3.57-5.35,3.57-8.82-.02-1.72-.32-3.32-.9-4.79h0ZM133.57,53.58v.02c-.4.94-.94,1.77-1.63,2.48-.69.71-1.5,1.27-2.42,1.69s-1.92.62-2.98.62-2.08-.21-3.01-.62-1.74-.98-2.42-1.68c-.68-.71-1.22-1.54-1.62-2.48-.4-.95-.6-1.96-.6-3.03s.2-2.08.6-3.03c.4-.95.94-1.77,1.62-2.48.68-.71,1.49-1.26,2.42-1.68.93-.42,1.93-.62,3.01-.62s2.05.21,2.98.62,1.74.98,2.42,1.69,1.23,1.54,1.63,2.48c.4.94.6,1.95.6,3.01s-.2,2.08-.6,3.01h0ZM186.6,40.42c0-.31-.07-.61-.19-.89-.12-.28-.28-.53-.49-.75-.2-.21-.45-.39-.72-.5-.28-.11-.58-.18-.89-.18-.45,0-.86.12-1.22.35l-13.02,8.67v-17.38c0-.66-.22-1.21-.66-1.66-.45-.45-.97-.68-1.6-.68s-1.18.23-1.62.68c-.45.45-.66,1-.66,1.66v30.97c0,.64.22,1.19.66,1.65s.98.69,1.62.69,1.16-.23,1.6-.69c.45-.46.66-1.01.66-1.65v-8.04l2.66-1.78,10.06,11.56c.41.4.92.6,1.52.6.32,0,.62-.06.89-.18.28-.12.52-.29.72-.5.2-.21.36-.46.49-.75.12-.28.19-.58.19-.89,0-.61-.21-1.15-.63-1.63l-9.37-10.78,9.12-6.06c.58-.4.87-1.02.87-1.85v.02h0ZM148.05,45.04c.7-.71,1.51-1.26,2.44-1.67.93-.41,1.92-.62,2.98-.62.96,0,1.84.16,2.66.49.81.33,1.59.81,2.33,1.45.44.35.93.53,1.48.53.66,0,1.19-.22,1.62-.67s.64-1,.64-1.67-.26-1.28-.79-1.76c-2.24-2.02-4.89-3.03-7.95-3.03-3.37,0-6.24,1.22-8.63,3.65-2.38,2.43-3.57,5.37-3.57,8.82s1.19,6.38,3.57,8.82c2.38,2.43,5.25,3.65,8.63,3.65,3.05,0,5.7-1.01,7.95-3.03.48-.49.72-1.06.72-1.72s-.21-1.22-.64-1.66c-.43-.44-.97-.66-1.62-.66-.55.02-1.03.18-1.44.49-.73.64-1.49,1.12-2.31,1.44-.81.32-1.69.48-2.66.48-1.06,0-2.05-.21-2.98-.62s-1.74-.97-2.44-1.67c-.7-.7-1.25-1.54-1.65-2.48-.4-.95-.6-1.97-.6-3.06s.2-2.1.6-3.06c.4-.95.95-1.77,1.65-2.48h0s0,0,0,0Z"/>
</svg>