<?xml version="1.0" encoding="UTF-8"?>
<svg id="Layer_1" data-name="Layer 1" xmlns="http://www.w3.org/2000/svg" viewBox="0 0 250 90">
  <defs>
    <style>
      .cls-1 {
        fill: #000;
        stroke-width: 0px;
      }
    </style>
  </defs>
  <g id="Logotypes">
    <g>
      <polygon class="cls-1" points="63.84 66.82 21.26 66.82 21.26 24.24 63.84 24.24 42.55 45.52 63.84 66.82"/>
      <g>
        <polygon class="cls-1" points="115.38 24.1 106.83 24.1 88.41 43.86 88.41 24.24 81.6 24.24 81.6 66.82 88.41 66.82 88.41 46.26 106.97 66.82 115.64 66.82 96.02 44.79 115.38 24.1"/>
        <path class="cls-1" d="M138.47,37.05c-2.4-1.34-5.21-2.14-8.15-2.14s-5.87.66-8.27,2.14c-2.4,1.47-4.41,3.34-5.74,5.74-1.34,2.54-2,5.34-2,8.41s.66,6.01,2,8.41,3.2,4.41,5.74,5.74c2.4,1.34,5.21,2.14,8.27,2.14s5.87-.66,8.27-2.14c2.4-1.34,4.27-3.34,5.61-5.74,1.34-2.54,2-5.34,2-8.41s-.8-5.87-2.14-8.41c-1.32-2.41-3.2-4.41-5.6-5.74ZM137.94,56.67c-.8,1.6-1.87,2.8-3.2,3.6-1.34.94-2.94,1.34-4.67,1.34s-3.34-.4-4.81-1.34c-1.34-.94-2.4-2.14-3.2-3.6-.8-1.6-1.07-3.34-1.07-5.34s.4-3.87,1.2-5.34c.8-1.6,1.87-2.8,3.2-3.6,1.34-.94,2.94-1.34,4.81-1.34,1.74,0,3.34.4,4.67,1.34,1.34.94,2.4,2.14,3.2,3.6.8,1.6,1.07,3.34,1.07,5.34s-.4,3.74-1.2,5.34Z"/>
        <path class="cls-1" d="M159.97,27.84h-6.54v5.34c0,.8-.14,1.47-.66,1.87-.4.4-1.07.66-1.87.66h-3.2v5.61h5.61v16.82c0,1.74.4,3.34,1.07,4.67.66,1.34,1.74,2.4,3.07,3.07,1.34.8,2.8,1.07,4.67,1.07h5.07v-5.87h-3.74c-.94,0-1.74-.26-2.4-1.07-.54-.66-.94-1.6-.94-2.67v-16.02h7.21v-5.61h-7.21v-7.87h-.12Z"/>
        <rect class="cls-1" x="172.39" y="22.5" width="6.67" height="44.32"/>
        <rect class="cls-1" x="186.67" y="22.64" width="6.81" height="6.94"/>
        <rect class="cls-1" x="186.67" y="35.72" width="6.67" height="31.23"/>
        <path class="cls-1" d="M227.39,40.79c-.94-1.87-2.27-3.34-4-4.27-1.74-1.07-3.74-1.6-6.01-1.6-2.4,0-4.54.66-6.41,1.74-1.47.94-2.67,2.27-3.6,3.74v-4.81h-6.41v31.23h6.67v-17.49c0-1.74.26-3.2.94-4.54.66-1.34,1.6-2.27,2.67-3.07,1.2-.66,2.54-1.07,4.14-1.07,1.47,0,2.54.26,3.6.94s1.74,1.47,2.27,2.54c.54,1.07.8,2.4.8,3.87v18.69h6.67v-19.49c.14-2.4-.38-4.53-1.33-6.41Z"/>
      </g>
    </g>
  </g>
</svg>