<?xml version="1.0" encoding="UTF-8" standalone="no"?>
<!DOCTYPE svg PUBLIC "-//W3C//DTD SVG 1.1//EN" "http://www.w3.org/Graphics/SVG/1.1/DTD/svg11.dtd">
<svg width="100%" height="100%" viewBox="0 0 250 90" version="1.1" xmlns="http://www.w3.org/2000/svg" xmlns:xlink="http://www.w3.org/1999/xlink" xml:space="preserve" xmlns:serif="http://www.serif.com/" style="fill-rule:evenodd;clip-rule:evenodd;stroke-linejoin:round;stroke-miterlimit:2;">
    <g transform="matrix(1.92228,0,0,1.92228,9.66291,-12.6676)">
        <path d="M65.852,22.815L62.354,22.815L62.354,30.9C62.354,32.974 61.501,34.632 58.994,34.632C56.514,34.659 55.794,32.952 55.794,30.792L55.794,22.822L52.294,22.822L52.294,31.672C52.294,34.232 53.201,37.872 57.998,37.909C60.638,37.936 61.943,36.656 62.555,35.509L62.555,37.454L65.839,37.454L65.852,22.815ZM67.234,37.445L70.726,37.445L70.726,29.37C70.726,27.318 71.579,25.666 74.058,25.638C76.51,25.638 77.23,27.318 77.23,29.503L77.23,37.445L80.722,37.445L80.722,28.623C80.722,26.038 79.815,22.386 75.045,22.359C72.433,22.332 71.125,23.612 70.488,24.759L70.515,22.814L67.235,22.814L67.235,37.444L67.234,37.445ZM82.054,20.84L85.546,20.84L85.546,17.72L82.054,17.72L82.054,20.84ZM82.054,37.444L85.546,37.444L85.546,22.814L82.054,22.814L82.054,37.444ZM89.199,37.446L92.691,37.446L92.691,25.506L95.196,25.506L94.159,22.814L92.7,22.814L92.7,17.72L89.2,17.72L89.2,22.816L86.775,22.816L86.775,25.508L89.2,25.508L89.199,37.446ZM98.566,42.563L102.296,42.563L110,22.815L106.268,22.815L102.748,32.542L99.184,22.815L95.446,22.815L100.963,36.889L98.566,42.563ZM45.53,26.256L41.63,11.792L27.1,15.67L24.952,19.446L20.602,19.416L10,30.003L20.622,40.588L24.979,40.555L27.129,44.331L41.629,48.207L45.516,33.745L43.32,30L45.53,26.256ZM36.43,17.21L30.06,28.214L17.32,28.214L25.34,20.054L36.43,17.21ZM30.06,31.81L36.43,42.813L25.33,39.961L17.31,31.813L30.05,31.813L30.06,31.81ZM33.16,30.023L39.542,19L42.622,30.004L39.542,41.004L33.16,30.023Z" style="fill-rule:nonzero;"/>
    </g>
</svg>
