<?xml version="1.0" encoding="UTF-8"?>
<svg id="Layer_1" data-name="Layer 1" xmlns="http://www.w3.org/2000/svg" viewBox="0 0 250 90">
  <defs>
    <style>
      .cls-1, .cls-2 {
        fill: #000;
        stroke-width: 0px;
      }

      .cls-2 {
        isolation: isolate;
        opacity: .72;
      }
    </style>
  </defs>
  <polygon class="cls-2" points="57.98 72.5 57.95 72.5 43.16 57.7 51.6 49.22 74.84 72.5 57.98 72.5"/>
  <polygon class="cls-2" points="57.95 42.87 57.95 42.87 43.12 57.67 51.6 66.12 74.84 42.87 57.95 42.87"/>
  <polygon class="cls-2" points="57.95 17.53 57.92 17.5 30.39 45 38.87 53.48 74.81 17.53 57.95 17.53"/>
  <path class="cls-1" d="M97.45,29.47h18.55v3.64h-14.79v10.98h13.36v3.58h-13.36v13.91h-3.77V29.47Z"/>
  <path class="cls-1" d="M119.93,29.47h3.81v32.09h-3.81V29.47Z"/>
  <path class="cls-1" d="M130.22,59.86c-1.45-1.61-2.17-3.87-2.17-6.77v-14.38h3.81v13.8c0,2.18.49,3.78,1.48,4.8.99,1.01,2.32,1.52,3.99,1.52,1.22.02,2.42-.34,3.43-1.03,1-.68,1.8-1.61,2.33-2.69.55-1.08.84-2.28.83-3.5v-12.91h3.81v22.86h-3.63v-3.3h-.18c-.71,1.22-1.75,2.21-3.01,2.87-1.34.77-2.85,1.17-4.39,1.16-2.74-.01-4.84-.82-6.29-2.44Z"/>
  <path class="cls-1" d="M158.89,61.82c-.74-.27-1.42-.69-2-1.23-.59-.56-1.05-1.25-1.34-2.01-.32-.89-.47-1.84-.45-2.79v-13.64h-3.99v-3.45h3.99v-6.45h3.81v6.45h5.56v3.45h-5.56v12.74c0,1.29.24,2.23.72,2.84.57.67,1.39,1.01,2.47,1.01.89,0,1.76-.27,2.51-.76v3.72c-.44.2-.9.35-1.37.45-.58.1-1.18.14-1.77.13-.88,0-1.75-.15-2.58-.46Z"/>
  <path class="cls-1" d="M174.64,61.82c-.74-.27-1.42-.69-1.99-1.23-.59-.56-1.05-1.25-1.35-2.01-.32-.89-.47-1.84-.45-2.79v-13.64h-3.99v-3.45h3.99v-6.45h3.81v6.45h5.56v3.45h-5.56v12.74c0,1.29.24,2.23.71,2.84.57.67,1.39,1.01,2.47,1.01.89,0,1.76-.27,2.51-.76v3.72c-.44.2-.89.36-1.37.45-.59.1-1.18.14-1.77.13-.88,0-1.75-.15-2.58-.46Z"/>
  <path class="cls-1" d="M187.53,60.71c-1.72-1.04-3.13-2.54-4.05-4.33-.99-1.92-1.49-4.05-1.46-6.21-.02-2.11.45-4.2,1.37-6.1.87-1.8,2.21-3.34,3.88-4.44,1.73-1.12,3.76-1.7,5.82-1.66,2.04-.05,4.06.47,5.82,1.5,1.64.99,2.95,2.43,3.79,4.15.91,1.89,1.36,3.96,1.32,6.05,0,.39-.04.78-.14,1.16h-18.06c.04,1.55.47,3.06,1.26,4.39.68,1.14,1.67,2.07,2.84,2.69,1.11.59,2.35.9,3.61.9,2.93,0,5.19-1.37,6.77-4.12l3.24,1.57c-.93,1.79-2.31,3.31-4.01,4.4-1.69,1.08-3.73,1.62-6.12,1.62-2.07.03-4.11-.52-5.88-1.58ZM199.99,47.71c-.07-1-.35-1.98-.81-2.87-.52-1-1.3-1.84-2.26-2.42-1.17-.7-2.52-1.04-3.88-.99-1.68-.04-3.32.58-4.55,1.73-1.28,1.22-2.13,2.81-2.44,4.55h13.95Z"/>
  <path class="cls-1" d="M206.49,38.71h3.63v3.68h.18c.49-1.31,1.4-2.41,2.59-3.14,1.19-.81,2.59-1.25,4.03-1.26.92-.02,1.84.15,2.69.49v4.08c-1.01-.49-2.12-.73-3.24-.71-1.09,0-2.15.32-3.05.94-.93.65-1.69,1.52-2.2,2.54-.55,1.06-.84,2.24-.83,3.44v12.81h-3.81v-22.86h0Z"/>
</svg>